<svg width="20" height="25" viewBox="0 0 20 25" fill="none" xmlns="http://www.w3.org/2000/svg">
<path d="M19.1667 5.00016H15V0.833496L19.1667 5.00016Z" fill="#f4772b"/>
<path d="M3.33333 23.3333C2.41667 23.3333 1.66667 22.5833 1.66667 21.6667V5H0.833333C0.375 5 0 5.375 0 5.83333V24.1667C0 24.625 0.375 25 0.833333 25H14.1667C14.625 25 15 24.625 15 24.1667V23.3333H3.33333Z" fill="#f4772b"/>
<path d="M5.83333 20.8333C4.91667 20.8333 4.16667 20.0833 4.16667 19.1667V2.5H3.33333C2.875 2.5 2.5 2.875 2.5 3.33333V21.6667C2.5 22.125 2.875 22.5 3.33333 22.5H16.6667C17.125 22.5 17.5 22.125 17.5 21.6667V20.8333H5.83333Z" fill="#f4772b"/>
<path d="M14.1667 5.83333V0H5.83333C5.375 0 5 0.375 5 0.833333V19.1667C5 19.625 5.375 20 5.83333 20H19.1667C19.625 20 20 19.625 20 19.1667V5.83333H14.1667Z" fill="#f4772b"/>
</svg>
