<svg width="20" height="25" viewBox="0 0 20 25" fill="none" xmlns="http://www.w3.org/2000/svg">
<path d="M19.9962 19.7789L19.9973 12.04V11.8659C19.9973 9.31679 19.9976 6.76732 19.9973 4.2182C19.9966 1.86241 18.1283 0.00521365 15.7467 0.00240663C12.519 -0.00145302 9.29093 0.00170488 6.0632 0.00170488L3.9594 0.0129329C3.75363 0.0255645 3.54679 0.0515294 3.34564 0.09574C1.36174 0.528372 0.00438135 2.20451 0.00154316 4.22977C-0.00200457 6.98978 0.00047884 9.75012 0.00047884 12.5101C0.00047884 15.2526 -0.000230707 17.9954 0.00047884 20.7378C0.00118839 23.108 1.82721 24.9782 4.19709 24.9884C8.0698 25.0049 11.9429 25.0035 15.8156 24.9884C17.8843 24.9803 19.5953 23.508 19.9395 21.4947C20.0367 20.9252 19.9838 20.3512 19.9962 19.7789ZM6.6986 6.48837H7.65968C8.7797 6.48837 9.48712 6.1196 9.68438 5.44241H6.6986V4.33083H9.58965C9.33634 3.87223 8.76054 3.63995 7.87219 3.63995H6.69825V2.33118H12.7567V3.44276H10.875C11.0687 3.69855 11.201 3.99539 11.2713 4.33083H12.7564V5.44241H11.2915C11.0832 6.66978 10.1303 7.47013 8.67434 7.65399C9.63719 8.67609 10.665 9.90065 11.6406 11.0838L11.9461 11.454H10.0782L10.0093 11.3719C8.96312 10.1249 7.99672 8.98697 6.75998 7.68556L6.69754 7.61995V6.48767L6.6986 6.48837ZM2.61587 14.2789C2.75991 13.7789 3.1945 13.4631 3.77137 13.461C5.04146 13.4561 6.3119 13.4592 7.58199 13.4592C8.38874 13.4592 9.19585 13.4592 10.0026 13.4592V13.46C12.0716 13.46 14.1407 13.4582 16.2097 13.461C16.8068 13.4621 17.2375 13.7708 17.3844 14.2838C17.5855 14.9873 17.0857 15.6877 16.3488 15.734C16.3091 15.7364 16.269 15.7354 16.2289 15.7354C12.0748 15.7354 7.92044 15.7364 3.7664 15.7347C2.95184 15.7343 2.39981 15.0308 2.61587 14.2792V14.2789ZM17.3723 19.7414C17.2283 20.1775 16.832 20.4814 16.3538 20.52C16.2903 20.5252 16.226 20.5242 16.1622 20.5242C12.056 20.5242 7.94989 20.5249 3.84339 20.5242C3.22395 20.5242 2.77871 20.2301 2.62084 19.7242C2.3881 18.9789 2.93517 18.2522 3.74192 18.2494C5.15605 18.2445 6.56982 18.248 7.98395 18.248C8.66298 18.248 9.34202 18.248 10.0211 18.248C12.0983 18.248 14.1751 18.2452 16.2523 18.2494C17.0722 18.2508 17.6207 18.9891 17.372 19.7414H17.3723Z" fill="#F4772B"/>
</svg>
