<svg width="23" height="23" viewBox="0 0 23 23" fill="none" xmlns="http://www.w3.org/2000/svg">
<path d="M11.4995 0C5.14865 0 0 5.14865 0 11.4995C0 17.8503 5.14865 22.9989 11.4995 22.9989C17.8503 22.9989 22.9989 17.8503 22.9989 11.4995C22.9989 5.14865 17.8513 0 11.4995 0ZM15.6641 6.70458H13.0776C13.3435 7.06046 13.5257 7.47248 13.6221 7.93852H15.6641V9.48386H13.6507C13.3647 11.1902 12.0545 12.3023 10.0537 12.5576C11.3777 13.9779 12.7895 15.68 14.1315 17.3249L14.551 17.8397H11.9835L11.8892 17.7253C10.4509 15.9925 9.12268 14.4101 7.4227 12.6021L7.33691 12.511V10.937H8.6577C10.1977 10.937 11.1701 10.4244 11.4412 9.48386H7.33691V7.93852H11.3109C10.9625 7.3009 10.1713 6.97891 8.95003 6.97891H7.33691V5.15924H15.6652V6.70458H15.6641Z" fill="#F4772B"/>
</svg>
