<svg width="28" height="22" viewBox="0 0 28 22" fill="none" xmlns="http://www.w3.org/2000/svg">
<path d="M27.4451 7.01298L23.6657 3.68311C23.65 3.99817 23.5924 4.31323 23.4877 4.61199L17.8552 20.9246L27.6126 9.32162C28.1884 8.63718 28.1151 7.60508 27.4451 7.01841V7.01298Z" fill="#f4772b"/>
<path d="M16.2744 21.1853L21.9853 4.60111C22.2837 3.75371 21.8492 2.81395 21.0222 2.50976C21.0222 2.50976 21.0169 2.50976 21.0117 2.50976L15.9446 0.68457C16.1801 1.1463 16.3005 1.65692 16.2953 2.17297V20.9137C16.2953 21.0061 16.2953 21.093 16.2744 21.1853Z" fill="#f4772b"/>
<path d="M12.5788 0H2.18284C0.978875 0 0 0.733333 0 1.64049V20.3812C0.0104692 21.2775 0.984109 22.0054 2.18284 22.0054H12.5788C13.7828 22.0054 14.7616 21.2721 14.7616 20.3649V1.62963C14.7564 0.727901 13.7828 0 12.5788 0Z" fill="#f4772b"/>
</svg>
