<?xml version="1.0" encoding="UTF-8"?>
<svg id="Layer_1" data-name="Layer 1" xmlns="http://www.w3.org/2000/svg" viewBox="0 0 145.54 145.54">
  <defs>
    <style>
      .cls-1 {
        fill: #fff;
        stroke-width: 0px;
      }

      .cls-2 {
        fill: #302e7f;
        stroke: #000;
        stroke-miterlimit: 10;
      }
    </style>
  </defs>
  <rect class="cls-2" x=".5" y=".5" width="144.54" height="144.54" rx="15" ry="15"/>
  <path class="cls-1" d="m59.04,21.45c-1.48,0-2.68,1.2-2.68,2.68v18.79c0,1.48,1.2,2.68,2.68,2.68s2.68-1.2,2.68-2.68v-18.79c0-1.48-1.2-2.68-2.68-2.68Zm-23.11,12.04c-1.48.14-2.56,1.46-2.41,2.93.06.64.35,1.24.82,1.68l8.05,8.05c1.03,1.06,2.73,1.09,3.8.06,1.06-1.03,1.09-2.73.06-3.8-.03-.03-.05-.05-.08-.08l-8.05-8.05c-.57-.58-1.37-.88-2.18-.8Zm44.8,1.3c-.11,0-.22.02-.34.04-.59.09-1.14.37-1.55.8l-8.05,8.05c-1.07,1.02-1.12,2.72-.1,3.8,1.02,1.07,2.72,1.12,3.8.1.03-.02.05-.05.07-.07l8.05-8.05c1.09-1.01,1.16-2.7.15-3.79-.52-.57-1.27-.88-2.04-.86h0Zm-28.06,15.27c-1.48.06-2.63,1.31-2.57,2.8.01.29.07.58.18.85l23.74,61.7c.54,1.38,2.1,2.06,3.48,1.52.59-.23,1.09-.67,1.39-1.23l7.59-14.09,15.65,15.69c1.04,1.05,2.74,1.06,3.8.02,0,0,.01-.01.02-.02l11.37-11.41c1.03-1.05,1.03-2.73,0-3.78l-15.6-15.65,14.05-7.63c1.3-.71,1.78-2.34,1.07-3.64-.31-.56-.8-.99-1.4-1.22l-61.66-23.74c-.35-.13-.72-.19-1.09-.17h0Zm-28.52,6.29c-1.48,0-2.68,1.2-2.68,2.68s1.2,2.68,2.68,2.68h18.79c1.48,0,2.68-1.2,2.68-2.68s-1.2-2.68-2.68-2.68h-18.79Zm33.3,1.05l50.63,19.5-12.12,6.54c-1.31.7-1.81,2.32-1.11,3.63.13.24.29.46.48.65l16.32,16.27-7.59,7.59-16.32-16.27c-1.05-1.05-2.75-1.04-3.8,0-.17.17-.32.37-.44.58l-6.59,12.12-19.46-50.63h0Zm-11.83,12.29c-.11,0-.22.02-.34.04-.59.09-1.14.37-1.55.8l-8.05,8.05c-1.08,1.02-1.12,2.72-.1,3.8,1.02,1.08,2.72,1.12,3.8.1.03-.03.05-.05.08-.08l8.05-8.05c1.09-1.01,1.16-2.7.15-3.79-.52-.57-1.27-.88-2.04-.86h0Z"/>
</svg>