<?xml version="1.0" encoding="UTF-8"?>
<svg id="Layer_1" data-name="Layer 1" xmlns="http://www.w3.org/2000/svg" viewBox="0 0 145.54 145.54">
  <defs>
    <style>
      .cls-1 {
        stroke-width: 0px;
      }

      .cls-1, .cls-2 {
        fill: #fff;
      }

      .cls-3 {
        fill: #302e7f;
        stroke: #000;
        stroke-miterlimit: 10;
      }

      .cls-2 {
        font-size: 18px;
      }
    </style>
  </defs>
  <rect class="cls-3" x=".5" y=".5" width="144.54" height="144.54" rx="15" ry="15"/>
  <g>
    <text class="cls-2" transform="translate(85.92 74.91)"><tspan x="0" y="0">₹</tspan></text>
    <text class="cls-2" transform="translate(61.18 82.6)"><tspan x="0" y="0">₹</tspan></text>
    <g>
      <path class="cls-1" d="m72.14,85.9c.43.18.84.37,1.22.54.84.38,1.6.71,2.25.92,1.61-1.18,2.98-2.66,4.04-4.37-.85-.61-1.64-1.29-2.37-2.03-1.19,2.11-2.98,3.82-5.13,4.93Z"/>
      <path class="cls-1" d="m57.77,83.6c-4.8-4.83-4.78-12.65.05-17.45,3.85-3.83,9.75-4.69,14.53-2.12.22-1.02.53-2.01.92-2.98-7.64-3.74-16.87-.59-20.61,7.05-2.55,5.21-1.96,11.41,1.53,16.05,1.18-.23,2.39-.42,3.57-.55Z"/>
      <path class="cls-1" d="m114.39,87.98c-.8-.83-2.6-2.1-5.67-1.18-1.84.55-7.69,4.69-12.53,8.27.35,1.15.49,2.35.4,3.55,5.65-4.21,11.66-8.47,13.01-8.87.86-.36,1.84-.22,2.56.37.7.9.88,2.11.46,3.17-1.1,3.22-21.59,20.19-30.03,24.88-7.37,4.08-12.22,1.77-15.76.08-6.02-2.76-12.33-4.82-18.82-6.13v.6c0,.83-.12,1.66-.34,2.47,6.14,1.28,12.13,3.24,17.83,5.85,2.82,1.54,5.96,2.39,9.18,2.49,3.31-.06,6.56-.98,9.41-2.66,7.4-4.1,29.8-21.7,31.46-26.58.81-2.15.36-4.58-1.16-6.31Z"/>
      <path class="cls-1" d="m62.35,89.63c2.96.29,5.84,1.12,8.5,2.45,1.28.63,2.62,1.12,4,1.47,1.94.33,3.9.49,5.87.48,3.65.1,7.78.21,9.11,1.93.61.86.79,1.95.48,2.96-.37,1.17-1.41,2.05-3.01,2.55-4.1,1.28-15.33,2.46-19.98,1.82-.84-.12-1.62.48-1.74,1.32-.12.84.48,1.62,1.32,1.74,1.22.15,2.45.21,3.69.2,5.76,0,14.04-1.02,17.63-2.13,2.57-.8,4.36-2.43,5.03-4.57.61-1.97.24-4.11-.98-5.77-2.23-2.88-6.93-3.01-11.47-3.13-1.77.01-3.54-.12-5.29-.41-1.17-.31-2.31-.74-3.4-1.28-2.97-1.46-6.18-2.38-9.48-2.7-4.67-.43-11.26,1.28-15.33,2.55.4.96.63,1.98.69,3.02,3.82-1.2,10.14-2.89,14.37-2.5Z"/>
      <path class="cls-1" d="m38.75,86.49h-20.06c-.85,0-1.54.69-1.54,1.54s.69,1.54,1.54,1.54h12.35v26.24h-12.35c-.85,0-1.54.69-1.54,1.54s.69,1.54,1.54,1.54h20.06c3.41,0,6.17-2.77,6.17-6.17v-20.06c0-3.41-2.77-6.17-6.17-6.17Zm3.09,26.24c0,1.7-1.38,3.08-3.09,3.09h-4.63v-26.24h4.63c1.7,0,3.08,1.38,3.09,3.09v20.06Z"/>
      <path class="cls-1" d="m90.45,83.4c8.52,0,15.43-6.91,15.43-15.43,0-8.52-6.91-15.43-15.43-15.43-8.52,0-15.43,6.91-15.43,15.43,0,8.52,6.91,15.42,15.43,15.43Zm0-27.78c6.82,0,12.35,5.53,12.35,12.35,0,6.82-5.53,12.35-12.35,12.35-6.82,0-12.35-5.53-12.35-12.35,0-6.82,5.53-12.34,12.35-12.35h0Z"/>
      <path class="cls-1" d="m90.45,49.45c.85,0,1.54-.69,1.54-1.54v-13.89c0-.85-.69-1.54-1.54-1.54s-1.54.69-1.54,1.54v13.89c0,.85.69,1.54,1.54,1.54Z"/>
      <path class="cls-1" d="m90.45,29.38c.85,0,1.54-.69,1.54-1.54v-1.54c0-.85-.69-1.54-1.54-1.54s-1.54.69-1.54,1.54v1.54c0,.85.69,1.54,1.54,1.54Z"/>
      <path class="cls-1" d="m101.25,51.76c.85,0,1.54-.69,1.54-1.54v-13.89c0-.85-.69-1.54-1.54-1.54s-1.54.69-1.54,1.54v13.89c0,.85.69,1.54,1.54,1.54Z"/>
      <path class="cls-1" d="m101.25,31.7c.85,0,1.54-.69,1.54-1.54v-1.54c0-.85-.69-1.54-1.54-1.54s-1.54.69-1.54,1.54v1.54c0,.85.69,1.54,1.54,1.54Z"/>
      <path class="cls-1" d="m79.65,51.76c.85,0,1.54-.69,1.54-1.54v-13.89c0-.85-.69-1.54-1.54-1.54s-1.54.69-1.54,1.54v13.89c0,.85.69,1.54,1.54,1.54Z"/>
      <path class="cls-1" d="m79.65,31.7c.85,0,1.54-.69,1.54-1.54v-1.54c0-.85-.69-1.54-1.54-1.54s-1.54.69-1.54,1.54v1.54c0,.85.69,1.54,1.54,1.54Z"/>
    </g>
  </g>
</svg>