<?xml version="1.0" encoding="UTF-8"?>
<svg id="Layer_1" data-name="Layer 1" xmlns="http://www.w3.org/2000/svg" viewBox="0 0 145.54 145.54">
  <defs>
    <style>
      .cls-1 {
        fill: #fff;
        stroke-width: 0px;
      }

      .cls-2 {
        fill: #302e7f;
        stroke: #000;
        stroke-miterlimit: 10;
      }
    </style>
  </defs>
  <rect class="cls-2" x=".5" y=".5" width="144.54" height="144.54" rx="15" ry="15"/>
  <path class="cls-1" d="m114.43,83.23h-8.39v-20.52c2.22-.58,4.25-1.73,5.9-3.33,3.48-4.09,4.81-9.6,3.56-14.82-.2-.86-1.07-1.39-1.93-1.19-.02,0-.05.01-.07.02-2.48.7-4.79,1.89-6.8,3.5-.78.64-1.5,1.34-2.17,2.1-.67-.76-1.41-1.46-2.2-2.1-2.03-1.67-4.37-2.9-6.9-3.63-.85-.24-1.73.24-1.98,1.09,0,.02-.01.05-.02.07-1.19,5.23.14,10.72,3.6,14.82,1.64,1.61,3.67,2.76,5.9,3.33v20.52h-7.2c.23-.2.5-.37.73-.6,3.45-4.12,4.78-9.61,3.6-14.86-.23-.87-1.12-1.4-1.99-1.17,0,0,0,0,0,0-2.53.73-4.89,1.96-6.93,3.63-.77.65-1.49,1.35-2.17,2.1-.68-.74-1.4-1.44-2.17-2.1-2.04-1.66-4.4-2.89-6.93-3.63-.43-.13-.89-.07-1.27.17-.36.23-.62.59-.73,1-1.19,5.24.14,10.74,3.6,14.86.23.23.5.4.73.6h-7.53v-20.39c2.23-.57,4.26-1.72,5.9-3.33,3.46-4.1,4.79-9.59,3.6-14.82-.2-.86-1.07-1.39-1.93-1.19-.02,0-.05.01-.07.02-2.53.74-4.88,1.97-6.93,3.63-.77.65-1.49,1.35-2.17,2.1-.66-.76-1.39-1.46-2.17-2.1-2.03-1.67-4.37-2.9-6.9-3.63-.43-.13-.89-.07-1.27.17-.38.21-.66.57-.77,1-1.21,5.23.13,10.73,3.6,14.82,1.65,1.6,3.68,2.75,5.9,3.33v20.52h-7.53c.26-.18.5-.38.73-.6,3.47-4.11,4.8-9.61,3.6-14.86-.09-.42-.36-.78-.73-1-.38-.24-.84-.3-1.27-.17-2.52.74-4.86,1.97-6.9,3.63-.76.66-1.49,1.36-2.17,2.1-.67-.75-1.4-1.45-2.17-2.1-2.04-1.67-4.39-2.91-6.93-3.63-.42-.13-.87-.07-1.23.17-.37.23-.65.58-.77,1-1.15,5.24.17,10.72,3.6,14.86.23.23.5.4.73.6h-7.56v-20.52c2.23-.57,4.26-1.72,5.9-3.33,3.5-4.14,4.83-9.68,3.6-14.96-.09-.42-.36-.78-.73-1-.38-.24-.84-.3-1.27-.17-2.53.74-4.88,1.97-6.93,3.63-.77.65-1.49,1.35-2.17,2.1-.66-.76-1.39-1.46-2.17-2.1-2.04-1.67-4.39-2.91-6.93-3.63-.42-.13-.87-.07-1.23.17-.38.21-.66.57-.77,1-1.21,5.23.13,10.73,3.6,14.82,1.65,1.6,3.68,2.75,5.9,3.33v20.52h-7.93c-.88.02-1.58.72-1.6,1.6v33.44c0,.88.72,1.6,1.6,1.6h82.64c.88,0,1.6-.72,1.6-1.6v-33.31c-.02-.88-.72-1.58-1.6-1.6Zm-8.39-31.21c.76-.98,1.62-1.87,2.56-2.66,1.25-1,2.63-1.81,4.1-2.43.44,3.61-.66,7.24-3.03,9.99-1.01,1.09-2.25,1.93-3.63,2.46v-7.36Zm-31.45,0c.77-.98,1.64-1.87,2.6-2.66,1.24-.99,2.6-1.81,4.06-2.43.44,3.61-.66,7.24-3.03,9.99-1.02,1.04-2.26,1.85-3.63,2.37v-7.26Zm-31.78,0c.76-.98,1.63-1.88,2.6-2.66,1.24-.99,2.6-1.81,4.06-2.43.44,3.61-.66,7.24-3.03,9.99-1.02,1.04-2.26,1.85-3.63,2.37v-7.26Zm56.56,5c-2.37-2.76-3.47-6.38-3.03-9.99,1.46.62,2.83,1.44,4.06,2.43.96.8,1.83,1.69,2.6,2.66v7.26c-1.37-.51-2.61-1.32-3.63-2.37Zm-8.73,18.35c.76-.97,1.63-1.86,2.6-2.63,1.21-1.02,2.57-1.84,4.03-2.43.44,3.61-.66,7.23-3.03,9.99-1.01,1.03-2.24,1.83-3.6,2.33v-7.26Zm-9.99-5.06c1.47.6,2.84,1.42,4.06,2.43.97.77,1.84,1.65,2.6,2.63v7.36c-1.37-.5-2.6-1.3-3.63-2.33-2.37-2.8-3.44-6.46-2.96-10.09h-.07Zm-12.82-13.32c-2.39-2.75-3.49-6.38-3.03-9.99,1.46.62,2.83,1.44,4.06,2.43.95.8,1.81,1.69,2.56,2.66v7.3c-1.34-.52-2.54-1.33-3.53-2.37l-.07-.03Zm-9.09,18.35c.76-.97,1.63-1.86,2.6-2.63,1.22-1.02,2.59-1.84,4.06-2.43.44,3.61-.66,7.23-3.03,9.99-1.03,1.03-2.27,1.83-3.63,2.33v-7.26Zm-9.99-5.06c1.47.6,2.84,1.42,4.06,2.43.95.78,1.81,1.66,2.56,2.63v7.36c-1.35-.51-2.58-1.3-3.6-2.33-2.33-2.8-3.35-6.46-2.8-10.06l-.23-.03Zm-12.66-13.26c-2.4-2.74-3.51-6.38-3.03-9.99,1.46.62,2.83,1.44,4.06,2.43.95.8,1.81,1.69,2.56,2.66v7.26c-1.37-.5-2.6-1.31-3.6-2.37Zm76.61,36.24h-2.86c-.86-.02-1.58.67-1.6,1.53,0,.02,0,.04,0,.07,0,.88.72,1.6,1.6,1.6h2.86v10.16h-2.86c-.87-.13-1.69.48-1.81,1.35-.13.87.48,1.69,1.35,1.81.15.02.31.02.46,0h2.86v6.83H33.39v-6.83h4.93c.87-.13,1.48-.94,1.35-1.81-.1-.7-.65-1.25-1.35-1.35h-4.93v-10.16h4.93c.88-.02,1.58-.75,1.57-1.63,0,0,0,0,0,0,.02-.86-.67-1.58-1.53-1.6-.01,0-.02,0-.03,0h-4.93v-6.8h79.31v6.83Zm-17.35,1.57c-.02-.86.67-1.58,1.53-1.6.01,0,.02,0,.03,0h6.66c.86-.02,1.58.67,1.6,1.53,0,.02,0,.04,0,.07,0,.88-.72,1.6-1.6,1.6h-6.66c-.87-.02-1.57-.73-1.57-1.6Zm-13.06,0c0-.88.72-1.6,1.6-1.6h6.66c.88,0,1.6.72,1.6,1.6-.02.88-.72,1.58-1.6,1.6h-6.66c-.88-.02-1.58-.72-1.6-1.6Zm-12.89,0c0-.88.72-1.6,1.6-1.6h6.66c.88,0,1.6.72,1.6,1.6-.02.88-.72,1.58-1.6,1.6h-6.66c-.88-.02-1.58-.72-1.6-1.6Zm-13.02,0c0-.88.72-1.6,1.6-1.6h6.66c.82.09,1.44.78,1.43,1.6-.02.88-.72,1.58-1.6,1.6h-6.66c-.86-.04-1.55-.74-1.57-1.6h.13Zm-13.16,0c0-.88.72-1.6,1.6-1.6h6.66c.88,0,1.6.72,1.6,1.6-.02.88-.72,1.58-1.6,1.6h-6.66c-.88-.02-1.58-.72-1.6-1.6Zm39.07,13.32c0-.88.72-1.6,1.6-1.6h6.66c.87-.13,1.69.48,1.81,1.35.13.87-.48,1.69-1.35,1.81-.15.02-.31.02-.46,0h-6.66c-.87,0-1.58-.7-1.6-1.57Zm-39.07,0c0-.88.72-1.6,1.6-1.6h6.66c.87-.13,1.69.48,1.81,1.35.13.87-.48,1.69-1.35,1.81-.15.02-.31.02-.46,0h-6.66c-.87,0-1.58-.7-1.6-1.57Zm26.18,0c0-.88.72-1.6,1.6-1.6h6.66c.87-.13,1.69.48,1.81,1.35.13.87-.48,1.69-1.35,1.81-.15.02-.31.02-.46,0h-6.66c-.87,0-1.58-.7-1.6-1.57Zm-13.02,0c0-.88.72-1.6,1.6-1.6h6.66c.87-.13,1.69.48,1.81,1.35.13.87-.48,1.69-1.35,1.81-.15.02-.31.02-.46,0h-6.66c-.88.07-1.65-.58-1.73-1.46,0-.04,0-.07,0-.11h.13Zm39.11,0c-.02-.86.67-1.58,1.53-1.6.01,0,.02,0,.03,0h6.66c.87-.13,1.69.48,1.81,1.35.13.87-.48,1.69-1.35,1.81-.15.02-.31.02-.46,0h-6.66c-.86.07-1.62-.57-1.69-1.43,0-.05,0-.09,0-.14h.13Z"/>
</svg>