<?xml version="1.0" encoding="UTF-8"?>
<svg id="Layer_1" data-name="Layer 1" xmlns="http://www.w3.org/2000/svg" viewBox="0 0 145.54 145.54">
  <defs>
    <style>
      .cls-1 {
        stroke-width: 0px;
      }

      .cls-1, .cls-2 {
        fill: #fff;
      }

      .cls-3 {
        fill: #302e7f;
        stroke: #000;
        stroke-miterlimit: 10;
      }

      .cls-2 {
        font-size: 16.98px;
      }
    </style>
  </defs>
  <rect class="cls-3" x=".5" y=".5" width="144.54" height="144.54" rx="15" ry="15"/>
  <g>
    <path class="cls-1" d="m105.25,53.45c.18,2.24-.16,5.55-.98,10.02l-.14.76.07.07c2.08,2.29,3.76,4.8,4.99,7.47l.06.13,5.4,1.73c2.83.91,4.8,3.47,4.98,6.43v.45s.01,7.65.01,7.65c0,2.99-1.83,5.66-4.57,6.73l-.42.15-7.93,2.54-.19.27c-2.25,3.16-5.18,5.98-8.65,8.31l-.24.16-1.29,6.17c-.57,3.64-3.58,6.36-7.19,6.56h-.44c-3.66.01-6.79-2.57-7.55-6.13l-.04-.21-.02-.05-1.09.17c-1.72.24-3.46.39-5.22.43l-1.32.02c-1.85,0-3.69-.11-5.5-.32l-1.27-.17-.02.12c-.73,3.42-3.64,5.93-7.11,6.13h-.44c-3.66.01-6.79-2.57-7.53-6.04l-.08-.42-1.2-5.63-.06-.04c-8.98-5.58-14.52-14.12-14.85-23.49h-.31s-.16.36-.16.36c-1.17,2.49-3.65,4.25-6.54,4.41h-.44s-.28.01-.28.01c-.98,0-1.78-.8-1.78-1.78,0-.9.67-1.65,1.54-1.76l.24-.02h.28c1,0,1.92-.36,2.64-.95l.31-.29h-.06c-2.65-.18-4.76-2.3-4.94-4.94v-.36s-.01-.43-.01-.43c0-2.7,2.19-4.89,4.89-4.89s4.69,1.99,4.88,4.52v.36s.01,1.1.01,1.1c1.63-10.79,10.19-20.04,22.42-24.39l.78-.27c.39-.13.9-.29,1.52-.48.94-.28,1.93.25,2.22,1.19s-.25,1.93-1.19,2.22l-1.13.35-.29.09c-12.7,4.26-21.05,14.09-21.05,25.04,0,8.64,5.17,16.65,13.86,21.77.36.21.63.54.77.92l.07.24,1.38,6.48c.32,2.06,2.07,3.56,4.11,3.56,1.92,0,3.58-1.34,4.04-3.21l.07-.36.12-.42.59-1.39c.32-.77,1.13-1.21,1.95-1.06,2.47.44,5,.66,7.58.66,2.87,0,5.68-.28,8.41-.81.76-.15,1.52.21,1.89.87l.11.23.61,1.56.1.38c.32,2.06,2.07,3.56,4.11,3.56,1.92,0,3.58-1.34,4.05-3.28l.07-.37,1.46-6.99c.1-.47.38-.88.79-1.14,3.73-2.36,6.8-5.31,9.01-8.64.18-.27.43-.48.72-.62l.22-.09,8.51-2.72c1.39-.44,2.37-1.69,2.5-3.15l.02-.34v-7.65c0-1.48-.88-2.8-2.2-3.37l-.31-.12-6.17-1.97c-.5-.16-.9-.53-1.1-1.01-1.2-2.88-3.02-5.59-5.36-8.01-.35-.36-.53-.84-.5-1.33l.03-.25.14-.74.31-1.68.26-1.56c.47-2.99.64-5.25.53-6.74-.03-.33-.06-.6-.11-.81l-.04-.19-.27.11c-1.48.65-3.66,2.1-6.44,4.35l-1.23,1.01-.73.62c-.53.45-1.27.55-1.9.25-1.47-.68-3.01-1.28-4.6-1.79-.94-.3-1.45-1.3-1.16-2.24s1.3-1.45,2.24-1.16c1.3.41,2.57.88,3.8,1.41l.18.08.57-.47,1.3-1.05c2.96-2.33,5.3-3.83,7.1-4.5l.38-.13c2.67-.86,4.22,1.06,4.47,4.23Zm-5.19,19.66c.9,0,1.65.67,1.76,1.54l.02.24v4.07c0,.98-.8,1.78-1.78,1.78-.9,0-1.65-.67-1.76-1.54l-.02-.24v-4.07c0-.98.8-1.78,1.78-1.78Zm-69.27,3.22c-.66,0-1.21.48-1.31,1.11l-.02.22v.43c0,.89.66,1.63,1.52,1.74l.24.02h.89s0-2.19,0-2.19c0-.66-.48-1.21-1.11-1.31l-.22-.02Zm43.17-17.8c3.81,0,7.62.85,11.4,2.53.9.4,1.3,1.45.9,2.35-.4.9-1.45,1.3-2.35.9-3.34-1.48-6.65-2.22-9.96-2.22s-6.62.74-9.96,2.22c-.9.4-1.95,0-2.35-.9s0-1.95.9-2.35c3.78-1.68,7.59-2.53,11.4-2.53Zm0-32.04c8.19,0,14.83,6.64,14.83,14.83s-6.64,14.83-14.83,14.83-14.83-6.64-14.83-14.83,6.64-14.83,14.83-14.83Zm0,3.56c-6.23,0-11.27,5.05-11.27,11.27s5.05,11.27,11.27,11.27,11.27-5.05,11.27-11.27-5.05-11.27-11.27-11.27Z"/>
    <text class="cls-2" transform="translate(68.39 48.01)"><tspan x="0" y="0">₹</tspan></text>
  </g>
</svg>