<?xml version="1.0" encoding="UTF-8"?>
<svg id="Layer_1" data-name="Layer 1" xmlns="http://www.w3.org/2000/svg" viewBox="0 0 145.54 145.54">
  <defs>
    <style>
      .cls-1 {
        fill: #fff;
        stroke-width: 0px;
      }

      .cls-2 {
        fill: #302e7f;
        stroke: #000;
        stroke-miterlimit: 10;
      }
    </style>
  </defs>
  <rect class="cls-2" x=".5" y=".5" width="144.54" height="144.54" rx="15" ry="15"/>
  <g>
    <path class="cls-1" d="m107.1,58.47c3.25-3.25,4.79-7.91,4.11-12.47-.24-1.59-1.47-2.83-3.06-3.06-4.55-.68-9.21.86-12.47,4.11-1.91,1.91-3.22,4.28-3.85,6.83-.38-1.06-.66-2.1-.84-3.11,0-.03,0-.07-.02-.1-.37-2.13-.3-4.14.22-6.02.14-.51.31-1,.51-1.47.72.11,1.43.16,2.15.16,3.83,0,7.55-1.51,10.31-4.27,3.25-3.25,4.79-7.91,4.11-12.47-.24-1.59-1.47-2.83-3.06-3.06-4.55-.68-9.21.86-12.47,4.11h0c-3.4,3.4-4.9,8.25-4.02,12.98.06.3.16.59.29.85-.32.71-.61,1.47-.83,2.29-.04.15-.08.31-.12.46-2.66-2.43-6.18-3.82-9.83-3.82-4.8,0-9.3,2.37-12.02,6.33-.72,1.04-.72,2.44,0,3.49,2.01,2.92,4.99,5.01,8.41,5.88.13.03.26.05.39.05.7,0,1.34-.47,1.52-1.18.21-.84-.29-1.7-1.13-1.91-2.66-.68-5-2.31-6.57-4.58,2.14-3.09,5.65-4.93,9.41-4.93,2.96,0,5.72,1.11,7.83,3.09-.59-.1-1.15-.14-1.62-.15-2.31-.05-4.4.5-4.49.52-.84.22-1.34,1.08-1.11,1.92s1.08,1.34,1.92,1.11c.05-.01,3.53-.86,5.66-.09-1.43,1.46-3.23,2.53-5.2,3.06-.84.23-1.33,1.09-1.11,1.93.23.84,1.09,1.33,1.93,1.11,2.3-.62,4.41-1.81,6.15-3.43.69,2.81,1.99,5.76,3.92,8.83,3.66,5.83,4.62,11.56,2.87,17.05-.64-.28-1.32-.49-2.04-.59-6.1-.91-12.42-.4-18.27,1.48-6.14,1.97-11.58,5.29-16.17,9.88-9.39,9.39-13.54,22.79-11.12,35.86.45,2.45,2.4,4.4,4.85,4.85,2.46.45,4.92.68,7.37.68,10.59,0,20.87-4.17,28.49-11.8,4.59-4.59,7.91-10.03,9.88-16.17,1.87-5.86,2.38-12.18,1.48-18.27-.23-1.51-.87-2.87-1.82-3.95,2.15-5.76,1.75-11.71-1.21-17.73.13,0,.26,0,.38,0,3.83,0,7.55-1.51,10.31-4.27Zm-9.2-9.2h0c2.59-2.59,6.15-3.76,9.78-3.22.22.03.39.2.42.42.54,3.63-.64,7.19-3.22,9.78-2.23,2.23-5.27,3.42-8.37,3.34.93-1.88,2.65-2.84,2.76-2.9.76-.41,1.05-1.35.65-2.12-.4-.77-1.35-1.06-2.12-.66-.12.06-1.83.99-3.22,2.85.15-2.79,1.31-5.47,3.33-7.49Zm-2.93-19.4c2.59-2.59,6.15-3.76,9.78-3.22.22.03.39.2.42.42.54,3.63-.64,7.19-3.22,9.78-2.25,2.25-5.33,3.44-8.47,3.34,1.88-2.39,4.06-3.54,4.09-3.56.77-.39,1.08-1.34.69-2.11-.39-.77-1.34-1.08-2.11-.69-.15.08-2.37,1.23-4.5,3.65.12-2.83,1.29-5.55,3.33-7.6Zm0,71.85c-1.81,5.66-4.88,10.68-9.11,14.91-7.03,7.03-16.5,10.88-26.27,10.88-2.26,0-4.53-.21-6.79-.63-1.18-.22-2.12-1.16-2.33-2.33-2.23-12.05,1.6-24.41,10.25-33.07,4.23-4.23,9.25-7.3,14.91-9.11,3.66-1.17,7.52-1.77,11.38-1.77,1.83,0,3.67.13,5.48.4,2.01.3,3.56,1.85,3.86,3.86.84,5.62.37,11.45-1.36,16.85Z"/>
    <path class="cls-1" d="m84.81,101.41c-.7-.51-1.68-.36-2.2.33-7.07,9.6-16.01,16.32-26.58,19.96-.82.28-1.26,1.18-.97,2,.22.65.83,1.06,1.49,1.06.17,0,.34-.03.51-.09,11.19-3.85,20.64-10.94,28.09-21.07.51-.7.37-1.68-.33-2.2Z"/>
    <path class="cls-1" d="m93.19,84.59c-.83-.26-1.71.21-1.96,1.04-.01.04-1.4,4.48-4.82,10.34-.44.75-.18,1.71.56,2.15.25.15.52.21.79.21.54,0,1.07-.28,1.36-.78,3.6-6.17,5.05-10.81,5.11-11,.25-.83-.21-1.71-1.04-1.96Z"/>
  </g>
</svg>