<svg xmlns="http://www.w3.org/2000/svg" xmlns:xlink="http://www.w3.org/1999/xlink" width="400" zoomAndPan="magnify" viewBox="0 0 300 74.999997" height="100" preserveAspectRatio="xMidYMid meet" version="1.0"><path fill="#f37529" d="M 88.066406 59.929688 L 81.453125 59.929688 L 81.453125 31.265625 L 71.542969 31.265625 L 71.542969 24.6875 L 81.453125 24.6875 L 81.453125 15 L 88.066406 15 L 88.066406 24.6875 L 111.207031 24.6875 L 111.207031 31.265625 L 88.066406 31.265625 Z M 88.066406 59.929688 " fill-opacity="1" fill-rule="nonzero"/><path fill="#f37529" d="M 69.863281 59.929688 L 68.21875 59.929688 C 66.605469 59.929688 65.101562 59.628906 63.703125 59.03125 C 62.304688 58.425781 61.078125 57.609375 60.027344 56.578125 C 58.96875 55.527344 58.140625 54.296875 57.535156 52.902344 C 56.9375 51.480469 56.636719 49.976562 56.636719 48.386719 L 56.636719 15 L 63.25 15 L 63.25 48.386719 C 63.25 49.074219 63.378906 49.71875 63.636719 50.324219 C 63.898438 50.898438 64.253906 51.417969 64.703125 51.867188 C 65.152344 52.320312 65.683594 52.671875 66.28125 52.929688 C 66.886719 53.195312 67.53125 53.320312 68.21875 53.320312 L 69.863281 53.320312 Z M 69.863281 59.929688 " fill-opacity="1" fill-rule="nonzero"/><path fill="#f37529" d="M 47.628906 59.929688 L 14.585938 59.929688 C 12.972656 59.929688 11.46875 59.628906 10.066406 59.03125 C 8.667969 58.425781 7.445312 57.609375 6.386719 56.578125 C 5.332031 55.527344 4.503906 54.296875 3.902344 52.902344 C 3.304688 51.480469 3 49.976562 3 48.386719 C 3 46.777344 3.304688 45.269531 3.902344 43.871094 C 4.503906 42.472656 5.332031 41.246094 6.386719 40.195312 C 7.445312 39.140625 8.667969 38.3125 10.066406 37.710938 C 11.46875 37.109375 12.972656 36.808594 14.585938 36.808594 L 37.691406 36.808594 L 37.691406 43.417969 L 14.585938 43.417969 C 13.894531 43.417969 13.253906 43.558594 12.648438 43.835938 C 12.042969 44.09375 11.515625 44.453125 11.066406 44.902344 C 10.617188 45.355469 10.257812 45.878906 10 46.484375 C 9.742188 47.082031 9.617188 47.722656 9.617188 48.386719 C 9.617188 49.074219 9.742188 49.71875 10 50.324219 C 10.257812 50.898438 10.617188 51.421875 11.066406 51.867188 C 11.515625 52.320312 12.042969 52.671875 12.648438 52.929688 C 13.253906 53.195312 13.894531 53.324219 14.585938 53.324219 L 41.015625 53.324219 L 41.015625 35.164062 C 41.015625 34.496094 40.875 33.859375 40.59375 33.261719 C 40.335938 32.65625 39.980469 32.128906 39.53125 31.675781 C 39.078125 31.230469 38.550781 30.871094 37.949219 30.613281 C 37.34375 30.335938 36.710938 30.195312 36.046875 30.195312 L 9.617188 30.195312 L 9.617188 23.613281 L 36.046875 23.613281 C 37.65625 23.613281 39.164062 23.914062 40.5625 24.519531 C 41.960938 25.117188 43.1875 25.945312 44.242188 27.003906 C 45.296875 28.035156 46.125 29.246094 46.726562 30.648438 C 47.328125 32.046875 47.628906 33.550781 47.628906 35.164062 Z M 47.628906 59.929688 " fill-opacity="1" fill-rule="nonzero"/><path fill="#f37529" d="M 113.414062 56.097656 C 113.414062 55.039062 113.425781 53.980469 113.410156 52.929688 C 113.398438 52.382812 113.621094 52.164062 114.175781 52.164062 C 116.257812 52.179688 118.339844 52.175781 120.421875 52.164062 C 120.96875 52.164062 121.175781 52.394531 121.175781 52.941406 C 121.15625 55.023438 121.15625 57.097656 121.175781 59.179688 C 121.175781 59.738281 120.964844 59.9375 120.417969 59.925781 C 118.335938 59.914062 116.253906 59.914062 114.171875 59.929688 C 113.628906 59.9375 113.398438 59.722656 113.410156 59.167969 C 113.425781 58.144531 113.414062 57.121094 113.414062 56.097656 Z M 113.414062 56.097656 " fill-opacity="1" fill-rule="nonzero"/><path fill="#ffffff" d="M 137.621094 18.632812 L 130.753906 18.632812 L 130.753906 25.261719 L 137.621094 25.261719 Z M 137.621094 18.632812 " fill-opacity="1" fill-rule="nonzero"/><path fill="#ffffff" d="M 137.621094 29.519531 L 133.210938 29.519531 L 133.210938 33.773438 L 137.621094 33.773438 Z M 137.621094 29.519531 " fill-opacity="1" fill-rule="nonzero"/><path fill="#ffffff" d="M 142.027344 25.257812 L 137.617188 25.257812 L 137.617188 29.519531 L 142.027344 29.519531 Z M 142.027344 25.257812 " fill-opacity="1" fill-rule="nonzero"/><path fill="#ffffff" d="M 145.039062 33.808594 L 137.617188 33.808594 L 137.617188 40.292969 L 145.039062 40.292969 Z M 145.039062 33.808594 " fill-opacity="1" fill-rule="nonzero"/><path fill="#ffffff" d="M 150.671875 15.015625 L 150.671875 23.277344 L 148.527344 23.277344 L 148.527344 26.644531 L 152.015625 26.644531 L 152.015625 30.011719 L 148.527344 30.011719 L 148.527344 26.644531 L 145.039062 26.644531 L 145.039062 33.800781 L 148.382812 33.800781 L 148.382812 40.292969 L 145.039062 40.292969 L 145.039062 57.335938 C 145.039062 58.789062 146.21875 59.960938 147.667969 59.960938 L 171.632812 59.960938 C 182.648438 59.960938 191.609375 51.3125 191.609375 40.671875 L 191.609375 34.296875 C 191.609375 23.65625 182.648438 15 171.632812 15 M 145.039062 15 L 145.039062 15.015625 L 148.527344 15.015625 M 153.703125 18.191406 L 157.144531 18.191406 L 157.144531 21.503906 L 153.703125 21.503906 Z M 182.851562 40.589844 C 182.851562 46.871094 177.550781 51.988281 171.042969 51.988281 L 152.804688 51.988281 L 152.804688 42.007812 L 150.269531 42.007812 L 150.269531 38.78125 L 152.804688 38.78125 L 152.804688 22.976562 L 171.042969 22.976562 C 177.550781 22.976562 182.851562 28.097656 182.851562 34.378906 Z M 182.851562 40.589844 " fill-opacity="1" fill-rule="nonzero"/><path fill="#ffffff" d="M 148.527344 15.015625 L 139.820312 15.015625 L 139.820312 23.277344 L 148.527344 23.277344 Z M 148.527344 15.015625 " fill-opacity="1" fill-rule="nonzero"/><path fill="#ffffff" d="M 240.273438 32.222656 L 240.273438 25.964844 C 240.273438 19.90625 235.367188 15 229.304688 15 L 197.304688 15 C 195.855469 15 194.679688 16.175781 194.679688 17.621094 L 194.679688 45.792969 L 194.726562 45.792969 L 194.726562 59.964844 L 203.109375 59.964844 L 203.109375 45.792969 L 215.410156 45.792969 L 229.355469 59.964844 L 242.714844 59.964844 L 228.257812 45.636719 C 235.003906 44.847656 240.273438 39.171875 240.273438 32.214844 Z M 203.15625 37.324219 L 203.15625 23.476562 L 229.304688 23.476562 C 230.679688 23.476562 231.800781 24.589844 231.800781 25.964844 L 231.800781 32.222656 C 231.800781 35.035156 229.515625 37.324219 226.695312 37.324219 Z M 203.15625 37.324219 " fill-opacity="1" fill-rule="nonzero"/><path fill="#ffffff" d="M 297 15 L 284.660156 15 L 284.316406 15.382812 L 270.347656 30.738281 L 256.035156 15 L 243.699219 15 L 264.179688 37.523438 L 243.804688 59.960938 L 256.140625 59.960938 L 270.347656 44.308594 L 284.578125 59.960938 L 296.875 59.960938 L 276.519531 37.527344 Z M 297 15 " fill-opacity="1" fill-rule="nonzero"/></svg>