<svg width="139" height="111" viewBox="0 0 139 111" fill="none" xmlns="http://www.w3.org/2000/svg">
<g clip-path="url(#clip0_4267_3453)">
<mask id="mask0_4267_3453" style="mask-type:luminance" maskUnits="userSpaceOnUse" x="2" y="41" width="39" height="39">
<path d="M20.5295 79.03C20.3795 79.03 20.2395 79.02 20.0995 79C10.2995 78.38 2.51953 70.21 2.51953 60.25C2.51953 50.29 10.9395 41.46 21.3095 41.46C31.6795 41.46 40.0995 49.89 40.0995 60.25C40.0995 70.61 32.3195 78.38 22.5195 79C22.3795 79.01 22.2295 79.02 22.0895 79.03C21.8295 79.03 21.5695 79.04 21.3095 79.04C21.0495 79.04 20.7995 79.04 20.5395 79.03H20.5295Z" fill="white"/>
</mask>
<g mask="url(#mask0_4267_3453)">
<path d="M3.26953 41.46H2.51953V79.04H3.26953V41.46Z" fill="#FFF71D"/>
<path d="M4.01953 41.46H3.26953V79.04H4.01953V41.46Z" fill="#FFF61D"/>
<path d="M4.76953 41.46H4.01953V79.04H4.76953V41.46Z" fill="#FFF51C"/>
<path d="M5.51953 41.46H4.76953V79.04H5.51953V41.46Z" fill="#FFF41C"/>
<path d="M6.26953 41.46H5.51953V79.04H6.26953V41.46Z" fill="#FFF31B"/>
<path d="M7.0293 41.46H6.2793V79.04H7.0293V41.46Z" fill="#FFF21B"/>
<path d="M7.7793 41.46H7.0293V79.04H7.7793V41.46Z" fill="#FFF11A"/>
<path d="M8.5293 41.46H7.7793V79.04H8.5293V41.46Z" fill="#FFF01A"/>
<path d="M9.2793 41.46H8.5293V79.04H9.2793V41.46Z" fill="#FFEF19"/>
<path d="M10.0293 41.46H9.2793V79.04H10.0293V41.46Z" fill="#FFEE19"/>
<path d="M10.7793 41.46H10.0293V79.04H10.7793V41.46Z" fill="#FFED19"/>
<path d="M11.5391 41.46H10.7891V79.04H11.5391V41.46Z" fill="#FFEC18"/>
<path d="M12.2891 41.46H11.5391V79.04H12.2891V41.46Z" fill="#FFEB18"/>
<path d="M13.0391 41.46H12.2891V79.04H13.0391V41.46Z" fill="#FFEA17"/>
<path d="M13.7891 41.46H13.0391V79.04H13.7891V41.46Z" fill="#FFE917"/>
<path d="M14.5391 41.46H13.7891V79.04H14.5391V41.46Z" fill="#FFE816"/>
<path d="M15.2891 41.46H14.5391V79.04H15.2891V41.46Z" fill="#FFE716"/>
<path d="M16.0498 41.46H15.2998V79.04H16.0498V41.46Z" fill="#FFE615"/>
<path d="M16.7998 41.46H16.0498V79.04H16.7998V41.46Z" fill="#FFE515"/>
<path d="M17.5498 41.46H16.7998V79.04H17.5498V41.46Z" fill="#FFE414"/>
<path d="M18.2998 41.46H17.5498V79.04H18.2998V41.46Z" fill="#FFE314"/>
<path d="M19.0498 41.46H18.2998V79.04H19.0498V41.46Z" fill="#FFE214"/>
<path d="M19.7998 41.46H19.0498V79.04H19.7998V41.46Z" fill="#FFE113"/>
<path d="M20.5498 41.46H19.7998V79.04H20.5498V41.46Z" fill="#FFE013"/>
<path d="M21.3096 41.46H20.5596V79.04H21.3096V41.46Z" fill="#FFDF12"/>
<path d="M22.0596 41.46H21.3096V79.04H22.0596V41.46Z" fill="#FFDD12"/>
<path d="M22.8096 41.46H22.0596V79.04H22.8096V41.46Z" fill="#FFDC11"/>
<path d="M23.5596 41.46H22.8096V79.04H23.5596V41.46Z" fill="#FFDB11"/>
<path d="M24.3096 41.46H23.5596V79.04H24.3096V41.46Z" fill="#FFDA10"/>
<path d="M25.0596 41.46H24.3096V79.04H25.0596V41.46Z" fill="#FFD910"/>
<path d="M25.8193 41.46H25.0693V79.04H25.8193V41.46Z" fill="#FFD810"/>
<path d="M26.5693 41.46H25.8193V79.04H26.5693V41.46Z" fill="#FFD70F"/>
<path d="M27.3193 41.46H26.5693V79.04H27.3193V41.46Z" fill="#FFD60F"/>
<path d="M28.0693 41.46H27.3193V79.04H28.0693V41.46Z" fill="#FFD50E"/>
<path d="M28.8193 41.46H28.0693V79.04H28.8193V41.46Z" fill="#FFD40E"/>
<path d="M29.5693 41.46H28.8193V79.04H29.5693V41.46Z" fill="#FFD30D"/>
<path d="M30.3291 41.46H29.5791V79.04H30.3291V41.46Z" fill="#FFD20D"/>
<path d="M31.0791 41.46H30.3291V79.04H31.0791V41.46Z" fill="#FFD10C"/>
<path d="M31.8291 41.46H31.0791V79.04H31.8291V41.46Z" fill="#FFD00C"/>
<path d="M32.5791 41.46H31.8291V79.04H32.5791V41.46Z" fill="#FFCF0B"/>
<path d="M33.3291 41.46H32.5791V79.04H33.3291V41.46Z" fill="#FFCE0B"/>
<path d="M34.0791 41.46H33.3291V79.04H34.0791V41.46Z" fill="#FFCD0B"/>
<path d="M34.8291 41.46H34.0791V79.04H34.8291V41.46Z" fill="#FFCC0A"/>
<path d="M35.5898 41.46H34.8398V79.04H35.5898V41.46Z" fill="#FFCB0A"/>
<path d="M36.3398 41.46H35.5898V79.04H36.3398V41.46Z" fill="#FFCA09"/>
<path d="M37.0898 41.46H36.3398V79.04H37.0898V41.46Z" fill="#FFC909"/>
<path d="M37.8398 41.46H37.0898V79.04H37.8398V41.46Z" fill="#FFC808"/>
<path d="M38.5898 41.46H37.8398V79.04H38.5898V41.46Z" fill="#FFC708"/>
<path d="M39.3398 41.46H38.5898V79.04H39.3398V41.46Z" fill="#FFC607"/>
<path d="M40.0996 41.46H39.3496V79.04H40.0996V41.46Z" fill="#FFC507"/>
</g>
<path d="M23.1397 99.6298C25.4897 100.5 27.6797 100.94 29.6597 100.94C36.5397 100.94 39.3297 95.7298 40.2097 93.4998L40.3297 93.1798L40.0197 93.0398C38.0897 92.1898 36.1897 91.7598 34.3897 91.7598C28.1997 91.7598 24.3297 96.8998 22.9497 99.1098L22.7197 99.4798L23.1297 99.6298H23.1397ZM21.0397 99.5298C21.2197 99.1498 25.5897 90.2998 34.3897 90.2998C36.6797 90.2998 39.0897 90.9198 41.5397 92.1398C41.8497 92.2998 42.0097 92.6498 41.9197 92.9898C41.8897 93.0798 39.2597 102.4 29.6497 102.4C27.1597 102.4 24.3897 101.77 21.4097 100.52C21.2297 100.45 21.0797 100.29 21.0097 100.11C20.9397 99.9298 20.9497 99.7198 21.0297 99.5298H21.0397Z" fill="black"/>
<path d="M21.3004 47.5601C14.3004 47.5601 8.61039 53.2601 8.61039 60.2501C8.61039 67.2401 14.3004 72.9401 21.3004 72.9401C28.3004 72.9401 33.9904 67.2501 33.9904 60.2501C33.9904 53.2501 28.3004 47.5601 21.3004 47.5601ZM7.15039 60.2501C7.15039 52.4501 13.5004 46.1001 21.3004 46.1001C29.1004 46.1001 35.4504 52.4501 35.4504 60.2501C35.4504 68.0501 29.1104 74.4001 21.3004 74.4001C13.4904 74.4001 7.15039 68.0601 7.15039 60.2501Z" fill="black"/>
<path d="M22.0396 80.4798C22.1596 80.4798 22.2696 80.4798 22.3996 80.4698C22.5196 80.4698 22.6296 80.4698 22.7596 80.4498C33.2596 79.7098 41.5696 70.9398 41.5696 60.2598C41.5696 49.5798 32.4896 40.0098 21.3196 40.0098C10.1496 40.0098 1.05957 49.0798 1.05957 60.2498C1.05957 71.4198 9.37957 79.7098 19.8696 80.4398C19.9896 80.4498 20.0996 80.4598 20.2296 80.4698C20.3496 80.4698 20.4596 80.4798 20.5896 80.4698V109.4H9.19957C8.79957 109.4 8.47957 109.73 8.47957 110.13C8.47957 110.53 8.80957 110.86 9.19957 110.86H130.11C130.31 110.86 130.49 110.78 130.63 110.65C130.77 110.51 130.84 110.32 130.84 110.13C130.84 109.73 130.51 109.4 130.11 109.4H22.0396V80.4698C21.7996 80.4798 21.5496 80.4898 21.3096 80.4898C21.0896 80.4898 20.8696 80.4898 20.6596 80.4698C20.8796 80.4798 21.0996 80.4898 21.3096 80.4898C21.5496 80.4898 21.7996 80.4898 22.0396 80.4698V80.4798ZM20.5296 79.0298C20.3796 79.0298 20.2396 79.0198 20.0996 78.9998C10.2996 78.3798 2.51957 70.2098 2.51957 60.2498C2.51957 50.2898 10.9396 41.4598 21.3096 41.4598C31.6796 41.4598 40.0996 49.8898 40.0996 60.2498C40.0996 70.6098 32.3196 78.3798 22.5196 78.9998C22.3796 79.0098 22.2296 79.0198 22.0896 79.0298C21.8296 79.0298 21.5696 79.0398 21.3096 79.0398C21.0496 79.0398 20.7996 79.0398 20.5396 79.0298H20.5296Z" fill="black"/>
<path d="M1.7398 87.4498C2.6198 89.6898 5.4198 94.8898 12.2898 94.8898C14.2598 94.8898 16.4598 94.4498 18.8098 93.5798L19.2098 93.4298L18.9798 93.0598C17.5998 90.8398 13.7398 85.7098 7.5398 85.7098C5.7398 85.7098 3.8498 86.1398 1.9098 86.9898L1.5998 87.1198L1.7298 87.4398L1.7398 87.4498ZM12.2898 96.3498C2.6698 96.3498 0.0498 87.0398 0.0298 86.9498C-0.0602 86.6198 0.0998 86.2598 0.4098 86.0998C2.8598 84.8798 5.2698 84.2598 7.5598 84.2598C16.3498 84.2598 20.7298 93.1098 20.9098 93.4898C20.9998 93.6698 20.9998 93.8798 20.9298 94.0698C20.8698 94.2498 20.7198 94.4098 20.5298 94.4798C17.5598 95.7298 14.7798 96.3598 12.2898 96.3598V96.3498Z" fill="black"/>
<mask id="mask1_4267_3453" style="mask-type:luminance" maskUnits="userSpaceOnUse" x="22" y="91" width="19" height="10">
<path d="M23.1397 99.6298C25.4897 100.5 27.6797 100.94 29.6597 100.94C36.5397 100.94 39.3297 95.7298 40.2097 93.4998L40.3297 93.1798L40.0197 93.0398C38.0897 92.1898 36.1897 91.7598 34.3897 91.7598C28.1997 91.7598 24.3297 96.8998 22.9497 99.1098L22.7197 99.4798L23.1297 99.6298H23.1397Z" fill="white"/>
</mask>
<g mask="url(#mask1_4267_3453)">
<path d="M22.8495 91.7598H22.7295V100.94H22.8495V91.7598Z" fill="#8EA0FA"/>
<path d="M22.9696 91.7598H22.8496V100.94H22.9696V91.7598Z" fill="#8DA1FA"/>
<path d="M23.0995 91.7598H22.9795V100.94H23.0995V91.7598Z" fill="#8CA1F9"/>
<path d="M23.2196 91.7598H23.0996V100.94H23.2196V91.7598Z" fill="#8BA2F9"/>
<path d="M23.3495 91.7598H23.2295V100.94H23.3495V91.7598Z" fill="#8AA2F8"/>
<path d="M23.4696 91.7598H23.3496V100.94H23.4696V91.7598Z" fill="#89A3F8"/>
<path d="M23.5897 91.7598H23.4697V100.94H23.5897V91.7598Z" fill="#88A3F7"/>
<path d="M23.7196 91.7598H23.5996V100.94H23.7196V91.7598Z" fill="#87A4F7"/>
<path d="M23.8397 91.7598H23.7197V100.94H23.8397V91.7598Z" fill="#86A4F6"/>
<path d="M23.9696 91.7598H23.8496V100.94H23.9696V91.7598Z" fill="#85A5F6"/>
<path d="M24.0897 91.7598H23.9697V100.94H24.0897V91.7598Z" fill="#84A6F5"/>
<path d="M24.2098 91.7598H24.0898V100.94H24.2098V91.7598Z" fill="#83A6F5"/>
<path d="M24.3397 91.7598H24.2197V100.94H24.3397V91.7598Z" fill="#82A7F4"/>
<path d="M24.4598 91.7598H24.3398V100.94H24.4598V91.7598Z" fill="#81A7F4"/>
<path d="M24.5897 91.7598H24.4697V100.94H24.5897V91.7598Z" fill="#80A8F3"/>
<path d="M24.7098 91.7598H24.5898V100.94H24.7098V91.7598Z" fill="#7FA8F3"/>
<path d="M24.83 91.7598H24.71V100.94H24.83V91.7598Z" fill="#7EA9F2"/>
<path d="M24.9598 91.7598H24.8398V100.94H24.9598V91.7598Z" fill="#7DAAF2"/>
<path d="M25.08 91.7598H24.96V100.94H25.08V91.7598Z" fill="#7CAAF1"/>
<path d="M25.2098 91.7598H25.0898V100.94H25.2098V91.7598Z" fill="#7BABF1"/>
<path d="M25.33 91.7598H25.21V100.94H25.33V91.7598Z" fill="#7AABF0"/>
<path d="M25.4491 91.7598H25.3291V100.94H25.4491V91.7598Z" fill="#79ACF0"/>
<path d="M25.58 91.7598H25.46V100.94H25.58V91.7598Z" fill="#78ACEF"/>
<path d="M25.6991 91.7598H25.5791V100.94H25.6991V91.7598Z" fill="#77ADEF"/>
<path d="M25.83 91.7598H25.71V100.94H25.83V91.7598Z" fill="#76ADEE"/>
<path d="M25.9491 91.7598H25.8291V100.94H25.9491V91.7598Z" fill="#75AEEE"/>
<path d="M26.0692 91.7598H25.9492V100.94H26.0692V91.7598Z" fill="#74AFED"/>
<path d="M26.1991 91.7598H26.0791V100.94H26.1991V91.7598Z" fill="#73AFED"/>
<path d="M26.3192 91.7598H26.1992V100.94H26.3192V91.7598Z" fill="#72B0EC"/>
<path d="M26.4491 91.7598H26.3291V100.94H26.4491V91.7598Z" fill="#71B0EC"/>
<path d="M26.5692 91.7598H26.4492V100.94H26.5692V91.7598Z" fill="#70B1EC"/>
<path d="M26.6893 91.7598H26.5693V100.94H26.6893V91.7598Z" fill="#6FB1EB"/>
<path d="M26.8192 91.7598H26.6992V100.94H26.8192V91.7598Z" fill="#6EB2EB"/>
<path d="M26.9393 91.7598H26.8193V100.94H26.9393V91.7598Z" fill="#6DB2EA"/>
<path d="M27.0692 91.7598H26.9492V100.94H27.0692V91.7598Z" fill="#6CB3EA"/>
<path d="M27.1893 91.7598H27.0693V100.94H27.1893V91.7598Z" fill="#6BB4E9"/>
<path d="M27.3095 91.7598H27.1895V100.94H27.3095V91.7598Z" fill="#6AB4E9"/>
<path d="M27.4393 91.7598H27.3193V100.94H27.4393V91.7598Z" fill="#69B5E8"/>
<path d="M27.5595 91.7598H27.4395V100.94H27.5595V91.7598Z" fill="#68B5E8"/>
<path d="M27.6893 91.7598H27.5693V100.94H27.6893V91.7598Z" fill="#67B6E7"/>
<path d="M27.8095 91.7598H27.6895V100.94H27.8095V91.7598Z" fill="#66B6E7"/>
<path d="M27.9296 91.7598H27.8096V100.94H27.9296V91.7598Z" fill="#65B7E6"/>
<path d="M28.0595 91.7598H27.9395V100.94H28.0595V91.7598Z" fill="#64B8E6"/>
<path d="M28.1796 91.7598H28.0596V100.94H28.1796V91.7598Z" fill="#63B8E5"/>
<path d="M28.3095 91.7598H28.1895V100.94H28.3095V91.7598Z" fill="#62B9E5"/>
<path d="M28.4296 91.7598H28.3096V100.94H28.4296V91.7598Z" fill="#61B9E4"/>
<path d="M28.5497 91.7598H28.4297V100.94H28.5497V91.7598Z" fill="#60BAE4"/>
<path d="M28.6796 91.7598H28.5596V100.94H28.6796V91.7598Z" fill="#5FBAE3"/>
<path d="M28.7997 91.7598H28.6797V100.94H28.7997V91.7598Z" fill="#5EBBE3"/>
<path d="M28.9296 91.7598H28.8096V100.94H28.9296V91.7598Z" fill="#5DBBE2"/>
<path d="M29.0497 91.7598H28.9297V100.94H29.0497V91.7598Z" fill="#5CBCE2"/>
<path d="M29.1698 91.7598H29.0498V100.94H29.1698V91.7598Z" fill="#5BBDE1"/>
<path d="M29.2997 91.7598H29.1797V100.94H29.2997V91.7598Z" fill="#5ABDE1"/>
<path d="M29.4198 91.7598H29.2998V100.94H29.4198V91.7598Z" fill="#59BEE0"/>
<path d="M29.5497 91.7598H29.4297V100.94H29.5497V91.7598Z" fill="#58BEE0"/>
<path d="M29.6698 91.7598H29.5498V100.94H29.6698V91.7598Z" fill="#57BFDF"/>
<path d="M29.7899 91.7598H29.6699V100.94H29.7899V91.7598Z" fill="#56BFDF"/>
<path d="M29.9198 91.7598H29.7998V100.94H29.9198V91.7598Z" fill="#55C0DF"/>
<path d="M30.0399 91.7598H29.9199V100.94H30.0399V91.7598Z" fill="#54C0DE"/>
<path d="M30.1698 91.7598H30.0498V100.94H30.1698V91.7598Z" fill="#53C1DE"/>
<path d="M30.2899 91.7598H30.1699V100.94H30.2899V91.7598Z" fill="#52C2DD"/>
<path d="M30.4091 91.7598H30.2891V100.94H30.4091V91.7598Z" fill="#51C2DD"/>
<path d="M30.5399 91.7598H30.4199V100.94H30.5399V91.7598Z" fill="#50C3DC"/>
<path d="M30.6591 91.7598H30.5391V100.94H30.6591V91.7598Z" fill="#4FC3DC"/>
<path d="M30.7899 91.7598H30.6699V100.94H30.7899V91.7598Z" fill="#4EC4DB"/>
<path d="M30.9091 91.7598H30.7891V100.94H30.9091V91.7598Z" fill="#4DC4DB"/>
<path d="M31.0292 91.7598H30.9092V100.94H31.0292V91.7598Z" fill="#4CC5DA"/>
<path d="M31.1591 91.7598H31.0391V100.94H31.1591V91.7598Z" fill="#4BC6DA"/>
<path d="M31.2792 91.7598H31.1592V100.94H31.2792V91.7598Z" fill="#4AC6D9"/>
<path d="M31.4091 91.7598H31.2891V100.94H31.4091V91.7598Z" fill="#49C7D9"/>
<path d="M31.5292 91.7598H31.4092V100.94H31.5292V91.7598Z" fill="#48C7D8"/>
<path d="M31.6493 91.7598H31.5293V100.94H31.6493V91.7598Z" fill="#46C8D8"/>
<path d="M31.7792 91.7598H31.6592V100.94H31.7792V91.7598Z" fill="#45C8D7"/>
<path d="M31.8993 91.7598H31.7793V100.94H31.8993V91.7598Z" fill="#44C9D7"/>
<path d="M32.0292 91.7598H31.9092V100.94H32.0292V91.7598Z" fill="#43C9D6"/>
<path d="M32.1493 91.7598H32.0293V100.94H32.1493V91.7598Z" fill="#42CAD6"/>
<path d="M32.2694 91.7598H32.1494V100.94H32.2694V91.7598Z" fill="#41CBD5"/>
<path d="M32.3993 91.7598H32.2793V100.94H32.3993V91.7598Z" fill="#40CBD5"/>
<path d="M32.5194 91.7598H32.3994V100.94H32.5194V91.7598Z" fill="#3FCCD4"/>
<path d="M32.6493 91.7598H32.5293V100.94H32.6493V91.7598Z" fill="#3ECCD4"/>
<path d="M32.7694 91.7598H32.6494V100.94H32.7694V91.7598Z" fill="#3DCDD3"/>
<path d="M32.8895 91.7598H32.7695V100.94H32.8895V91.7598Z" fill="#3CCDD3"/>
<path d="M33.0194 91.7598H32.8994V100.94H33.0194V91.7598Z" fill="#3BCED2"/>
<path d="M33.1395 91.7598H33.0195V100.94H33.1395V91.7598Z" fill="#3ACFD2"/>
<path d="M33.2694 91.7598H33.1494V100.94H33.2694V91.7598Z" fill="#39CFD1"/>
<path d="M33.3895 91.7598H33.2695V100.94H33.3895V91.7598Z" fill="#38D0D1"/>
<path d="M33.5096 91.7598H33.3896V100.94H33.5096V91.7598Z" fill="#37D0D1"/>
<path d="M33.6395 91.7598H33.5195V100.94H33.6395V91.7598Z" fill="#36D1D0"/>
<path d="M33.7596 91.7598H33.6396V100.94H33.7596V91.7598Z" fill="#35D1D0"/>
<path d="M33.8895 91.7598H33.7695V100.94H33.8895V91.7598Z" fill="#34D2CF"/>
<path d="M34.0096 91.7598H33.8896V100.94H34.0096V91.7598Z" fill="#33D2CF"/>
<path d="M34.1298 91.7598H34.0098V100.94H34.1298V91.7598Z" fill="#32D3CE"/>
<path d="M34.2596 91.7598H34.1396V100.94H34.2596V91.7598Z" fill="#31D4CE"/>
<path d="M34.3798 91.7598H34.2598V100.94H34.3798V91.7598Z" fill="#30D4CD"/>
<path d="M34.5096 91.7598H34.3896V100.94H34.5096V91.7598Z" fill="#2FD5CD"/>
<path d="M34.6298 91.7598H34.5098V100.94H34.6298V91.7598Z" fill="#2ED5CC"/>
<path d="M34.7499 91.7598H34.6299V100.94H34.7499V91.7598Z" fill="#2DD6CC"/>
<path d="M34.8798 91.7598H34.7598V100.94H34.8798V91.7598Z" fill="#2CD6CB"/>
<path d="M34.9999 91.7598H34.8799V100.94H34.9999V91.7598Z" fill="#2BD7CB"/>
<path d="M35.1298 91.7598H35.0098V100.94H35.1298V91.7598Z" fill="#2AD7CA"/>
<path d="M35.2499 91.7598H35.1299V100.94H35.2499V91.7598Z" fill="#29D8CA"/>
<path d="M35.369 91.7598H35.249V100.94H35.369V91.7598Z" fill="#28D9C9"/>
<path d="M35.4999 91.7598H35.3799V100.94H35.4999V91.7598Z" fill="#27D9C9"/>
<path d="M35.619 91.7598H35.499V100.94H35.619V91.7598Z" fill="#26DAC8"/>
<path d="M35.7499 91.7598H35.6299V100.94H35.7499V91.7598Z" fill="#25DAC8"/>
<path d="M35.869 91.7598H35.749V100.94H35.869V91.7598Z" fill="#24DBC7"/>
<path d="M35.9891 91.7598H35.8691V100.94H35.9891V91.7598Z" fill="#23DBC7"/>
<path d="M36.119 91.7598H35.999V100.94H36.119V91.7598Z" fill="#22DCC6"/>
<path d="M36.2391 91.7598H36.1191V100.94H36.2391V91.7598Z" fill="#21DDC6"/>
<path d="M36.369 91.7598H36.249V100.94H36.369V91.7598Z" fill="#20DDC5"/>
<path d="M36.4891 91.7598H36.3691V100.94H36.4891V91.7598Z" fill="#1FDEC5"/>
<path d="M36.6093 91.7598H36.4893V100.94H36.6093V91.7598Z" fill="#1EDEC4"/>
<path d="M36.7391 91.7598H36.6191V100.94H36.7391V91.7598Z" fill="#1DDFC4"/>
<path d="M36.8593 91.7598H36.7393V100.94H36.8593V91.7598Z" fill="#1CDFC4"/>
<path d="M36.9891 91.7598H36.8691V100.94H36.9891V91.7598Z" fill="#1BE0C3"/>
<path d="M37.1093 91.7598H36.9893V100.94H37.1093V91.7598Z" fill="#1AE0C3"/>
<path d="M37.2294 91.7598H37.1094V100.94H37.2294V91.7598Z" fill="#19E1C2"/>
<path d="M37.3593 91.7598H37.2393V100.94H37.3593V91.7598Z" fill="#18E2C2"/>
<path d="M37.4794 91.7598H37.3594V100.94H37.4794V91.7598Z" fill="#17E2C1"/>
<path d="M37.6093 91.7598H37.4893V100.94H37.6093V91.7598Z" fill="#16E3C1"/>
<path d="M37.7294 91.7598H37.6094V100.94H37.7294V91.7598Z" fill="#15E3C0"/>
<path d="M37.8495 91.7598H37.7295V100.94H37.8495V91.7598Z" fill="#14E4C0"/>
<path d="M37.9794 91.7598H37.8594V100.94H37.9794V91.7598Z" fill="#13E4BF"/>
<path d="M38.0995 91.7598H37.9795V100.94H38.0995V91.7598Z" fill="#12E5BF"/>
<path d="M38.2294 91.7598H38.1094V100.94H38.2294V91.7598Z" fill="#11E5BE"/>
<path d="M38.3495 91.7598H38.2295V100.94H38.3495V91.7598Z" fill="#10E6BE"/>
<path d="M38.4696 91.7598H38.3496V100.94H38.4696V91.7598Z" fill="#0FE7BD"/>
<path d="M38.5995 91.7598H38.4795V100.94H38.5995V91.7598Z" fill="#0EE7BD"/>
<path d="M38.7196 91.7598H38.5996V100.94H38.7196V91.7598Z" fill="#0DE8BC"/>
<path d="M38.8495 91.7598H38.7295V100.94H38.8495V91.7598Z" fill="#0CE8BC"/>
<path d="M38.9696 91.7598H38.8496V100.94H38.9696V91.7598Z" fill="#0BE9BB"/>
<path d="M39.0897 91.7598H38.9697V100.94H39.0897V91.7598Z" fill="#0AE9BB"/>
<path d="M39.2196 91.7598H39.0996V100.94H39.2196V91.7598Z" fill="#09EABA"/>
<path d="M39.3397 91.7598H39.2197V100.94H39.3397V91.7598Z" fill="#08EBBA"/>
<path d="M39.4696 91.7598H39.3496V100.94H39.4696V91.7598Z" fill="#07EBB9"/>
<path d="M39.5897 91.7598H39.4697V100.94H39.5897V91.7598Z" fill="#06ECB9"/>
<path d="M39.7098 91.7598H39.5898V100.94H39.7098V91.7598Z" fill="#05ECB8"/>
<path d="M39.8397 91.7598H39.7197V100.94H39.8397V91.7598Z" fill="#04EDB8"/>
<path d="M39.9598 91.7598H39.8398V100.94H39.9598V91.7598Z" fill="#03EDB7"/>
<path d="M40.0897 91.7598H39.9697V100.94H40.0897V91.7598Z" fill="#02EEB7"/>
<path d="M40.2098 91.7598H40.0898V100.94H40.2098V91.7598Z" fill="#01EEB6"/>
<path d="M40.33 91.7598H40.21V100.94H40.33V91.7598Z" fill="#00EFB6"/>
</g>
<mask id="mask2_4267_3453" style="mask-type:luminance" maskUnits="userSpaceOnUse" x="1" y="85" width="19" height="10">
<path d="M1.73961 87.45C2.61961 89.69 5.41961 94.89 12.2896 94.89C14.2596 94.89 16.4596 94.45 18.8096 93.58L19.2096 93.43L18.9796 93.06C17.5996 90.84 13.7396 85.71 7.53961 85.71C5.73961 85.71 3.84961 86.14 1.90961 86.99L1.59961 87.12L1.72961 87.44L1.73961 87.45Z" fill="white"/>
</mask>
<g mask="url(#mask2_4267_3453)">
<path d="M1.72938 85.7197H1.60938V94.8997H1.72938V85.7197Z" fill="#8EA0FA"/>
<path d="M1.84949 85.7197H1.72949V94.8997H1.84949V85.7197Z" fill="#8DA1FA"/>
<path d="M1.97938 85.7197H1.85938V94.8997H1.97938V85.7197Z" fill="#8CA1F9"/>
<path d="M2.09949 85.7197H1.97949V94.8997H2.09949V85.7197Z" fill="#8BA2F9"/>
<path d="M2.22938 85.7197H2.10938V94.8997H2.22938V85.7197Z" fill="#8AA2F8"/>
<path d="M2.34949 85.7197H2.22949V94.8997H2.34949V85.7197Z" fill="#89A3F8"/>
<path d="M2.46961 85.7197H2.34961V94.8997H2.46961V85.7197Z" fill="#88A3F7"/>
<path d="M2.59949 85.7197H2.47949V94.8997H2.59949V85.7197Z" fill="#87A4F7"/>
<path d="M2.71961 85.7197H2.59961V94.8997H2.71961V85.7197Z" fill="#86A4F6"/>
<path d="M2.84949 85.7197H2.72949V94.8997H2.84949V85.7197Z" fill="#85A5F6"/>
<path d="M2.96961 85.7197H2.84961V94.8997H2.96961V85.7197Z" fill="#84A6F5"/>
<path d="M3.08973 85.7197H2.96973V94.8997H3.08973V85.7197Z" fill="#83A6F5"/>
<path d="M3.21961 85.7197H3.09961V94.8997H3.21961V85.7197Z" fill="#82A7F4"/>
<path d="M3.33973 85.7197H3.21973V94.8997H3.33973V85.7197Z" fill="#81A7F4"/>
<path d="M3.46961 85.7197H3.34961V94.8997H3.46961V85.7197Z" fill="#80A8F3"/>
<path d="M3.58973 85.7197H3.46973V94.8997H3.58973V85.7197Z" fill="#7FA8F3"/>
<path d="M3.70984 85.7197H3.58984V94.8997H3.70984V85.7197Z" fill="#7EA9F2"/>
<path d="M3.83973 85.7197H3.71973V94.8997H3.83973V85.7197Z" fill="#7DAAF2"/>
<path d="M3.95984 85.7197H3.83984V94.8997H3.95984V85.7197Z" fill="#7CAAF1"/>
<path d="M4.08973 85.7197H3.96973V94.8997H4.08973V85.7197Z" fill="#7BABF1"/>
<path d="M4.20984 85.7197H4.08984V94.8997H4.20984V85.7197Z" fill="#7AABF0"/>
<path d="M4.32898 85.7197H4.20898V94.8997H4.32898V85.7197Z" fill="#79ACF0"/>
<path d="M4.45984 85.7197H4.33984V94.8997H4.45984V85.7197Z" fill="#78ACEF"/>
<path d="M4.57898 85.7197H4.45898V94.8997H4.57898V85.7197Z" fill="#77ADEF"/>
<path d="M4.70984 85.7197H4.58984V94.8997H4.70984V85.7197Z" fill="#76ADEE"/>
<path d="M4.82898 85.7197H4.70898V94.8997H4.82898V85.7197Z" fill="#75AEEE"/>
<path d="M4.9491 85.7197H4.8291V94.8997H4.9491V85.7197Z" fill="#74AFED"/>
<path d="M5.07898 85.7197H4.95898V94.8997H5.07898V85.7197Z" fill="#73AFED"/>
<path d="M5.1991 85.7197H5.0791V94.8997H5.1991V85.7197Z" fill="#72B0EC"/>
<path d="M5.32898 85.7197H5.20898V94.8997H5.32898V85.7197Z" fill="#71B0EC"/>
<path d="M5.4491 85.7197H5.3291V94.8997H5.4491V85.7197Z" fill="#70B1EC"/>
<path d="M5.56922 85.7197H5.44922V94.8997H5.56922V85.7197Z" fill="#6FB1EB"/>
<path d="M5.6991 85.7197H5.5791V94.8997H5.6991V85.7197Z" fill="#6EB2EB"/>
<path d="M5.81922 85.7197H5.69922V94.8997H5.81922V85.7197Z" fill="#6DB2EA"/>
<path d="M5.9491 85.7197H5.8291V94.8997H5.9491V85.7197Z" fill="#6CB3EA"/>
<path d="M6.06922 85.7197H5.94922V94.8997H6.06922V85.7197Z" fill="#6BB4E9"/>
<path d="M6.18934 85.7197H6.06934V94.8997H6.18934V85.7197Z" fill="#6AB4E9"/>
<path d="M6.31922 85.7197H6.19922V94.8997H6.31922V85.7197Z" fill="#69B5E8"/>
<path d="M6.43934 85.7197H6.31934V94.8997H6.43934V85.7197Z" fill="#68B5E8"/>
<path d="M6.56922 85.7197H6.44922V94.8997H6.56922V85.7197Z" fill="#67B6E7"/>
<path d="M6.68934 85.7197H6.56934V94.8997H6.68934V85.7197Z" fill="#66B6E7"/>
<path d="M6.80945 85.7197H6.68945V94.8997H6.80945V85.7197Z" fill="#65B7E6"/>
<path d="M6.93934 85.7197H6.81934V94.8997H6.93934V85.7197Z" fill="#64B8E6"/>
<path d="M7.05945 85.7197H6.93945V94.8997H7.05945V85.7197Z" fill="#63B8E5"/>
<path d="M7.18934 85.7197H7.06934V94.8997H7.18934V85.7197Z" fill="#62B9E5"/>
<path d="M7.30945 85.7197H7.18945V94.8997H7.30945V85.7197Z" fill="#61B9E4"/>
<path d="M7.42957 85.7197H7.30957V94.8997H7.42957V85.7197Z" fill="#60BAE4"/>
<path d="M7.55945 85.7197H7.43945V94.8997H7.55945V85.7197Z" fill="#5FBAE3"/>
<path d="M7.67957 85.7197H7.55957V94.8997H7.67957V85.7197Z" fill="#5EBBE3"/>
<path d="M7.80945 85.7197H7.68945V94.8997H7.80945V85.7197Z" fill="#5DBBE2"/>
<path d="M7.92957 85.7197H7.80957V94.8997H7.92957V85.7197Z" fill="#5CBCE2"/>
<path d="M8.04969 85.7197H7.92969V94.8997H8.04969V85.7197Z" fill="#5BBDE1"/>
<path d="M8.17957 85.7197H8.05957V94.8997H8.17957V85.7197Z" fill="#5ABDE1"/>
<path d="M8.29969 85.7197H8.17969V94.8997H8.29969V85.7197Z" fill="#59BEE0"/>
<path d="M8.42957 85.7197H8.30957V94.8997H8.42957V85.7197Z" fill="#58BEE0"/>
<path d="M8.54969 85.7197H8.42969V94.8997H8.54969V85.7197Z" fill="#57BFDF"/>
<path d="M8.6698 85.7197H8.5498V94.8997H8.6698V85.7197Z" fill="#56BFDF"/>
<path d="M8.79969 85.7197H8.67969V94.8997H8.79969V85.7197Z" fill="#55C0DF"/>
<path d="M8.9198 85.7197H8.7998V94.8997H8.9198V85.7197Z" fill="#54C0DE"/>
<path d="M9.04969 85.7197H8.92969V94.8997H9.04969V85.7197Z" fill="#53C1DE"/>
<path d="M9.1698 85.7197H9.0498V94.8997H9.1698V85.7197Z" fill="#52C2DD"/>
<path d="M9.28895 85.7197H9.16895V94.8997H9.28895V85.7197Z" fill="#51C2DD"/>
<path d="M9.4198 85.7197H9.2998V94.8997H9.4198V85.7197Z" fill="#50C3DC"/>
<path d="M9.53895 85.7197H9.41895V94.8997H9.53895V85.7197Z" fill="#4FC3DC"/>
<path d="M9.6698 85.7197H9.5498V94.8997H9.6698V85.7197Z" fill="#4EC4DB"/>
<path d="M9.78895 85.7197H9.66895V94.8997H9.78895V85.7197Z" fill="#4DC4DB"/>
<path d="M9.90906 85.7197H9.78906V94.8997H9.90906V85.7197Z" fill="#4CC5DA"/>
<path d="M10.0389 85.7197H9.91895V94.8997H10.0389V85.7197Z" fill="#4BC6DA"/>
<path d="M10.1591 85.7197H10.0391V94.8997H10.1591V85.7197Z" fill="#4AC6D9"/>
<path d="M10.2889 85.7197H10.1689V94.8997H10.2889V85.7197Z" fill="#49C7D9"/>
<path d="M10.4091 85.7197H10.2891V94.8997H10.4091V85.7197Z" fill="#48C7D8"/>
<path d="M10.5292 85.7197H10.4092V94.8997H10.5292V85.7197Z" fill="#46C8D8"/>
<path d="M10.6591 85.7197H10.5391V94.8997H10.6591V85.7197Z" fill="#45C8D7"/>
<path d="M10.7792 85.7197H10.6592V94.8997H10.7792V85.7197Z" fill="#44C9D7"/>
<path d="M10.9091 85.7197H10.7891V94.8997H10.9091V85.7197Z" fill="#43C9D6"/>
<path d="M11.0292 85.7197H10.9092V94.8997H11.0292V85.7197Z" fill="#42CAD6"/>
<path d="M11.1493 85.7197H11.0293V94.8997H11.1493V85.7197Z" fill="#41CBD5"/>
<path d="M11.2792 85.7197H11.1592V94.8997H11.2792V85.7197Z" fill="#40CBD5"/>
<path d="M11.3993 85.7197H11.2793V94.8997H11.3993V85.7197Z" fill="#3FCCD4"/>
<path d="M11.5292 85.7197H11.4092V94.8997H11.5292V85.7197Z" fill="#3ECCD4"/>
<path d="M11.6493 85.7197H11.5293V94.8997H11.6493V85.7197Z" fill="#3DCDD3"/>
<path d="M11.7694 85.7197H11.6494V94.8997H11.7694V85.7197Z" fill="#3CCDD3"/>
<path d="M11.8993 85.7197H11.7793V94.8997H11.8993V85.7197Z" fill="#3BCED2"/>
<path d="M12.0194 85.7197H11.8994V94.8997H12.0194V85.7197Z" fill="#3ACFD2"/>
<path d="M12.1493 85.7197H12.0293V94.8997H12.1493V85.7197Z" fill="#39CFD1"/>
<path d="M12.2694 85.7197H12.1494V94.8997H12.2694V85.7197Z" fill="#38D0D1"/>
<path d="M12.3895 85.7197H12.2695V94.8997H12.3895V85.7197Z" fill="#37D0D1"/>
<path d="M12.5194 85.7197H12.3994V94.8997H12.5194V85.7197Z" fill="#36D1D0"/>
<path d="M12.6395 85.7197H12.5195V94.8997H12.6395V85.7197Z" fill="#35D1D0"/>
<path d="M12.7694 85.7197H12.6494V94.8997H12.7694V85.7197Z" fill="#34D2CF"/>
<path d="M12.8895 85.7197H12.7695V94.8997H12.8895V85.7197Z" fill="#33D2CF"/>
<path d="M13.0096 85.7197H12.8896V94.8997H13.0096V85.7197Z" fill="#32D3CE"/>
<path d="M13.1395 85.7197H13.0195V94.8997H13.1395V85.7197Z" fill="#31D4CE"/>
<path d="M13.2596 85.7197H13.1396V94.8997H13.2596V85.7197Z" fill="#30D4CD"/>
<path d="M13.3895 85.7197H13.2695V94.8997H13.3895V85.7197Z" fill="#2FD5CD"/>
<path d="M13.5096 85.7197H13.3896V94.8997H13.5096V85.7197Z" fill="#2ED5CC"/>
<path d="M13.6298 85.7197H13.5098V94.8997H13.6298V85.7197Z" fill="#2DD6CC"/>
<path d="M13.7596 85.7197H13.6396V94.8997H13.7596V85.7197Z" fill="#2CD6CB"/>
<path d="M13.8798 85.7197H13.7598V94.8997H13.8798V85.7197Z" fill="#2BD7CB"/>
<path d="M14.0096 85.7197H13.8896V94.8997H14.0096V85.7197Z" fill="#2AD7CA"/>
<path d="M14.1298 85.7197H14.0098V94.8997H14.1298V85.7197Z" fill="#29D8CA"/>
<path d="M14.2489 85.7197H14.1289V94.8997H14.2489V85.7197Z" fill="#28D9C9"/>
<path d="M14.3798 85.7197H14.2598V94.8997H14.3798V85.7197Z" fill="#27D9C9"/>
<path d="M14.4989 85.7197H14.3789V94.8997H14.4989V85.7197Z" fill="#26DAC8"/>
<path d="M14.6298 85.7197H14.5098V94.8997H14.6298V85.7197Z" fill="#25DAC8"/>
<path d="M14.7489 85.7197H14.6289V94.8997H14.7489V85.7197Z" fill="#24DBC7"/>
<path d="M14.869 85.7197H14.749V94.8997H14.869V85.7197Z" fill="#23DBC7"/>
<path d="M14.9989 85.7197H14.8789V94.8997H14.9989V85.7197Z" fill="#22DCC6"/>
<path d="M15.119 85.7197H14.999V94.8997H15.119V85.7197Z" fill="#21DDC6"/>
<path d="M15.2489 85.7197H15.1289V94.8997H15.2489V85.7197Z" fill="#20DDC5"/>
<path d="M15.369 85.7197H15.249V94.8997H15.369V85.7197Z" fill="#1FDEC5"/>
<path d="M15.4891 85.7197H15.3691V94.8997H15.4891V85.7197Z" fill="#1EDEC4"/>
<path d="M15.619 85.7197H15.499V94.8997H15.619V85.7197Z" fill="#1DDFC4"/>
<path d="M15.7391 85.7197H15.6191V94.8997H15.7391V85.7197Z" fill="#1CDFC4"/>
<path d="M15.869 85.7197H15.749V94.8997H15.869V85.7197Z" fill="#1BE0C3"/>
<path d="M15.9891 85.7197H15.8691V94.8997H15.9891V85.7197Z" fill="#1AE0C3"/>
<path d="M16.1093 85.7197H15.9893V94.8997H16.1093V85.7197Z" fill="#19E1C2"/>
<path d="M16.2391 85.7197H16.1191V94.8997H16.2391V85.7197Z" fill="#18E2C2"/>
<path d="M16.3593 85.7197H16.2393V94.8997H16.3593V85.7197Z" fill="#17E2C1"/>
<path d="M16.4794 85.7197H16.3594V94.8997H16.4794V85.7197Z" fill="#16E3C1"/>
<path d="M16.6093 85.7197H16.4893V94.8997H16.6093V85.7197Z" fill="#15E3C0"/>
<path d="M16.7294 85.7197H16.6094V94.8997H16.7294V85.7197Z" fill="#14E4C0"/>
<path d="M16.8593 85.7197H16.7393V94.8997H16.8593V85.7197Z" fill="#13E4BF"/>
<path d="M16.9794 85.7197H16.8594V94.8997H16.9794V85.7197Z" fill="#12E5BF"/>
<path d="M17.0995 85.7197H16.9795V94.8997H17.0995V85.7197Z" fill="#11E5BE"/>
<path d="M17.2294 85.7197H17.1094V94.8997H17.2294V85.7197Z" fill="#10E6BE"/>
<path d="M17.3495 85.7197H17.2295V94.8997H17.3495V85.7197Z" fill="#0FE7BD"/>
<path d="M17.4794 85.7197H17.3594V94.8997H17.4794V85.7197Z" fill="#0EE7BD"/>
<path d="M17.5995 85.7197H17.4795V94.8997H17.5995V85.7197Z" fill="#0DE8BC"/>
<path d="M17.7196 85.7197H17.5996V94.8997H17.7196V85.7197Z" fill="#0CE8BC"/>
<path d="M17.8495 85.7197H17.7295V94.8997H17.8495V85.7197Z" fill="#0BE9BB"/>
<path d="M17.9696 85.7197H17.8496V94.8997H17.9696V85.7197Z" fill="#0AE9BB"/>
<path d="M18.0995 85.7197H17.9795V94.8997H18.0995V85.7197Z" fill="#09EABA"/>
<path d="M18.2196 85.7197H18.0996V94.8997H18.2196V85.7197Z" fill="#08EBBA"/>
<path d="M18.3397 85.7197H18.2197V94.8997H18.3397V85.7197Z" fill="#07EBB9"/>
<path d="M18.4696 85.7197H18.3496V94.8997H18.4696V85.7197Z" fill="#06ECB9"/>
<path d="M18.5897 85.7197H18.4697V94.8997H18.5897V85.7197Z" fill="#05ECB8"/>
<path d="M18.7196 85.7197H18.5996V94.8997H18.7196V85.7197Z" fill="#04EDB8"/>
<path d="M18.8397 85.7197H18.7197V94.8997H18.8397V85.7197Z" fill="#03EDB7"/>
<path d="M18.9598 85.7197H18.8398V94.8997H18.9598V85.7197Z" fill="#02EEB7"/>
<path d="M19.0897 85.7197H18.9697V94.8997H19.0897V85.7197Z" fill="#01EEB6"/>
<path d="M19.2098 85.7197H19.0898V94.8997H19.2098V85.7197Z" fill="#00EFB6"/>
</g>
<path d="M21.3004 47.5601C14.3004 47.5601 8.61035 53.2601 8.61035 60.2501C8.61035 67.2401 14.3004 72.9401 21.3004 72.9401C28.3004 72.9401 33.9904 67.2501 33.9904 60.2501C33.9904 53.2501 28.3004 47.5601 21.3004 47.5601Z" fill="white"/>
<path d="M24.2797 67.4799C24.1297 67.4799 24.0097 67.4599 23.8997 67.4099C23.7897 67.3599 23.6997 67.2999 23.6397 67.2199C23.5797 67.1399 23.5097 67.0499 23.4497 66.9499L21.1897 63.5399C20.9997 63.2299 20.7997 62.9899 20.5997 62.7999C20.3997 62.6099 20.1697 62.4799 19.9097 62.3999C19.6497 62.3199 19.3497 62.2799 18.9797 62.2799H17.0397C16.8497 62.2799 16.6997 62.2299 16.5897 62.1299C16.4797 62.0299 16.4297 61.8799 16.4297 61.6899C16.4297 61.5099 16.4797 61.3699 16.5897 61.2699C16.6997 61.1699 16.8497 61.1299 17.0397 61.1299H19.9997C20.9997 61.1299 21.7397 60.9299 22.2197 60.5299C22.6997 60.1299 22.9597 59.5299 22.9697 58.7399L23.1897 59.0299H17.0097C16.8297 59.0299 16.6897 58.9799 16.5897 58.8899C16.4897 58.7999 16.4397 58.6699 16.4397 58.5199C16.4397 58.3699 16.4897 58.2399 16.5897 58.1499C16.6897 58.0599 16.8297 58.0099 17.0097 58.0099H23.1897L22.9397 58.3199C22.8497 57.6999 22.5697 57.2199 22.0997 56.8999C21.6297 56.5799 20.9797 56.4199 20.1397 56.4199H17.0197C16.8397 56.4199 16.6997 56.3799 16.5997 56.2799C16.4997 56.1899 16.4497 56.0699 16.4497 55.9099C16.4497 55.7499 16.4997 55.6299 16.5997 55.5399C16.6997 55.4499 16.8397 55.3999 17.0197 55.3999H25.5797C25.7597 55.3999 25.8997 55.4399 25.9997 55.5399C26.0997 55.6399 26.1497 55.7499 26.1497 55.9099C26.1497 56.0699 26.0997 56.1899 25.9997 56.2799C25.8997 56.3699 25.7597 56.4199 25.5797 56.4199H22.5097L22.7997 56.1099C23.2397 56.3299 23.5897 56.6199 23.8397 56.9899C24.0897 57.3599 24.2497 57.7899 24.3097 58.2699L24.0197 58.0199H25.5797C25.7597 58.0199 25.8997 58.0699 25.9997 58.1599C26.0997 58.2499 26.1497 58.3799 26.1497 58.5299C26.1497 58.6799 26.0997 58.8099 25.9997 58.8999C25.8997 58.9899 25.7597 59.0399 25.5797 59.0399H24.0697L24.3397 58.6799C24.3697 59.4099 24.2397 60.0299 23.9197 60.5699C23.5997 61.1099 23.1497 61.5099 22.5397 61.7999C21.9297 62.0899 21.1997 62.2299 20.3197 62.2299V62.0799H20.5897C21.0197 62.0799 21.4097 62.1799 21.7497 62.3899C22.0997 62.5899 22.4297 62.9499 22.7597 63.4599L24.7597 66.4799C24.8597 66.6399 24.9097 66.7999 24.8997 66.9599C24.8897 67.1199 24.8297 67.2499 24.7197 67.3499C24.6097 67.4499 24.4597 67.4999 24.2697 67.4999L24.2797 67.4799Z" fill="black"/>
<mask id="mask3_4267_3453" style="mask-type:luminance" maskUnits="userSpaceOnUse" x="48" y="21" width="39" height="39">
<path d="M66.7297 59.03C66.5797 59.03 66.4397 59.02 66.2997 59C56.4997 58.38 48.7197 50.21 48.7197 40.25C48.7197 30.29 57.1397 21.46 67.5097 21.46C77.8797 21.46 86.2997 29.89 86.2997 40.25C86.2997 50.61 78.5197 58.38 68.7197 59C68.5797 59.01 68.4297 59.02 68.2897 59.03C68.0297 59.03 67.7697 59.04 67.5097 59.04C67.2497 59.04 66.9997 59.04 66.7397 59.03H66.7297Z" fill="white"/>
</mask>
<g mask="url(#mask3_4267_3453)">
<path d="M49.2297 21.46H48.7197V59.04H49.2297V21.46Z" fill="#F97DE8"/>
<path d="M49.7395 21.46H49.2295V59.04H49.7395V21.46Z" fill="#F87EE8"/>
<path d="M50.2493 21.46H49.7393V59.04H50.2493V21.46Z" fill="#F77FE8"/>
<path d="M50.7493 21.46H50.2393V59.04H50.7493V21.46Z" fill="#F680E8"/>
<path d="M51.26 21.46H50.75V59.04H51.26V21.46Z" fill="#F581E8"/>
<path d="M51.7698 21.46H51.2598V59.04H51.7698V21.46Z" fill="#F482E9"/>
<path d="M52.2795 21.46H51.7695V59.04H52.2795V21.46Z" fill="#F383E9"/>
<path d="M52.7795 21.46H52.2695V59.04H52.7795V21.46Z" fill="#F284E9"/>
<path d="M53.2893 21.46H52.7793V59.04H53.2893V21.46Z" fill="#F285E9"/>
<path d="M53.8 21.46H53.29V59.04H53.8V21.46Z" fill="#F186E9"/>
<path d="M54.3098 21.46H53.7998V59.04H54.3098V21.46Z" fill="#F087E9"/>
<path d="M54.8196 21.46H54.3096V59.04H54.8196V21.46Z" fill="#EF88E9"/>
<path d="M55.3196 21.46H54.8096V59.04H55.3196V21.46Z" fill="#EE89E9"/>
<path d="M55.8293 21.46H55.3193V59.04H55.8293V21.46Z" fill="#ED8AEA"/>
<path d="M56.3401 21.46H55.8301V59.04H56.3401V21.46Z" fill="#EC8BEA"/>
<path d="M56.8498 21.46H56.3398V59.04H56.8498V21.46Z" fill="#EB8CEA"/>
<path d="M57.3596 21.46H56.8496V59.04H57.3596V21.46Z" fill="#EA8DEA"/>
<path d="M57.8596 21.46H57.3496V59.04H57.8596V21.46Z" fill="#E98EEA"/>
<path d="M58.3694 21.46H57.8594V59.04H58.3694V21.46Z" fill="#E88FEA"/>
<path d="M58.8801 21.46H58.3701V59.04H58.8801V21.46Z" fill="#E790EA"/>
<path d="M59.3899 21.46H58.8799V59.04H59.3899V21.46Z" fill="#E691EA"/>
<path d="M59.8899 21.46H59.3799V59.04H59.8899V21.46Z" fill="#E592EB"/>
<path d="M60.3997 21.46H59.8896V59.04H60.3997V21.46Z" fill="#E593EB"/>
<path d="M60.9094 21.46H60.3994V59.04H60.9094V21.46Z" fill="#E494EB"/>
<path d="M61.4202 21.46H60.9102V59.04H61.4202V21.46Z" fill="#E395EB"/>
<path d="M61.9299 21.46H61.4199V59.04H61.9299V21.46Z" fill="#E296EB"/>
<path d="M62.4299 21.46H61.9199V59.04H62.4299V21.46Z" fill="#E197EB"/>
<path d="M62.9397 21.46H62.4297V59.04H62.9397V21.46Z" fill="#E098EB"/>
<path d="M63.4495 21.46H62.9395V59.04H63.4495V21.46Z" fill="#DF99EB"/>
<path d="M63.9602 21.46H63.4502V59.04H63.9602V21.46Z" fill="#DE9AEC"/>
<path d="M64.47 21.46H63.96V59.04H64.47V21.46Z" fill="#DD9BEC"/>
<path d="M64.97 21.46H64.46V59.04H64.97V21.46Z" fill="#DC9CEC"/>
<path d="M65.4797 21.46H64.9697V59.04H65.4797V21.46Z" fill="#DB9DEC"/>
<path d="M65.9895 21.46H65.4795V59.04H65.9895V21.46Z" fill="#DA9EEC"/>
<path d="M66.4993 21.46H65.9893V59.04H66.4993V21.46Z" fill="#D99FEC"/>
<path d="M66.9993 21.46H66.4893V59.04H66.9993V21.46Z" fill="#D8A0EC"/>
<path d="M67.51 21.46H67V59.04H67.51V21.46Z" fill="#D7A1EC"/>
<path d="M68.0198 21.46H67.5098V59.04H68.0198V21.46Z" fill="#D7A3ED"/>
<path d="M68.5295 21.46H68.0195V59.04H68.5295V21.46Z" fill="#D6A4ED"/>
<path d="M69.0393 21.46H68.5293V59.04H69.0393V21.46Z" fill="#D5A5ED"/>
<path d="M69.5393 21.46H69.0293V59.04H69.5393V21.46Z" fill="#D4A6ED"/>
<path d="M70.05 21.46H69.54V59.04H70.05V21.46Z" fill="#D3A7ED"/>
<path d="M70.5598 21.46H70.0498V59.04H70.5598V21.46Z" fill="#D2A8ED"/>
<path d="M71.0696 21.46H70.5596V59.04H71.0696V21.46Z" fill="#D1A9ED"/>
<path d="M71.5696 21.46H71.0596V59.04H71.5696V21.46Z" fill="#D0AAED"/>
<path d="M72.0793 21.46H71.5693V59.04H72.0793V21.46Z" fill="#CFABEE"/>
<path d="M72.5901 21.46H72.0801V59.04H72.5901V21.46Z" fill="#CEACEE"/>
<path d="M73.0998 21.46H72.5898V59.04H73.0998V21.46Z" fill="#CDADEE"/>
<path d="M73.6096 21.46H73.0996V59.04H73.6096V21.46Z" fill="#CCAEEE"/>
<path d="M74.1096 21.46H73.5996V59.04H74.1096V21.46Z" fill="#CBAFEE"/>
<path d="M74.6194 21.46H74.1094V59.04H74.6194V21.46Z" fill="#CAB0EE"/>
<path d="M75.1301 21.46H74.6201V59.04H75.1301V21.46Z" fill="#C9B1EE"/>
<path d="M75.6399 21.46H75.1299V59.04H75.6399V21.46Z" fill="#C9B2EE"/>
<path d="M76.1497 21.46H75.6396V59.04H76.1497V21.46Z" fill="#C8B3EF"/>
<path d="M76.6497 21.46H76.1396V59.04H76.6497V21.46Z" fill="#C7B4EF"/>
<path d="M77.1594 21.46H76.6494V59.04H77.1594V21.46Z" fill="#C6B5EF"/>
<path d="M77.6702 21.46H77.1602V59.04H77.6702V21.46Z" fill="#C5B6EF"/>
<path d="M78.1799 21.46H77.6699V59.04H78.1799V21.46Z" fill="#C4B7EF"/>
<path d="M78.6799 21.46H78.1699V59.04H78.6799V21.46Z" fill="#C3B8EF"/>
<path d="M79.1897 21.46H78.6797V59.04H79.1897V21.46Z" fill="#C2B9EF"/>
<path d="M79.6994 21.46H79.1895V59.04H79.6994V21.46Z" fill="#C1BAEF"/>
<path d="M80.2102 21.46H79.7002V59.04H80.2102V21.46Z" fill="#C0BBF0"/>
<path d="M80.72 21.46H80.21V59.04H80.72V21.46Z" fill="#BFBCF0"/>
<path d="M81.22 21.46H80.71V59.04H81.22V21.46Z" fill="#BEBDF0"/>
<path d="M81.7297 21.46H81.2197V59.04H81.7297V21.46Z" fill="#BDBEF0"/>
<path d="M82.2395 21.46H81.7295V59.04H82.2395V21.46Z" fill="#BCBFF0"/>
<path d="M82.7493 21.46H82.2393V59.04H82.7493V21.46Z" fill="#BCC0F0"/>
<path d="M83.2493 21.46H82.7393V59.04H83.2493V21.46Z" fill="#BBC1F0"/>
<path d="M83.76 21.46H83.25V59.04H83.76V21.46Z" fill="#BAC2F0"/>
<path d="M84.2698 21.46H83.7598V59.04H84.2698V21.46Z" fill="#B9C3F1"/>
<path d="M84.7795 21.46H84.2695V59.04H84.7795V21.46Z" fill="#B8C4F1"/>
<path d="M85.2893 21.46H84.7793V59.04H85.2893V21.46Z" fill="#B7C5F1"/>
<path d="M85.7893 21.46H85.2793V59.04H85.7893V21.46Z" fill="#B6C6F1"/>
<path d="M86.3 21.46H85.79V59.04H86.3V21.46Z" fill="#B5C7F1"/>
</g>
<path d="M69.3399 79.6298C71.6899 80.4998 73.8799 80.9398 75.8599 80.9398C82.7399 80.9398 85.5299 75.7298 86.4099 73.4998L86.5299 73.1798L86.2199 73.0398C84.2899 72.1898 82.3899 71.7598 80.5899 71.7598C74.3999 71.7598 70.5299 76.8998 69.1499 79.1098L68.9199 79.4798L69.3299 79.6298H69.3399ZM67.2399 79.5298C67.4199 79.1498 71.7899 70.2998 80.5899 70.2998C82.8799 70.2998 85.2899 70.9198 87.7399 72.1398C88.0499 72.2998 88.2099 72.6498 88.1199 72.9898C88.0899 73.0798 85.4599 82.3998 75.8499 82.3998C73.3599 82.3998 70.5899 81.7698 67.6099 80.5198C67.4299 80.4498 67.2799 80.2898 67.2099 80.1098C67.1399 79.9298 67.1499 79.7198 67.2299 79.5298H67.2399Z" fill="black"/>
<path d="M67.5104 27.5601C60.5104 27.5601 54.8204 33.2601 54.8204 40.2501C54.8204 47.2401 60.5104 52.9401 67.5104 52.9401C74.5104 52.9401 80.2003 47.2501 80.2003 40.2501C80.2003 33.2501 74.5104 27.5601 67.5104 27.5601ZM53.3604 40.2501C53.3604 32.4501 59.7104 26.1001 67.5104 26.1001C75.3104 26.1001 81.6604 32.4501 81.6604 40.2501C81.6604 48.0501 75.3204 54.4001 67.5104 54.4001C59.7004 54.4001 53.3604 48.0601 53.3604 40.2501Z" fill="black"/>
<path d="M68.2395 60.4798C68.3595 60.4798 68.4695 60.4798 68.5995 60.4698C68.7195 60.4698 68.8295 60.4698 68.9595 60.4498C79.4595 59.7098 87.7695 50.9398 87.7695 40.2598C87.7695 29.5798 78.6895 20.0098 67.5195 20.0098C56.3495 20.0098 47.2695 29.0898 47.2695 40.2598C47.2695 51.4298 55.5895 59.7198 66.0795 60.4498C66.1995 60.4598 66.3095 60.4698 66.4395 60.4798C66.5595 60.4798 66.6695 60.4898 66.7995 60.4798V109.41H55.4095C55.0095 109.41 54.6895 109.74 54.6895 110.14C54.6895 110.54 55.0195 110.87 55.4095 110.87H79.6295C79.8295 110.87 80.0095 110.79 80.1495 110.66C80.2895 110.52 80.3595 110.33 80.3595 110.14C80.3595 109.74 80.0295 109.41 79.6295 109.41H68.2495V60.4798C68.0095 60.4898 67.7595 60.4998 67.5195 60.4998C67.2995 60.4998 67.0795 60.4998 66.8695 60.4798C67.0895 60.4898 67.3095 60.4998 67.5195 60.4998C67.7595 60.4998 68.0095 60.4998 68.2495 60.4798H68.2395ZM66.7295 59.0298C66.5795 59.0298 66.4395 59.0198 66.2995 58.9998C56.4995 58.3798 48.7195 50.2098 48.7195 40.2498C48.7195 30.2898 57.1395 21.4598 67.5095 21.4598C77.8795 21.4598 86.2995 29.8898 86.2995 40.2498C86.2995 50.6098 78.5195 58.3798 68.7195 58.9998C68.5795 59.0098 68.4295 59.0198 68.2895 59.0298C68.0295 59.0298 67.7695 59.0398 67.5095 59.0398C67.2495 59.0398 66.9995 59.0398 66.7395 59.0298H66.7295Z" fill="black"/>
<mask id="mask4_4267_3453" style="mask-type:luminance" maskUnits="userSpaceOnUse" x="68" y="71" width="19" height="10">
<path d="M69.3399 79.6298C71.6899 80.4998 73.8799 80.9398 75.8599 80.9398C82.7399 80.9398 85.5299 75.7298 86.4099 73.4998L86.5299 73.1798L86.2199 73.0398C84.2899 72.1898 82.3899 71.7598 80.5899 71.7598C74.3999 71.7598 70.5299 76.8998 69.1499 79.1098L68.9199 79.4798L69.3299 79.6298H69.3399Z" fill="white"/>
</mask>
<g mask="url(#mask4_4267_3453)">
<path d="M69.0497 71.7598H68.9297V80.9398H69.0497V71.7598Z" fill="#8EA0FA"/>
<path d="M69.1796 71.7598H69.0596V80.9398H69.1796V71.7598Z" fill="#8DA1FA"/>
<path d="M69.2997 71.7598H69.1797V80.9398H69.2997V71.7598Z" fill="#8CA1F9"/>
<path d="M69.4198 71.7598H69.2998V80.9398H69.4198V71.7598Z" fill="#8BA2F9"/>
<path d="M69.5497 71.7598H69.4297V80.9398H69.5497V71.7598Z" fill="#8AA2F8"/>
<path d="M69.6698 71.7598H69.5498V80.9398H69.6698V71.7598Z" fill="#89A3F8"/>
<path d="M69.7997 71.7598H69.6797V80.9398H69.7997V71.7598Z" fill="#88A3F7"/>
<path d="M69.9198 71.7598H69.7998V80.9398H69.9198V71.7598Z" fill="#87A4F7"/>
<path d="M70.0399 71.7598H69.9199V80.9398H70.0399V71.7598Z" fill="#86A4F6"/>
<path d="M70.1698 71.7598H70.0498V80.9398H70.1698V71.7598Z" fill="#85A5F6"/>
<path d="M70.2899 71.7598H70.1699V80.9398H70.2899V71.7598Z" fill="#84A6F5"/>
<path d="M70.4198 71.7598H70.2998V80.9398H70.4198V71.7598Z" fill="#83A6F5"/>
<path d="M70.5399 71.7598H70.4199V80.9398H70.5399V71.7598Z" fill="#82A7F4"/>
<path d="M70.66 71.7598H70.54V80.9398H70.66V71.7598Z" fill="#81A7F4"/>
<path d="M70.7899 71.7598H70.6699V80.9398H70.7899V71.7598Z" fill="#80A8F3"/>
<path d="M70.91 71.7598H70.79V80.9398H70.91V71.7598Z" fill="#7FA8F3"/>
<path d="M71.0399 71.7598H70.9199V80.9398H71.0399V71.7598Z" fill="#7EA9F2"/>
<path d="M71.16 71.7598H71.04V80.9398H71.16V71.7598Z" fill="#7DAAF2"/>
<path d="M71.2802 71.7598H71.1602V80.9398H71.2802V71.7598Z" fill="#7CAAF1"/>
<path d="M71.41 71.7598H71.29V80.9398H71.41V71.7598Z" fill="#7BABF1"/>
<path d="M71.5302 71.7598H71.4102V80.9398H71.5302V71.7598Z" fill="#7AABF0"/>
<path d="M71.66 71.7598H71.54V80.9398H71.66V71.7598Z" fill="#79ACF0"/>
<path d="M71.7802 71.7598H71.6602V80.9398H71.7802V71.7598Z" fill="#78ACEF"/>
<path d="M71.8993 71.7598H71.7793V80.9398H71.8993V71.7598Z" fill="#77ADEF"/>
<path d="M72.0302 71.7598H71.9102V80.9398H72.0302V71.7598Z" fill="#76ADEE"/>
<path d="M72.1493 71.7598H72.0293V80.9398H72.1493V71.7598Z" fill="#75AEEE"/>
<path d="M72.2802 71.7598H72.1602V80.9398H72.2802V71.7598Z" fill="#74AFED"/>
<path d="M72.3993 71.7598H72.2793V80.9398H72.3993V71.7598Z" fill="#73AFED"/>
<path d="M72.5194 71.7598H72.3994V80.9398H72.5194V71.7598Z" fill="#72B0EC"/>
<path d="M72.6493 71.7598H72.5293V80.9398H72.6493V71.7598Z" fill="#71B0EC"/>
<path d="M72.7694 71.7598H72.6494V80.9398H72.7694V71.7598Z" fill="#70B1EC"/>
<path d="M72.8993 71.7598H72.7793V80.9398H72.8993V71.7598Z" fill="#6FB1EB"/>
<path d="M73.0194 71.7598H72.8994V80.9398H73.0194V71.7598Z" fill="#6EB2EB"/>
<path d="M73.1395 71.7598H73.0195V80.9398H73.1395V71.7598Z" fill="#6DB2EA"/>
<path d="M73.2694 71.7598H73.1494V80.9398H73.2694V71.7598Z" fill="#6CB3EA"/>
<path d="M73.3895 71.7598H73.2695V80.9398H73.3895V71.7598Z" fill="#6BB4E9"/>
<path d="M73.5194 71.7598H73.3994V80.9398H73.5194V71.7598Z" fill="#6AB4E9"/>
<path d="M73.6395 71.7598H73.5195V80.9398H73.6395V71.7598Z" fill="#69B5E8"/>
<path d="M73.7597 71.7598H73.6396V80.9398H73.7597V71.7598Z" fill="#68B5E8"/>
<path d="M73.8895 71.7598H73.7695V80.9398H73.8895V71.7598Z" fill="#67B6E7"/>
<path d="M74.0097 71.7598H73.8896V80.9398H74.0097V71.7598Z" fill="#66B6E7"/>
<path d="M74.1395 71.7598H74.0195V80.9398H74.1395V71.7598Z" fill="#65B7E6"/>
<path d="M74.2597 71.7598H74.1396V80.9398H74.2597V71.7598Z" fill="#64B8E6"/>
<path d="M74.3798 71.7598H74.2598V80.9398H74.3798V71.7598Z" fill="#63B8E5"/>
<path d="M74.5097 71.7598H74.3896V80.9398H74.5097V71.7598Z" fill="#62B9E5"/>
<path d="M74.6298 71.7598H74.5098V80.9398H74.6298V71.7598Z" fill="#61B9E4"/>
<path d="M74.7597 71.7598H74.6396V80.9398H74.7597V71.7598Z" fill="#60BAE4"/>
<path d="M74.8798 71.7598H74.7598V80.9398H74.8798V71.7598Z" fill="#5FBAE3"/>
<path d="M74.9999 71.7598H74.8799V80.9398H74.9999V71.7598Z" fill="#5EBBE3"/>
<path d="M75.1298 71.7598H75.0098V80.9398H75.1298V71.7598Z" fill="#5DBBE2"/>
<path d="M75.2499 71.7598H75.1299V80.9398H75.2499V71.7598Z" fill="#5CBCE2"/>
<path d="M75.3798 71.7598H75.2598V80.9398H75.3798V71.7598Z" fill="#5BBDE1"/>
<path d="M75.4999 71.7598H75.3799V80.9398H75.4999V71.7598Z" fill="#5ABDE1"/>
<path d="M75.62 71.7598H75.5V80.9398H75.62V71.7598Z" fill="#59BEE0"/>
<path d="M75.7499 71.7598H75.6299V80.9398H75.7499V71.7598Z" fill="#58BEE0"/>
<path d="M75.87 71.7598H75.75V80.9398H75.87V71.7598Z" fill="#57BFDF"/>
<path d="M75.9999 71.7598H75.8799V80.9398H75.9999V71.7598Z" fill="#56BFDF"/>
<path d="M76.12 71.7598H76V80.9398H76.12V71.7598Z" fill="#55C0DF"/>
<path d="M76.2401 71.7598H76.1201V80.9398H76.2401V71.7598Z" fill="#54C0DE"/>
<path d="M76.37 71.7598H76.25V80.9398H76.37V71.7598Z" fill="#53C1DE"/>
<path d="M76.4901 71.7598H76.3701V80.9398H76.4901V71.7598Z" fill="#52C2DD"/>
<path d="M76.62 71.7598H76.5V80.9398H76.62V71.7598Z" fill="#51C2DD"/>
<path d="M76.7401 71.7598H76.6201V80.9398H76.7401V71.7598Z" fill="#50C3DC"/>
<path d="M76.8593 71.7598H76.7393V80.9398H76.8593V71.7598Z" fill="#4FC3DC"/>
<path d="M76.9901 71.7598H76.8701V80.9398H76.9901V71.7598Z" fill="#4EC4DB"/>
<path d="M77.1093 71.7598H76.9893V80.9398H77.1093V71.7598Z" fill="#4DC4DB"/>
<path d="M77.2401 71.7598H77.1201V80.9398H77.2401V71.7598Z" fill="#4CC5DA"/>
<path d="M77.3593 71.7598H77.2393V80.9398H77.3593V71.7598Z" fill="#4BC6DA"/>
<path d="M77.4794 71.7598H77.3594V80.9398H77.4794V71.7598Z" fill="#4AC6D9"/>
<path d="M77.6093 71.7598H77.4893V80.9398H77.6093V71.7598Z" fill="#49C7D9"/>
<path d="M77.7294 71.7598H77.6094V80.9398H77.7294V71.7598Z" fill="#48C7D8"/>
<path d="M77.8593 71.7598H77.7393V80.9398H77.8593V71.7598Z" fill="#46C8D8"/>
<path d="M77.9794 71.7598H77.8594V80.9398H77.9794V71.7598Z" fill="#45C8D7"/>
<path d="M78.0995 71.7598H77.9795V80.9398H78.0995V71.7598Z" fill="#44C9D7"/>
<path d="M78.2294 71.7598H78.1094V80.9398H78.2294V71.7598Z" fill="#43C9D6"/>
<path d="M78.3495 71.7598H78.2295V80.9398H78.3495V71.7598Z" fill="#42CAD6"/>
<path d="M78.4794 71.7598H78.3594V80.9398H78.4794V71.7598Z" fill="#41CBD5"/>
<path d="M78.5995 71.7598H78.4795V80.9398H78.5995V71.7598Z" fill="#40CBD5"/>
<path d="M78.7196 71.7598H78.5996V80.9398H78.7196V71.7598Z" fill="#3FCCD4"/>
<path d="M78.8495 71.7598H78.7295V80.9398H78.8495V71.7598Z" fill="#3ECCD4"/>
<path d="M78.9696 71.7598H78.8496V80.9398H78.9696V71.7598Z" fill="#3DCDD3"/>
<path d="M79.0995 71.7598H78.9795V80.9398H79.0995V71.7598Z" fill="#3CCDD3"/>
<path d="M79.2196 71.7598H79.0996V80.9398H79.2196V71.7598Z" fill="#3BCED2"/>
<path d="M79.3397 71.7598H79.2197V80.9398H79.3397V71.7598Z" fill="#3ACFD2"/>
<path d="M79.4696 71.7598H79.3496V80.9398H79.4696V71.7598Z" fill="#39CFD1"/>
<path d="M79.5897 71.7598H79.4697V80.9398H79.5897V71.7598Z" fill="#38D0D1"/>
<path d="M79.7196 71.7598H79.5996V80.9398H79.7196V71.7598Z" fill="#37D0D1"/>
<path d="M79.8397 71.7598H79.7197V80.9398H79.8397V71.7598Z" fill="#36D1D0"/>
<path d="M79.9598 71.7598H79.8398V80.9398H79.9598V71.7598Z" fill="#35D1D0"/>
<path d="M80.0897 71.7598H79.9697V80.9398H80.0897V71.7598Z" fill="#34D2CF"/>
<path d="M80.2098 71.7598H80.0898V80.9398H80.2098V71.7598Z" fill="#33D2CF"/>
<path d="M80.3397 71.7598H80.2197V80.9398H80.3397V71.7598Z" fill="#32D3CE"/>
<path d="M80.4598 71.7598H80.3398V80.9398H80.4598V71.7598Z" fill="#31D4CE"/>
<path d="M80.58 71.7598H80.46V80.9398H80.58V71.7598Z" fill="#30D4CD"/>
<path d="M80.7098 71.7598H80.5898V80.9398H80.7098V71.7598Z" fill="#2FD5CD"/>
<path d="M80.83 71.7598H80.71V80.9398H80.83V71.7598Z" fill="#2ED5CC"/>
<path d="M80.9598 71.7598H80.8398V80.9398H80.9598V71.7598Z" fill="#2DD6CC"/>
<path d="M81.08 71.7598H80.96V80.9398H81.08V71.7598Z" fill="#2CD6CB"/>
<path d="M81.2001 71.7598H81.0801V80.9398H81.2001V71.7598Z" fill="#2BD7CB"/>
<path d="M81.33 71.7598H81.21V80.9398H81.33V71.7598Z" fill="#2AD7CA"/>
<path d="M81.4501 71.7598H81.3301V80.9398H81.4501V71.7598Z" fill="#29D8CA"/>
<path d="M81.58 71.7598H81.46V80.9398H81.58V71.7598Z" fill="#28D9C9"/>
<path d="M81.7001 71.7598H81.5801V80.9398H81.7001V71.7598Z" fill="#27D9C9"/>
<path d="M81.8192 71.7598H81.6992V80.9398H81.8192V71.7598Z" fill="#26DAC8"/>
<path d="M81.9501 71.7598H81.8301V80.9398H81.9501V71.7598Z" fill="#25DAC8"/>
<path d="M82.0692 71.7598H81.9492V80.9398H82.0692V71.7598Z" fill="#24DBC7"/>
<path d="M82.2001 71.7598H82.0801V80.9398H82.2001V71.7598Z" fill="#23DBC7"/>
<path d="M82.3192 71.7598H82.1992V80.9398H82.3192V71.7598Z" fill="#22DCC6"/>
<path d="M82.4393 71.7598H82.3193V80.9398H82.4393V71.7598Z" fill="#21DDC6"/>
<path d="M82.5692 71.7598H82.4492V80.9398H82.5692V71.7598Z" fill="#20DDC5"/>
<path d="M82.6893 71.7598H82.5693V80.9398H82.6893V71.7598Z" fill="#1FDEC5"/>
<path d="M82.8192 71.7598H82.6992V80.9398H82.8192V71.7598Z" fill="#1EDEC4"/>
<path d="M82.9393 71.7598H82.8193V80.9398H82.9393V71.7598Z" fill="#1DDFC4"/>
<path d="M83.0594 71.7598H82.9395V80.9398H83.0594V71.7598Z" fill="#1CDFC4"/>
<path d="M83.1893 71.7598H83.0693V80.9398H83.1893V71.7598Z" fill="#1BE0C3"/>
<path d="M83.3094 71.7598H83.1895V80.9398H83.3094V71.7598Z" fill="#1AE0C3"/>
<path d="M83.4393 71.7598H83.3193V80.9398H83.4393V71.7598Z" fill="#19E1C2"/>
<path d="M83.5594 71.7598H83.4395V80.9398H83.5594V71.7598Z" fill="#18E2C2"/>
<path d="M83.6796 71.7598H83.5596V80.9398H83.6796V71.7598Z" fill="#17E2C1"/>
<path d="M83.8094 71.7598H83.6895V80.9398H83.8094V71.7598Z" fill="#16E3C1"/>
<path d="M83.9296 71.7598H83.8096V80.9398H83.9296V71.7598Z" fill="#15E3C0"/>
<path d="M84.0594 71.7598H83.9395V80.9398H84.0594V71.7598Z" fill="#14E4C0"/>
<path d="M84.1796 71.7598H84.0596V80.9398H84.1796V71.7598Z" fill="#13E4BF"/>
<path d="M84.2997 71.7598H84.1797V80.9398H84.2997V71.7598Z" fill="#12E5BF"/>
<path d="M84.4296 71.7598H84.3096V80.9398H84.4296V71.7598Z" fill="#11E5BE"/>
<path d="M84.5497 71.7598H84.4297V80.9398H84.5497V71.7598Z" fill="#10E6BE"/>
<path d="M84.6796 71.7598H84.5596V80.9398H84.6796V71.7598Z" fill="#0FE7BD"/>
<path d="M84.7997 71.7598H84.6797V80.9398H84.7997V71.7598Z" fill="#0EE7BD"/>
<path d="M84.9198 71.7598H84.7998V80.9398H84.9198V71.7598Z" fill="#0DE8BC"/>
<path d="M85.0497 71.7598H84.9297V80.9398H85.0497V71.7598Z" fill="#0CE8BC"/>
<path d="M85.1698 71.7598H85.0498V80.9398H85.1698V71.7598Z" fill="#0BE9BB"/>
<path d="M85.2997 71.7598H85.1797V80.9398H85.2997V71.7598Z" fill="#0AE9BB"/>
<path d="M85.4198 71.7598H85.2998V80.9398H85.4198V71.7598Z" fill="#09EABA"/>
<path d="M85.5399 71.7598H85.4199V80.9398H85.5399V71.7598Z" fill="#08EBBA"/>
<path d="M85.6698 71.7598H85.5498V80.9398H85.6698V71.7598Z" fill="#07EBB9"/>
<path d="M85.7899 71.7598H85.6699V80.9398H85.7899V71.7598Z" fill="#06ECB9"/>
<path d="M85.9198 71.7598H85.7998V80.9398H85.9198V71.7598Z" fill="#05ECB8"/>
<path d="M86.0399 71.7598H85.9199V80.9398H86.0399V71.7598Z" fill="#04EDB8"/>
<path d="M86.16 71.7598H86.04V80.9398H86.16V71.7598Z" fill="#03EDB7"/>
<path d="M86.2899 71.7598H86.1699V80.9398H86.2899V71.7598Z" fill="#02EEB7"/>
<path d="M86.41 71.7598H86.29V80.9398H86.41V71.7598Z" fill="#01EEB6"/>
<path d="M86.5399 71.7598H86.4199V80.9398H86.5399V71.7598Z" fill="#00EFB6"/>
</g>
<path d="M67.5103 27.5601C60.5103 27.5601 54.8203 33.2601 54.8203 40.2501C54.8203 47.2401 60.5103 52.9401 67.5103 52.9401C74.5103 52.9401 80.2003 47.2501 80.2003 40.2501C80.2003 33.2501 74.5103 27.5601 67.5103 27.5601Z" fill="white"/>
<path d="M70.4799 47.4799C70.3299 47.4799 70.2099 47.4599 70.0999 47.4099C69.9899 47.3599 69.8999 47.2999 69.8399 47.2199C69.7799 47.1399 69.7099 47.0499 69.6499 46.9499L67.3899 43.5399C67.1999 43.2299 66.9999 42.9899 66.7999 42.7999C66.5999 42.6099 66.3699 42.4799 66.1099 42.3999C65.8499 42.3199 65.5499 42.2799 65.1799 42.2799H63.2399C63.0499 42.2799 62.8999 42.2299 62.7899 42.1299C62.6799 42.0299 62.6299 41.8799 62.6299 41.6899C62.6299 41.5099 62.6799 41.3699 62.7899 41.2699C62.8999 41.1699 63.0499 41.1299 63.2399 41.1299H66.1999C67.1999 41.1299 67.9399 40.9299 68.4199 40.5299C68.8999 40.1299 69.1599 39.5299 69.1699 38.7399L69.3899 39.0299H63.2099C63.0299 39.0299 62.8899 38.9799 62.7899 38.8899C62.6899 38.7999 62.6399 38.6699 62.6399 38.5199C62.6399 38.3699 62.6899 38.2399 62.7899 38.1499C62.8899 38.0599 63.0299 38.0099 63.2099 38.0099H69.3899L69.1399 38.3199C69.0499 37.6999 68.7699 37.2199 68.2999 36.8999C67.8299 36.5799 67.1799 36.4199 66.3399 36.4199H63.2199C63.0399 36.4199 62.8999 36.3799 62.7999 36.2799C62.6999 36.1899 62.6499 36.0699 62.6499 35.9099C62.6499 35.7499 62.6999 35.6299 62.7999 35.5399C62.8999 35.4499 63.0399 35.3999 63.2199 35.3999H71.7799C71.9599 35.3999 72.0999 35.4399 72.1999 35.5399C72.2999 35.6399 72.3499 35.7499 72.3499 35.9099C72.3499 36.0699 72.2999 36.1899 72.1999 36.2799C72.0999 36.3699 71.9599 36.4199 71.7799 36.4199H68.7099L68.9999 36.1099C69.4399 36.3299 69.7899 36.6199 70.0399 36.9899C70.2899 37.3599 70.4499 37.7899 70.5099 38.2699L70.2199 38.0199H71.7799C71.9599 38.0199 72.0999 38.0699 72.1999 38.1599C72.2999 38.2499 72.3499 38.3799 72.3499 38.5299C72.3499 38.6799 72.2999 38.8099 72.1999 38.8999C72.0999 38.9899 71.9599 39.0399 71.7799 39.0399H70.2699L70.5399 38.6799C70.5699 39.4099 70.4399 40.0299 70.1199 40.5699C69.7999 41.1099 69.3499 41.5099 68.7399 41.7999C68.1299 42.0899 67.3999 42.2299 66.5199 42.2299V42.0799H66.7899C67.2199 42.0799 67.6099 42.1799 67.9499 42.3899C68.2999 42.5899 68.6299 42.9499 68.9599 43.4599L70.9599 46.4799C71.0599 46.6399 71.1099 46.7999 71.0999 46.9599C71.0899 47.1199 71.0299 47.2499 70.9199 47.3499C70.8099 47.4499 70.6599 47.4999 70.4699 47.4999L70.4799 47.4799Z" fill="black"/>
<mask id="mask5_4267_3453" style="mask-type:luminance" maskUnits="userSpaceOnUse" x="98" y="1" width="39" height="39">
<path d="M117 39.03C116.85 39.03 116.71 39.02 116.57 39C106.77 38.38 98.9902 30.21 98.9902 20.25C98.9902 10.29 107.42 1.45996 117.78 1.45996C128.14 1.45996 136.57 9.88996 136.57 20.25C136.57 30.61 128.79 38.38 118.99 39C118.85 39.01 118.7 39.02 118.56 39.03C118.3 39.03 118.04 39.04 117.78 39.04C117.52 39.04 117.27 39.04 117.01 39.03H117Z" fill="white"/>
</mask>
<g mask="url(#mask5_4267_3453)">
<path d="M99.4802 1.45996H98.9902V39.04H99.4802V1.45996Z" fill="#F5A133"/>
<path d="M99.9802 1.45996H99.4902V39.04H99.9802V1.45996Z" fill="#F5A134"/>
<path d="M100.47 1.45996H99.9805V39.04H100.47V1.45996Z" fill="#F5A035"/>
<path d="M100.97 1.45996H100.48V39.04H100.97V1.45996Z" fill="#F5A036"/>
<path d="M101.461 1.45996H100.971V39.04H101.461V1.45996Z" fill="#F49F37"/>
<path d="M101.95 1.45996H101.46V39.04H101.95V1.45996Z" fill="#F49F38"/>
<path d="M102.45 1.45996H101.96V39.04H102.45V1.45996Z" fill="#F49E39"/>
<path d="M102.94 1.45996H102.45V39.04H102.94V1.45996Z" fill="#F49E3A"/>
<path d="M103.44 1.45996H102.95V39.04H103.44V1.45996Z" fill="#F49D3B"/>
<path d="M103.93 1.45996H103.44V39.04H103.93V1.45996Z" fill="#F49D3C"/>
<path d="M104.43 1.45996H103.94V39.04H104.43V1.45996Z" fill="#F49C3D"/>
<path d="M104.921 1.45996H104.431V39.04H104.921V1.45996Z" fill="#F49C3E"/>
<path d="M105.421 1.45996H104.931V39.04H105.421V1.45996Z" fill="#F39C3F"/>
<path d="M105.91 1.45996H105.42V39.04H105.91V1.45996Z" fill="#F39B40"/>
<path d="M106.41 1.45996H105.92V39.04H106.41V1.45996Z" fill="#F39B41"/>
<path d="M106.9 1.45996H106.41V39.04H106.9V1.45996Z" fill="#F39A42"/>
<path d="M107.39 1.45996H106.9V39.04H107.39V1.45996Z" fill="#F39A43"/>
<path d="M107.89 1.45996H107.4V39.04H107.89V1.45996Z" fill="#F39944"/>
<path d="M108.381 1.45996H107.891V39.04H108.381V1.45996Z" fill="#F39945"/>
<path d="M108.881 1.45996H108.391V39.04H108.881V1.45996Z" fill="#F29846"/>
<path d="M109.37 1.45996H108.88V39.04H109.37V1.45996Z" fill="#F29847"/>
<path d="M109.87 1.45996H109.38V39.04H109.87V1.45996Z" fill="#F29748"/>
<path d="M110.36 1.45996H109.87V39.04H110.36V1.45996Z" fill="#F29749"/>
<path d="M110.86 1.45996H110.37V39.04H110.86V1.45996Z" fill="#F2974A"/>
<path d="M111.35 1.45996H110.86V39.04H111.35V1.45996Z" fill="#F2964B"/>
<path d="M111.841 1.45996H111.351V39.04H111.841V1.45996Z" fill="#F2964C"/>
<path d="M112.341 1.45996H111.851V39.04H112.341V1.45996Z" fill="#F2954D"/>
<path d="M112.83 1.45996H112.34V39.04H112.83V1.45996Z" fill="#F1954E"/>
<path d="M113.33 1.45996H112.84V39.04H113.33V1.45996Z" fill="#F1944F"/>
<path d="M113.82 1.45996H113.33V39.04H113.82V1.45996Z" fill="#F19450"/>
<path d="M114.32 1.45996H113.83V39.04H114.32V1.45996Z" fill="#F19351"/>
<path d="M114.81 1.45996H114.32V39.04H114.81V1.45996Z" fill="#F19352"/>
<path d="M115.31 1.45996H114.82V39.04H115.31V1.45996Z" fill="#F19253"/>
<path d="M115.801 1.45996H115.311V39.04H115.801V1.45996Z" fill="#F19254"/>
<path d="M116.29 1.45996H115.8V39.04H116.29V1.45996Z" fill="#F09255"/>
<path d="M116.79 1.45996H116.3V39.04H116.79V1.45996Z" fill="#F09156"/>
<path d="M117.28 1.45996H116.79V39.04H117.28V1.45996Z" fill="#F09157"/>
<path d="M117.78 1.45996H117.29V39.04H117.78V1.45996Z" fill="#F09058"/>
<path d="M118.27 1.45996H117.78V39.04H118.27V1.45996Z" fill="#F0905A"/>
<path d="M118.77 1.45996H118.28V39.04H118.77V1.45996Z" fill="#F08F5B"/>
<path d="M119.261 1.45996H118.771V39.04H119.261V1.45996Z" fill="#F08F5C"/>
<path d="M119.761 1.45996H119.271V39.04H119.761V1.45996Z" fill="#F08E5D"/>
<path d="M120.25 1.45996H119.76V39.04H120.25V1.45996Z" fill="#EF8E5E"/>
<path d="M120.74 1.45996H120.25V39.04H120.74V1.45996Z" fill="#EF8E5F"/>
<path d="M121.24 1.45996H120.75V39.04H121.24V1.45996Z" fill="#EF8D60"/>
<path d="M121.73 1.45996H121.24V39.04H121.73V1.45996Z" fill="#EF8D61"/>
<path d="M122.23 1.45996H121.74V39.04H122.23V1.45996Z" fill="#EF8C62"/>
<path d="M122.72 1.45996H122.23V39.04H122.72V1.45996Z" fill="#EF8C63"/>
<path d="M123.22 1.45996H122.73V39.04H123.22V1.45996Z" fill="#EF8B64"/>
<path d="M123.711 1.45996H123.221V39.04H123.711V1.45996Z" fill="#EE8B65"/>
<path d="M124.211 1.45996H123.721V39.04H124.211V1.45996Z" fill="#EE8A66"/>
<path d="M124.7 1.45996H124.21V39.04H124.7V1.45996Z" fill="#EE8A67"/>
<path d="M125.19 1.45996H124.7V39.04H125.19V1.45996Z" fill="#EE8968"/>
<path d="M125.69 1.45996H125.2V39.04H125.69V1.45996Z" fill="#EE8969"/>
<path d="M126.18 1.45996H125.69V39.04H126.18V1.45996Z" fill="#EE896A"/>
<path d="M126.68 1.45996H126.19V39.04H126.68V1.45996Z" fill="#EE886B"/>
<path d="M127.171 1.45996H126.681V39.04H127.171V1.45996Z" fill="#EE886C"/>
<path d="M127.671 1.45996H127.181V39.04H127.671V1.45996Z" fill="#ED876D"/>
<path d="M128.16 1.45996H127.67V39.04H128.16V1.45996Z" fill="#ED876E"/>
<path d="M128.66 1.45996H128.17V39.04H128.66V1.45996Z" fill="#ED866F"/>
<path d="M129.15 1.45996H128.66V39.04H129.15V1.45996Z" fill="#ED8670"/>
<path d="M129.65 1.45996H129.16V39.04H129.65V1.45996Z" fill="#ED8571"/>
<path d="M130.14 1.45996H129.65V39.04H130.14V1.45996Z" fill="#ED8572"/>
<path d="M130.631 1.45996H130.141V39.04H130.631V1.45996Z" fill="#ED8473"/>
<path d="M131.131 1.45996H130.641V39.04H131.131V1.45996Z" fill="#EC8474"/>
<path d="M131.62 1.45996H131.13V39.04H131.62V1.45996Z" fill="#EC8475"/>
<path d="M132.12 1.45996H131.63V39.04H132.12V1.45996Z" fill="#EC8376"/>
<path d="M132.61 1.45996H132.12V39.04H132.61V1.45996Z" fill="#EC8377"/>
<path d="M133.11 1.45996H132.62V39.04H133.11V1.45996Z" fill="#EC8278"/>
<path d="M133.6 1.45996H133.11V39.04H133.6V1.45996Z" fill="#EC8279"/>
<path d="M134.1 1.45996H133.61V39.04H134.1V1.45996Z" fill="#EC817A"/>
<path d="M134.591 1.45996H134.101V39.04H134.591V1.45996Z" fill="#EC817B"/>
<path d="M135.08 1.45996H134.59V39.04H135.08V1.45996Z" fill="#EB807C"/>
<path d="M135.58 1.45996H135.09V39.04H135.58V1.45996Z" fill="#EB807D"/>
<path d="M136.07 1.45996H135.58V39.04H136.07V1.45996Z" fill="#EB7F7E"/>
<path d="M136.57 1.45996H136.08V39.04H136.57V1.45996Z" fill="#EB7F7F"/>
</g>
<path d="M117.78 7.5601C110.78 7.5601 105.09 13.2601 105.09 20.2501C105.09 27.2401 110.78 32.9401 117.78 32.9401C124.78 32.9401 130.47 27.2501 130.47 20.2501C130.47 13.2501 124.78 7.5601 117.78 7.5601ZM103.63 20.2501C103.63 12.4501 109.98 6.1001 117.78 6.1001C125.58 6.1001 131.93 12.4501 131.93 20.2501C131.93 28.0501 125.59 34.4001 117.78 34.4001C109.97 34.4001 103.63 28.0601 103.63 20.2501Z" fill="black"/>
<path d="M118.51 40.48C118.63 40.48 118.74 40.48 118.87 40.47C118.99 40.47 119.1 40.47 119.23 40.45C129.73 39.71 138.04 30.94 138.04 20.26C138.04 9.58 128.95 0 117.78 0C106.61 0 97.5303 9.08 97.5303 20.25C97.5303 31.42 105.85 39.71 116.34 40.44C116.46 40.45 116.57 40.46 116.7 40.47C116.82 40.47 116.93 40.48 117.06 40.47V109.4H105.67C105.27 109.4 104.95 109.73 104.95 110.13C104.95 110.53 105.28 110.86 105.67 110.86H129.89C130.09 110.86 130.27 110.78 130.41 110.65C130.55 110.51 130.62 110.32 130.62 110.13C130.62 109.73 130.29 109.4 129.89 109.4H118.51V40.48C118.27 40.49 118.02 40.5 117.78 40.5C117.56 40.5 117.34 40.5 117.13 40.48C117.35 40.49 117.57 40.5 117.78 40.5C118.02 40.5 118.27 40.5 118.51 40.48ZM117 39.03C116.85 39.03 116.71 39.02 116.57 39C106.77 38.38 98.9903 30.21 98.9903 20.25C98.9903 10.29 107.42 1.46 117.78 1.46C128.14 1.46 136.57 9.89 136.57 20.25C136.57 30.61 128.79 38.38 118.99 39C118.85 39.01 118.7 39.02 118.56 39.03C118.3 39.03 118.04 39.04 117.78 39.04C117.52 39.04 117.27 39.04 117.01 39.03H117Z" fill="black"/>
<path d="M98.2098 47.4498C99.0898 49.6898 101.89 54.8898 108.76 54.8898C110.73 54.8898 112.93 54.4498 115.28 53.5798L115.68 53.4298L115.45 53.0598C114.07 50.8398 110.21 45.7098 104.01 45.7098C102.21 45.7098 100.32 46.1398 98.3798 46.9898L98.0698 47.1198L98.1998 47.4398L98.2098 47.4498ZM108.76 56.3498C99.1398 56.3498 96.5198 47.0398 96.4898 46.9498C96.3998 46.6198 96.5598 46.2598 96.8698 46.0998C99.3198 44.8798 101.73 44.2598 104.02 44.2598C112.81 44.2598 117.19 53.1098 117.37 53.4898C117.46 53.6698 117.46 53.8798 117.39 54.0698C117.33 54.2498 117.18 54.4098 116.99 54.4798C114.02 55.7298 111.24 56.3598 108.75 56.3598L108.76 56.3498Z" fill="black"/>
<mask id="mask6_4267_3453" style="mask-type:luminance" maskUnits="userSpaceOnUse" x="98" y="45" width="18" height="10">
<path d="M98.2103 47.45C99.0903 49.69 101.89 54.89 108.76 54.89C110.73 54.89 112.93 54.45 115.28 53.58L115.68 53.43L115.45 53.06C114.07 50.84 110.21 45.71 104.01 45.71C102.21 45.71 100.32 46.14 98.3803 46.99L98.0703 47.12L98.2003 47.44L98.2103 47.45Z" fill="white"/>
</mask>
<g mask="url(#mask6_4267_3453)">
<path d="M98.2001 45.7197H98.0801V54.8997H98.2001V45.7197Z" fill="#8EA0FA"/>
<path d="M98.33 45.7197H98.21V54.8997H98.33V45.7197Z" fill="#8DA1FA"/>
<path d="M98.4501 45.7197H98.3301V54.8997H98.4501V45.7197Z" fill="#8CA1F9"/>
<path d="M98.58 45.7197H98.46V54.8997H98.58V45.7197Z" fill="#8BA2F9"/>
<path d="M98.7001 45.7197H98.5801V54.8997H98.7001V45.7197Z" fill="#8AA2F8"/>
<path d="M98.8202 45.7197H98.7002V54.8997H98.8202V45.7197Z" fill="#89A3F8"/>
<path d="M98.9501 45.7197H98.8301V54.8997H98.9501V45.7197Z" fill="#88A3F7"/>
<path d="M99.0702 45.7197H98.9502V54.8997H99.0702V45.7197Z" fill="#87A4F7"/>
<path d="M99.2001 45.7197H99.0801V54.8997H99.2001V45.7197Z" fill="#86A4F6"/>
<path d="M99.3202 45.7197H99.2002V54.8997H99.3202V45.7197Z" fill="#85A5F6"/>
<path d="M99.4403 45.7197H99.3203V54.8997H99.4403V45.7197Z" fill="#84A6F5"/>
<path d="M99.5702 45.7197H99.4502V54.8997H99.5702V45.7197Z" fill="#83A6F5"/>
<path d="M99.6903 45.7197H99.5703V54.8997H99.6903V45.7197Z" fill="#82A7F4"/>
<path d="M99.8202 45.7197H99.7002V54.8997H99.8202V45.7197Z" fill="#81A7F4"/>
<path d="M99.9403 45.7197H99.8203V54.8997H99.9403V45.7197Z" fill="#80A8F3"/>
<path d="M100.06 45.7197H99.9404V54.8997H100.06V45.7197Z" fill="#7FA8F3"/>
<path d="M100.19 45.7197H100.07V54.8997H100.19V45.7197Z" fill="#7EA9F2"/>
<path d="M100.31 45.7197H100.19V54.8997H100.31V45.7197Z" fill="#7DAAF2"/>
<path d="M100.44 45.7197H100.32V54.8997H100.44V45.7197Z" fill="#7CAAF1"/>
<path d="M100.56 45.7197H100.44V54.8997H100.56V45.7197Z" fill="#7BABF1"/>
<path d="M100.681 45.7197H100.561V54.8997H100.681V45.7197Z" fill="#7AABF0"/>
<path d="M100.81 45.7197H100.69V54.8997H100.81V45.7197Z" fill="#79ACF0"/>
<path d="M100.931 45.7197H100.811V54.8997H100.931V45.7197Z" fill="#78ACEF"/>
<path d="M101.06 45.7197H100.94V54.8997H101.06V45.7197Z" fill="#77ADEF"/>
<path d="M101.181 45.7197H101.061V54.8997H101.181V45.7197Z" fill="#76ADEE"/>
<path d="M101.3 45.7197H101.18V54.8997H101.3V45.7197Z" fill="#75AEEE"/>
<path d="M101.431 45.7197H101.311V54.8997H101.431V45.7197Z" fill="#74AFED"/>
<path d="M101.55 45.7197H101.43V54.8997H101.55V45.7197Z" fill="#73AFED"/>
<path d="M101.681 45.7197H101.561V54.8997H101.681V45.7197Z" fill="#72B0EC"/>
<path d="M101.8 45.7197H101.68V54.8997H101.8V45.7197Z" fill="#71B0EC"/>
<path d="M101.92 45.7197H101.8V54.8997H101.92V45.7197Z" fill="#70B1EC"/>
<path d="M102.05 45.7197H101.93V54.8997H102.05V45.7197Z" fill="#6FB1EB"/>
<path d="M102.17 45.7197H102.05V54.8997H102.17V45.7197Z" fill="#6EB2EB"/>
<path d="M102.3 45.7197H102.18V54.8997H102.3V45.7197Z" fill="#6DB2EA"/>
<path d="M102.42 45.7197H102.3V54.8997H102.42V45.7197Z" fill="#6CB3EA"/>
<path d="M102.54 45.7197H102.42V54.8997H102.54V45.7197Z" fill="#6BB4E9"/>
<path d="M102.67 45.7197H102.55V54.8997H102.67V45.7197Z" fill="#6AB4E9"/>
<path d="M102.79 45.7197H102.67V54.8997H102.79V45.7197Z" fill="#69B5E8"/>
<path d="M102.92 45.7197H102.8V54.8997H102.92V45.7197Z" fill="#68B5E8"/>
<path d="M103.04 45.7197H102.92V54.8997H103.04V45.7197Z" fill="#67B6E7"/>
<path d="M103.16 45.7197H103.04V54.8997H103.16V45.7197Z" fill="#66B6E7"/>
<path d="M103.29 45.7197H103.17V54.8997H103.29V45.7197Z" fill="#65B7E6"/>
<path d="M103.41 45.7197H103.29V54.8997H103.41V45.7197Z" fill="#64B8E6"/>
<path d="M103.54 45.7197H103.42V54.8997H103.54V45.7197Z" fill="#63B8E5"/>
<path d="M103.66 45.7197H103.54V54.8997H103.66V45.7197Z" fill="#62B9E5"/>
<path d="M103.78 45.7197H103.66V54.8997H103.78V45.7197Z" fill="#61B9E4"/>
<path d="M103.91 45.7197H103.79V54.8997H103.91V45.7197Z" fill="#60BAE4"/>
<path d="M104.03 45.7197H103.91V54.8997H104.03V45.7197Z" fill="#5FBAE3"/>
<path d="M104.16 45.7197H104.04V54.8997H104.16V45.7197Z" fill="#5EBBE3"/>
<path d="M104.28 45.7197H104.16V54.8997H104.28V45.7197Z" fill="#5DBBE2"/>
<path d="M104.4 45.7197H104.28V54.8997H104.4V45.7197Z" fill="#5CBCE2"/>
<path d="M104.53 45.7197H104.41V54.8997H104.53V45.7197Z" fill="#5BBDE1"/>
<path d="M104.65 45.7197H104.53V54.8997H104.65V45.7197Z" fill="#5ABDE1"/>
<path d="M104.78 45.7197H104.66V54.8997H104.78V45.7197Z" fill="#59BEE0"/>
<path d="M104.9 45.7197H104.78V54.8997H104.9V45.7197Z" fill="#58BEE0"/>
<path d="M105.02 45.7197H104.9V54.8997H105.02V45.7197Z" fill="#57BFDF"/>
<path d="M105.15 45.7197H105.03V54.8997H105.15V45.7197Z" fill="#56BFDF"/>
<path d="M105.27 45.7197H105.15V54.8997H105.27V45.7197Z" fill="#55C0DF"/>
<path d="M105.4 45.7197H105.28V54.8997H105.4V45.7197Z" fill="#54C0DE"/>
<path d="M105.52 45.7197H105.4V54.8997H105.52V45.7197Z" fill="#53C1DE"/>
<path d="M105.641 45.7197H105.521V54.8997H105.641V45.7197Z" fill="#52C2DD"/>
<path d="M105.77 45.7197H105.65V54.8997H105.77V45.7197Z" fill="#51C2DD"/>
<path d="M105.891 45.7197H105.771V54.8997H105.891V45.7197Z" fill="#50C3DC"/>
<path d="M106.02 45.7197H105.9V54.8997H106.02V45.7197Z" fill="#4FC3DC"/>
<path d="M106.141 45.7197H106.021V54.8997H106.141V45.7197Z" fill="#4EC4DB"/>
<path d="M106.26 45.7197H106.14V54.8997H106.26V45.7197Z" fill="#4DC4DB"/>
<path d="M106.391 45.7197H106.271V54.8997H106.391V45.7197Z" fill="#4CC5DA"/>
<path d="M106.51 45.7197H106.39V54.8997H106.51V45.7197Z" fill="#4BC6DA"/>
<path d="M106.641 45.7197H106.521V54.8997H106.641V45.7197Z" fill="#4AC6D9"/>
<path d="M106.76 45.7197H106.64V54.8997H106.76V45.7197Z" fill="#49C7D9"/>
<path d="M106.88 45.7197H106.76V54.8997H106.88V45.7197Z" fill="#48C7D8"/>
<path d="M107.01 45.7197H106.89V54.8997H107.01V45.7197Z" fill="#46C8D8"/>
<path d="M107.13 45.7197H107.01V54.8997H107.13V45.7197Z" fill="#45C8D7"/>
<path d="M107.26 45.7197H107.14V54.8997H107.26V45.7197Z" fill="#44C9D7"/>
<path d="M107.38 45.7197H107.26V54.8997H107.38V45.7197Z" fill="#43C9D6"/>
<path d="M107.5 45.7197H107.38V54.8997H107.5V45.7197Z" fill="#42CAD6"/>
<path d="M107.63 45.7197H107.51V54.8997H107.63V45.7197Z" fill="#41CBD5"/>
<path d="M107.75 45.7197H107.63V54.8997H107.75V45.7197Z" fill="#40CBD5"/>
<path d="M107.88 45.7197H107.76V54.8997H107.88V45.7197Z" fill="#3FCCD4"/>
<path d="M108 45.7197H107.88V54.8997H108V45.7197Z" fill="#3ECCD4"/>
<path d="M108.12 45.7197H108V54.8997H108.12V45.7197Z" fill="#3DCDD3"/>
<path d="M108.25 45.7197H108.13V54.8997H108.25V45.7197Z" fill="#3CCDD3"/>
<path d="M108.37 45.7197H108.25V54.8997H108.37V45.7197Z" fill="#3BCED2"/>
<path d="M108.5 45.7197H108.38V54.8997H108.5V45.7197Z" fill="#3ACFD2"/>
<path d="M108.62 45.7197H108.5V54.8997H108.62V45.7197Z" fill="#39CFD1"/>
<path d="M108.74 45.7197H108.62V54.8997H108.74V45.7197Z" fill="#38D0D1"/>
<path d="M108.87 45.7197H108.75V54.8997H108.87V45.7197Z" fill="#37D0D1"/>
<path d="M108.99 45.7197H108.87V54.8997H108.99V45.7197Z" fill="#36D1D0"/>
<path d="M109.12 45.7197H109V54.8997H109.12V45.7197Z" fill="#35D1D0"/>
<path d="M109.24 45.7197H109.12V54.8997H109.24V45.7197Z" fill="#34D2CF"/>
<path d="M109.36 45.7197H109.24V54.8997H109.36V45.7197Z" fill="#33D2CF"/>
<path d="M109.49 45.7197H109.37V54.8997H109.49V45.7197Z" fill="#32D3CE"/>
<path d="M109.61 45.7197H109.49V54.8997H109.61V45.7197Z" fill="#31D4CE"/>
<path d="M109.74 45.7197H109.62V54.8997H109.74V45.7197Z" fill="#30D4CD"/>
<path d="M109.86 45.7197H109.74V54.8997H109.86V45.7197Z" fill="#2FD5CD"/>
<path d="M109.98 45.7197H109.86V54.8997H109.98V45.7197Z" fill="#2ED5CC"/>
<path d="M110.11 45.7197H109.99V54.8997H110.11V45.7197Z" fill="#2DD6CC"/>
<path d="M110.23 45.7197H110.11V54.8997H110.23V45.7197Z" fill="#2CD6CB"/>
<path d="M110.36 45.7197H110.24V54.8997H110.36V45.7197Z" fill="#2BD7CB"/>
<path d="M110.48 45.7197H110.36V54.8997H110.48V45.7197Z" fill="#2AD7CA"/>
<path d="M110.6 45.7197H110.48V54.8997H110.6V45.7197Z" fill="#29D8CA"/>
<path d="M110.73 45.7197H110.61V54.8997H110.73V45.7197Z" fill="#28D9C9"/>
<path d="M110.85 45.7197H110.73V54.8997H110.85V45.7197Z" fill="#27D9C9"/>
<path d="M110.98 45.7197H110.86V54.8997H110.98V45.7197Z" fill="#26DAC8"/>
<path d="M111.1 45.7197H110.98V54.8997H111.1V45.7197Z" fill="#25DAC8"/>
<path d="M111.22 45.7197H111.1V54.8997H111.22V45.7197Z" fill="#24DBC7"/>
<path d="M111.35 45.7197H111.23V54.8997H111.35V45.7197Z" fill="#23DBC7"/>
<path d="M111.47 45.7197H111.35V54.8997H111.47V45.7197Z" fill="#22DCC6"/>
<path d="M111.6 45.7197H111.48V54.8997H111.6V45.7197Z" fill="#21DDC6"/>
<path d="M111.72 45.7197H111.6V54.8997H111.72V45.7197Z" fill="#20DDC5"/>
<path d="M111.84 45.7197H111.72V54.8997H111.84V45.7197Z" fill="#1FDEC5"/>
<path d="M111.97 45.7197H111.85V54.8997H111.97V45.7197Z" fill="#1EDEC4"/>
<path d="M112.09 45.7197H111.97V54.8997H112.09V45.7197Z" fill="#1DDFC4"/>
<path d="M112.22 45.7197H112.1V54.8997H112.22V45.7197Z" fill="#1CDFC4"/>
<path d="M112.34 45.7197H112.22V54.8997H112.34V45.7197Z" fill="#1BE0C3"/>
<path d="M112.46 45.7197H112.34V54.8997H112.46V45.7197Z" fill="#1AE0C3"/>
<path d="M112.59 45.7197H112.47V54.8997H112.59V45.7197Z" fill="#19E1C2"/>
<path d="M112.71 45.7197H112.59V54.8997H112.71V45.7197Z" fill="#18E2C2"/>
<path d="M112.84 45.7197H112.72V54.8997H112.84V45.7197Z" fill="#17E2C1"/>
<path d="M112.96 45.7197H112.84V54.8997H112.96V45.7197Z" fill="#16E3C1"/>
<path d="M113.08 45.7197H112.96V54.8997H113.08V45.7197Z" fill="#15E3C0"/>
<path d="M113.21 45.7197H113.09V54.8997H113.21V45.7197Z" fill="#14E4C0"/>
<path d="M113.33 45.7197H113.21V54.8997H113.33V45.7197Z" fill="#13E4BF"/>
<path d="M113.46 45.7197H113.34V54.8997H113.46V45.7197Z" fill="#12E5BF"/>
<path d="M113.58 45.7197H113.46V54.8997H113.58V45.7197Z" fill="#11E5BE"/>
<path d="M113.7 45.7197H113.58V54.8997H113.7V45.7197Z" fill="#10E6BE"/>
<path d="M113.83 45.7197H113.71V54.8997H113.83V45.7197Z" fill="#0FE7BD"/>
<path d="M113.95 45.7197H113.83V54.8997H113.95V45.7197Z" fill="#0EE7BD"/>
<path d="M114.08 45.7197H113.96V54.8997H114.08V45.7197Z" fill="#0DE8BC"/>
<path d="M114.2 45.7197H114.08V54.8997H114.2V45.7197Z" fill="#0CE8BC"/>
<path d="M114.32 45.7197H114.2V54.8997H114.32V45.7197Z" fill="#0BE9BB"/>
<path d="M114.45 45.7197H114.33V54.8997H114.45V45.7197Z" fill="#0AE9BB"/>
<path d="M114.57 45.7197H114.45V54.8997H114.57V45.7197Z" fill="#09EABA"/>
<path d="M114.7 45.7197H114.58V54.8997H114.7V45.7197Z" fill="#08EBBA"/>
<path d="M114.82 45.7197H114.7V54.8997H114.82V45.7197Z" fill="#07EBB9"/>
<path d="M114.94 45.7197H114.82V54.8997H114.94V45.7197Z" fill="#06ECB9"/>
<path d="M115.07 45.7197H114.95V54.8997H115.07V45.7197Z" fill="#05ECB8"/>
<path d="M115.19 45.7197H115.07V54.8997H115.19V45.7197Z" fill="#04EDB8"/>
<path d="M115.32 45.7197H115.2V54.8997H115.32V45.7197Z" fill="#03EDB7"/>
<path d="M115.44 45.7197H115.32V54.8997H115.44V45.7197Z" fill="#02EEB7"/>
<path d="M115.56 45.7197H115.44V54.8997H115.56V45.7197Z" fill="#01EEB6"/>
<path d="M115.69 45.7197H115.57V54.8997H115.69V45.7197Z" fill="#00EFB6"/>
</g>
<path d="M117.78 7.56006C110.78 7.56006 105.09 13.2601 105.09 20.2501C105.09 27.2401 110.78 32.9401 117.78 32.9401C124.78 32.9401 130.47 27.2501 130.47 20.2501C130.47 13.2501 124.78 7.56006 117.78 7.56006Z" fill="white"/>
<path d="M120.75 27.4799C120.6 27.4799 120.48 27.4599 120.37 27.4099C120.26 27.3599 120.17 27.2999 120.11 27.2199C120.05 27.1399 119.98 27.0499 119.92 26.9499L117.66 23.5399C117.47 23.2299 117.27 22.9899 117.07 22.7999C116.87 22.6099 116.64 22.4799 116.38 22.3999C116.12 22.3199 115.82 22.2799 115.45 22.2799H113.51C113.32 22.2799 113.17 22.2299 113.06 22.1299C112.95 22.0299 112.9 21.8799 112.9 21.6899C112.9 21.5099 112.95 21.3699 113.06 21.2699C113.17 21.1699 113.32 21.1299 113.51 21.1299H116.47C117.47 21.1299 118.21 20.9299 118.69 20.5299C119.17 20.1299 119.43 19.5299 119.44 18.7399L119.66 19.0299H113.48C113.3 19.0299 113.16 18.9799 113.06 18.8899C112.96 18.7999 112.91 18.6699 112.91 18.5199C112.91 18.3699 112.96 18.2399 113.06 18.1499C113.16 18.0599 113.3 18.0099 113.48 18.0099H119.66L119.41 18.3199C119.32 17.6999 119.04 17.2199 118.57 16.8999C118.1 16.5799 117.45 16.4199 116.61 16.4199H113.49C113.31 16.4199 113.17 16.3799 113.07 16.2799C112.97 16.1899 112.92 16.0699 112.92 15.9099C112.92 15.7499 112.97 15.6299 113.07 15.5399C113.17 15.4499 113.31 15.3999 113.49 15.3999H122.05C122.23 15.3999 122.37 15.4399 122.47 15.5399C122.57 15.6399 122.62 15.7499 122.62 15.9099C122.62 16.0699 122.57 16.1899 122.47 16.2799C122.37 16.3699 122.23 16.4199 122.05 16.4199H118.98L119.27 16.1099C119.71 16.3299 120.06 16.6199 120.31 16.9899C120.56 17.3599 120.72 17.7899 120.78 18.2699L120.49 18.0199H122.05C122.23 18.0199 122.37 18.0699 122.47 18.1599C122.57 18.2499 122.62 18.3799 122.62 18.5299C122.62 18.6799 122.57 18.8099 122.47 18.8999C122.37 18.9899 122.23 19.0399 122.05 19.0399H120.54L120.81 18.6799C120.84 19.4099 120.71 20.0299 120.39 20.5699C120.07 21.1099 119.62 21.5099 119.01 21.7999C118.4 22.0899 117.67 22.2299 116.79 22.2299V22.0799H117.06C117.49 22.0799 117.88 22.1799 118.22 22.3899C118.57 22.5899 118.9 22.9499 119.23 23.4599L121.23 26.4799C121.33 26.6399 121.38 26.7999 121.37 26.9599C121.36 27.1199 121.3 27.2499 121.19 27.3499C121.08 27.4499 120.93 27.4999 120.74 27.4999L120.75 27.4799Z" fill="black"/>
</g>
<defs>
<clipPath id="clip0_4267_3453">
<rect width="138.03" height="110.87" fill="white"/>
</clipPath>
</defs>
</svg>
