<svg width="99" height="127" viewBox="0 0 99 127" fill="none" xmlns="http://www.w3.org/2000/svg">
<g clip-path="url(#clip0_4267_4267)">
<mask id="mask0_4267_4267" style="mask-type:luminance" maskUnits="userSpaceOnUse" x="6" y="27" width="16" height="19">
<path d="M20.2103 34.9098C20.2103 34.9098 22.2303 31.5698 21.5103 29.7998C20.7903 28.0298 18.6303 26.2698 16.8003 28.5598C14.9703 30.8498 11.8903 35.4298 9.14034 40.4098C6.39034 45.3898 5.93034 45.4498 7.70034 45.7098" fill="white"/>
</mask>
<g mask="url(#mask0_4267_4267)">
<path d="M7.08039 26.27H6.65039V45.71H7.08039V26.27Z" fill="#EBCEBC"/>
<path d="M7.51105 26.27H7.08105V45.71H7.51105V26.27Z" fill="#ECCFBD"/>
<path d="M7.94074 26.27H7.51074V45.71H7.94074V26.27Z" fill="#ECD0BD"/>
<path d="M8.37043 26.27H7.94043V45.71H8.37043V26.27Z" fill="#EDD1BE"/>
<path d="M8.80109 26.27H8.37109V45.71H8.80109V26.27Z" fill="#EDD2BF"/>
<path d="M9.23078 26.27H8.80078V45.71H9.23078V26.27Z" fill="#EED3C0"/>
<path d="M9.66047 26.27H9.23047V45.71H9.66047V26.27Z" fill="#EFD4C0"/>
<path d="M10.0804 26.27H9.65039V45.71H10.0804V26.27Z" fill="#EFD5C1"/>
<path d="M10.5111 26.27H10.0811V45.71H10.5111V26.27Z" fill="#F0D6C2"/>
<path d="M10.9407 26.27H10.5107V45.71H10.9407V26.27Z" fill="#F0D7C3"/>
<path d="M11.3704 26.27H10.9404V45.71H11.3704V26.27Z" fill="#F1D8C3"/>
<path d="M11.8011 26.27H11.3711V45.71H11.8011V26.27Z" fill="#F1D9C4"/>
<path d="M12.2308 26.27H11.8008V45.71H12.2308V26.27Z" fill="#F2DAC5"/>
<path d="M12.6605 26.27H12.2305V45.71H12.6605V26.27Z" fill="#F3DBC6"/>
<path d="M13.0911 26.27H12.6611V45.71H13.0911V26.27Z" fill="#F3DCC6"/>
<path d="M13.5208 26.27H13.0908V45.71H13.5208V26.27Z" fill="#F4DDC7"/>
<path d="M13.9505 26.27H13.5205V45.71H13.9505V26.27Z" fill="#F4DEC8"/>
<path d="M14.3704 26.27H13.9404V45.71H14.3704V26.27Z" fill="#F5E0C9"/>
<path d="M14.8011 26.27H14.3711V45.71H14.8011V26.27Z" fill="#F6E1C9"/>
<path d="M15.2308 26.27H14.8008V45.71H15.2308V26.27Z" fill="#F6E2CA"/>
<path d="M15.6605 26.27H15.2305V45.71H15.6605V26.27Z" fill="#F7E3CB"/>
<path d="M16.0911 26.27H15.6611V45.71H16.0911V26.27Z" fill="#F7E4CB"/>
<path d="M16.5208 26.27H16.0908V45.71H16.5208V26.27Z" fill="#F8E5CC"/>
<path d="M16.9505 26.27H16.5205V45.71H16.9505V26.27Z" fill="#F9E6CD"/>
<path d="M17.3802 26.27H16.9502V45.71H17.3802V26.27Z" fill="#F9E7CE"/>
<path d="M17.8109 26.27H17.3809V45.71H17.8109V26.27Z" fill="#FAE8CE"/>
<path d="M18.2405 26.27H17.8105V45.71H18.2405V26.27Z" fill="#FAE9CF"/>
<path d="M18.6605 26.27H18.2305V45.71H18.6605V26.27Z" fill="#FBEAD0"/>
<path d="M19.0911 26.27H18.6611V45.71H19.0911V26.27Z" fill="#FBEBD1"/>
<path d="M19.5208 26.27H19.0908V45.71H19.5208V26.27Z" fill="#FCECD1"/>
<path d="M19.9505 26.27H19.5205V45.71H19.9505V26.27Z" fill="#FDEDD2"/>
<path d="M20.3802 26.27H19.9502V45.71H20.3802V26.27Z" fill="#FDEED3"/>
<path d="M20.8109 26.27H20.3809V45.71H20.8109V26.27Z" fill="#FEEFD4"/>
<path d="M21.2405 26.27H20.8105V45.71H21.2405V26.27Z" fill="#FEF0D4"/>
<path d="M21.6702 26.27H21.2402V45.71H21.6702V26.27Z" fill="#FFF1D5"/>
</g>
<path d="M7.63009 46.2098C7.01009 46.1198 6.47009 46.0398 6.24009 45.5698C5.96009 44.9998 6.31009 44.3998 7.45009 42.3998C7.80009 41.7898 8.22009 41.0598 8.71009 40.1698C11.5301 35.0598 14.6101 30.4998 16.4201 28.2498C17.3901 27.0398 18.4001 26.8998 19.0701 26.9998C20.4201 27.1898 21.5001 28.4498 21.9801 29.6198C22.7801 31.5598 20.8701 34.8098 20.6501 35.1698L19.7901 34.6498C20.3201 33.7798 21.5701 31.2498 21.0501 29.9898C20.6901 29.1198 19.8701 28.1198 18.9201 27.9798C18.3201 27.8898 17.7301 28.1898 17.1901 28.8698C15.4101 31.0898 12.3701 35.5898 9.58009 40.6498C9.08009 41.5498 8.66009 42.2898 8.31009 42.8998C7.72009 43.9398 7.24009 44.7798 7.16009 45.0998C7.31009 45.1498 7.61009 45.1898 7.77009 45.2198L7.62009 46.2098H7.63009Z" fill="#231E1E"/>
<mask id="mask1_4267_4267" style="mask-type:luminance" maskUnits="userSpaceOnUse" x="1" y="32" width="37" height="81">
<path d="M15.35 112.82C15.35 112.82 17.63 110.69 15.35 102.18C13.07 93.6702 12.92 90.1802 8.51002 84.5502C4.10002 78.9302 2.38419e-05 72.5502 1.22002 67.6902C2.44002 62.8302 3.65002 56.6002 4.11002 53.1002C4.57002 49.6002 3.27002 46.6202 12.24 39.4802C21.21 32.3402 23.41 31.3702 25.84 32.7402C28.27 34.1102 28.12 36.8402 24.32 39.7302C20.52 42.6202 16.57 47.0202 15.35 52.1902C15.35 52.1902 17.02 69.4402 18.54 72.5902C20.06 75.7402 33.89 103.4 34.5 105.83C35.11 108.26 38.75 112.67 36.78 112.82C34.8 112.97 15.35 112.82 15.35 112.82Z" fill="white"/>
</mask>
<g mask="url(#mask1_4267_4267)">
<path d="M2.04 31.3701H1V112.97H2.04V31.3701Z" fill="#EBCEBC"/>
<path d="M3.08004 31.3701H2.04004V112.97H3.08004V31.3701Z" fill="#ECCFBD"/>
<path d="M4.12008 31.3701H3.08008V112.97H4.12008V31.3701Z" fill="#ECD0BD"/>
<path d="M5.16012 31.3701H4.12012V112.97H5.16012V31.3701Z" fill="#EDD1BE"/>
<path d="M6.19039 31.3701H5.15039V112.97H6.19039V31.3701Z" fill="#EDD2BF"/>
<path d="M7.23043 31.3701H6.19043V112.97H7.23043V31.3701Z" fill="#EED3C0"/>
<path d="M8.27047 31.3701H7.23047V112.97H8.27047V31.3701Z" fill="#EFD4C0"/>
<path d="M9.30953 31.3701H8.26953V112.97H9.30953V31.3701Z" fill="#EFD5C1"/>
<path d="M10.3496 31.3701H9.30957V112.97H10.3496V31.3701Z" fill="#F0D6C2"/>
<path d="M11.3896 31.3701H10.3496V112.97H11.3896V31.3701Z" fill="#F0D7C3"/>
<path d="M12.4296 31.3701H11.3896V112.97H12.4296V31.3701Z" fill="#F1D8C3"/>
<path d="M13.4697 31.3701H12.4297V112.97H13.4697V31.3701Z" fill="#F1D9C4"/>
<path d="M14.5 31.3701H13.46V112.97H14.5V31.3701Z" fill="#F2DAC5"/>
<path d="M15.54 31.3701H14.5V112.97H15.54V31.3701Z" fill="#F3DBC6"/>
<path d="M16.58 31.3701H15.54V112.97H16.58V31.3701Z" fill="#F3DCC6"/>
<path d="M17.6201 31.3701H16.5801V112.97H17.6201V31.3701Z" fill="#F4DDC7"/>
<path d="M18.6601 31.3701H17.6201V112.97H18.6601V31.3701Z" fill="#F4DEC8"/>
<path d="M19.7002 31.3701H18.6602V112.97H19.7002V31.3701Z" fill="#F5E0C9"/>
<path d="M20.7402 31.3701H19.7002V112.97H20.7402V31.3701Z" fill="#F6E1C9"/>
<path d="M21.7802 31.3701H20.7402V112.97H21.7802V31.3701Z" fill="#F6E2CA"/>
<path d="M22.8095 31.3701H21.7695V112.97H22.8095V31.3701Z" fill="#F7E3CB"/>
<path d="M23.8496 31.3701H22.8096V112.97H23.8496V31.3701Z" fill="#F7E4CB"/>
<path d="M24.8896 31.3701H23.8496V112.97H24.8896V31.3701Z" fill="#F8E5CC"/>
<path d="M25.9296 31.3701H24.8896V112.97H25.9296V31.3701Z" fill="#F9E6CD"/>
<path d="M26.9697 31.3701H25.9297V112.97H26.9697V31.3701Z" fill="#F9E7CE"/>
<path d="M28.0097 31.3701H26.9697V112.97H28.0097V31.3701Z" fill="#FAE8CE"/>
<path d="M29.0498 31.3701H28.0098V112.97H29.0498V31.3701Z" fill="#FAE9CF"/>
<path d="M30.0898 31.3701H29.0498V112.97H30.0898V31.3701Z" fill="#FBEAD0"/>
<path d="M31.1201 31.3701H30.0801V112.97H31.1201V31.3701Z" fill="#FBEBD1"/>
<path d="M32.1601 31.3701H31.1201V112.97H32.1601V31.3701Z" fill="#FCECD1"/>
<path d="M33.2002 31.3701H32.1602V112.97H33.2002V31.3701Z" fill="#FDEDD2"/>
<path d="M34.2402 31.3701H33.2002V112.97H34.2402V31.3701Z" fill="#FDEED3"/>
<path d="M35.2802 31.3701H34.2402V112.97H35.2802V31.3701Z" fill="#FEEFD4"/>
<path d="M36.3203 31.3701H35.2803V112.97H36.3203V31.3701Z" fill="#FEF0D4"/>
<path d="M37.3603 31.3701H36.3203V112.97H37.3603V31.3701Z" fill="#FFF1D5"/>
<path d="M38.7396 31.3701H37.3496V112.97H38.7396V31.3701Z" fill="#FFF1D5"/>
</g>
<path d="M30.2896 113.39C24.1296 113.39 15.8596 113.33 15.3396 113.32H14.0896L14.9996 112.46C15.0696 112.39 16.9796 110.21 14.8596 102.31C14.4196 100.68 14.0596 99.23 13.7396 97.91C12.3696 92.37 11.6096 89.32 8.10958 84.86C3.97958 79.59 -0.600423 72.85 0.719577 67.56C1.88958 62.88 3.12958 56.63 3.59958 53.03C3.65958 52.53 3.68958 52.04 3.71958 51.55C3.89958 48.49 4.07958 45.32 11.9096 39.08C20.9296 31.89 23.3196 30.75 26.0696 32.3C27.2196 32.94 27.8596 33.87 27.9396 34.96C28.0196 36.1 27.4996 37.92 24.6096 40.12C20.0596 43.58 16.8696 47.98 15.8496 52.22C15.9796 53.52 17.5696 69.44 18.9896 72.37C19.2996 73.01 20.1296 74.68 21.2496 76.95C28.1296 90.86 34.5496 103.96 34.9796 105.71C35.1896 106.55 35.8196 107.7 36.4296 108.81C37.5096 110.77 38.1396 112.01 37.7196 112.79C37.5996 113.01 37.3496 113.28 36.8096 113.32C36.1296 113.37 33.4996 113.39 30.2896 113.39ZM16.2296 112.33C20.0496 112.36 35.0396 112.45 36.7296 112.33C36.8196 112.33 36.8496 112.3 36.8496 112.3C37.0096 111.95 36.0896 110.29 35.5496 109.3C34.9096 108.13 34.2496 106.93 33.9996 105.96C33.5296 104.08 24.6196 86.06 20.3396 77.4C19.2196 75.13 18.3896 73.46 18.0796 72.81C16.5396 69.62 14.9096 52.95 14.8396 52.24V52.16L14.8496 52.08C15.8996 47.6 19.2396 42.95 23.9996 39.33C25.9796 37.83 27.0196 36.3 26.9396 35.04C26.8796 34.1 26.1696 33.51 25.5796 33.18C23.4696 32 21.5096 32.73 12.5396 39.87C5.05958 45.83 4.88958 48.77 4.71958 51.61C4.68958 52.13 4.65958 52.64 4.58958 53.16C4.11958 56.8 2.86958 63.09 1.68958 67.8C0.459577 72.73 5.20958 79.54 8.88958 84.24C12.5196 88.87 13.3396 92.18 14.6996 97.66C15.0196 98.97 15.3796 100.41 15.8196 102.04C17.4296 108.04 16.7996 111.01 16.2196 112.31L16.2296 112.33Z" fill="#231E1E"/>
<mask id="mask2_4267_4267" style="mask-type:luminance" maskUnits="userSpaceOnUse" x="6" y="46" width="32" height="67">
<path d="M37.5799 112.16C37.5799 112.16 34.2499 104.62 35.2299 97.5801C36.2099 90.5401 35.8199 83.2901 31.1199 76.4401C26.4199 69.5901 22.6999 68.2201 19.7699 62.7401C16.8299 57.2601 16.6399 45.1301 9.97989 46.5001C3.32989 47.8701 8.40989 60.7901 9.97989 63.7201C11.5499 66.6601 13.4999 70.5701 13.4999 72.9201" fill="white"/>
</mask>
<g mask="url(#mask2_4267_4267)">
<path d="M6.65008 45.1304H3.33008V112.16H6.65008V45.1304Z" fill="#EBCEBC"/>
<path d="M7.53039 45.1304H6.65039V112.16H7.53039V45.1304Z" fill="#EBCEBC"/>
<path d="M8.41027 45.1304H7.53027V112.16H8.41027V45.1304Z" fill="#ECCFBD"/>
<path d="M9.29992 45.1304H8.41992V112.16H9.29992V45.1304Z" fill="#ECD0BD"/>
<path d="M10.1798 45.1304H9.2998V112.16H10.1798V45.1304Z" fill="#EDD1BE"/>
<path d="M11.0704 45.1304H10.1904V112.16H11.0704V45.1304Z" fill="#EDD2BF"/>
<path d="M11.9503 45.1304H11.0703V112.16H11.9503V45.1304Z" fill="#EED3C0"/>
<path d="M12.8302 45.1304H11.9502V112.16H12.8302V45.1304Z" fill="#EFD4C0"/>
<path d="M13.7198 45.1304H12.8398V112.16H13.7198V45.1304Z" fill="#EFD5C1"/>
<path d="M14.5997 45.1304H13.7197V112.16H14.5997V45.1304Z" fill="#F0D6C2"/>
<path d="M15.4796 45.1304H14.5996V112.16H15.4796V45.1304Z" fill="#F0D7C3"/>
<path d="M16.3702 45.1304H15.4902V112.16H16.3702V45.1304Z" fill="#F1D8C3"/>
<path d="M17.2501 45.1304H16.3701V112.16H17.2501V45.1304Z" fill="#F1D9C4"/>
<path d="M18.1398 45.1304H17.2598V112.16H18.1398V45.1304Z" fill="#F2DAC5"/>
<path d="M19.0196 45.1304H18.1396V112.16H19.0196V45.1304Z" fill="#F3DBC6"/>
<path d="M19.9005 45.1304H19.0205V112.16H19.9005V45.1304Z" fill="#F3DCC6"/>
<path d="M20.7902 45.1304H19.9102V112.16H20.7902V45.1304Z" fill="#F4DDC7"/>
<path d="M21.67 45.1304H20.79V112.16H21.67V45.1304Z" fill="#F4DEC8"/>
<path d="M22.5499 45.1304H21.6699V112.16H22.5499V45.1304Z" fill="#F5E0C9"/>
<path d="M23.4405 45.1304H22.5605V112.16H23.4405V45.1304Z" fill="#F6E1C9"/>
<path d="M24.3204 45.1304H23.4404V112.16H24.3204V45.1304Z" fill="#F6E2CA"/>
<path d="M25.2101 45.1304H24.3301V112.16H25.2101V45.1304Z" fill="#F7E3CB"/>
<path d="M26.09 45.1304H25.21V112.16H26.09V45.1304Z" fill="#F7E4CB"/>
<path d="M26.9698 45.1304H26.0898V112.16H26.9698V45.1304Z" fill="#F8E5CC"/>
<path d="M27.8605 45.1304H26.9805V112.16H27.8605V45.1304Z" fill="#F9E6CD"/>
<path d="M28.7404 45.1304H27.8604V112.16H28.7404V45.1304Z" fill="#F9E7CE"/>
<path d="M29.6202 45.1304H28.7402V112.16H29.6202V45.1304Z" fill="#FAE8CE"/>
<path d="M30.5099 45.1304H29.6299V112.16H30.5099V45.1304Z" fill="#FAE9CF"/>
<path d="M31.3898 45.1304H30.5098V112.16H31.3898V45.1304Z" fill="#FBEAD0"/>
<path d="M32.2804 45.1304H31.4004V112.16H32.2804V45.1304Z" fill="#FBEBD1"/>
<path d="M33.1603 45.1304H32.2803V112.16H33.1603V45.1304Z" fill="#FCECD1"/>
<path d="M34.0402 45.1304H33.1602V112.16H34.0402V45.1304Z" fill="#FDEDD2"/>
<path d="M34.9298 45.1304H34.0498V112.16H34.9298V45.1304Z" fill="#FDEED3"/>
<path d="M35.8097 45.1304H34.9297V112.16H35.8097V45.1304Z" fill="#FEEFD4"/>
<path d="M36.6905 45.1304H35.8105V112.16H36.6905V45.1304Z" fill="#FEF0D4"/>
<path d="M37.5802 45.1304H36.7002V112.16H37.5802V45.1304Z" fill="#FFF1D5"/>
</g>
<path d="M37.12 112.37C36.98 112.06 33.75 104.62 34.73 97.5101C35.9 89.0501 34.63 82.4501 30.7 76.7301C28.48 73.4801 26.45 71.4601 24.66 69.6701C22.63 67.6501 20.89 65.9001 19.32 62.9801C18.38 61.2301 17.74 58.9101 17.06 56.4601C15.59 51.1501 14.21 46.1401 10.07 46.9901C8.93004 47.2301 8.14004 47.8301 7.67004 48.8501C5.86004 52.7001 9.05004 60.9301 10.41 63.4801C12.18 66.8001 13.99 70.5201 13.99 72.9101H12.99C12.99 70.7201 11.14 66.9701 9.53004 63.9501C8.47004 61.9601 4.64004 52.9401 6.76004 48.4201C7.37004 47.1201 8.42004 46.3001 9.87004 46.0001C14.92 44.9501 16.57 50.9201 18.02 56.1901C18.68 58.5901 19.31 60.8501 20.19 62.5001C21.68 65.2901 23.38 66.9901 25.35 68.9501C27.17 70.7701 29.23 72.8301 31.51 76.1501C36.86 83.9501 36.46 92.1501 35.7 97.6401C34.75 104.47 37.98 111.88 38.01 111.95L37.09 112.35L37.12 112.37Z" fill="#231E1E"/>
<path d="M7.63997 48.82C7.63997 48.82 7.76997 46.55 9.70997 46.15C11.65 45.75 12.68 46.62 13.35 47.49C14.02 48.36 14.69 51.71 14.42 52.11C14.15 52.51 9.65997 54.28 8.73997 53.83C7.81997 53.38 7.34997 49.98 7.63997 48.83V48.82Z" fill="white"/>
<path d="M9.14039 54.37C8.89039 54.37 8.68039 54.34 8.53039 54.26C7.27039 53.64 6.87039 49.97 7.15039 48.74C7.22039 47.81 7.82039 46.03 9.61039 45.65C12.1604 45.12 13.3604 46.66 13.7504 47.17C14.4404 48.06 15.2904 51.69 14.8504 52.37C14.5204 52.88 10.8504 54.37 9.14039 54.37ZM10.6504 46.54C10.4004 46.54 10.1204 46.57 9.82039 46.63C8.29039 46.95 8.15039 48.77 8.15039 48.85V48.94C7.85039 50.07 8.42039 53.09 8.97039 53.37C9.59039 53.65 13.2604 52.35 13.9904 51.83C14.0504 51.21 13.5204 48.51 12.9604 47.79C12.4704 47.16 11.8104 46.54 10.6504 46.54Z" fill="#231E1E"/>
<path d="M18.9502 34.4198C18.9502 34.4198 19.2802 35.6998 21.0702 35.1298C22.8602 34.5598 25.4202 32.5298 25.4202 32.5298C25.4202 32.5298 24.4302 31.6998 22.7702 32.3998C21.1002 33.1098 18.9602 34.4098 18.9602 34.4098L18.9502 34.4198Z" fill="white"/>
<path d="M20.2299 35.7699C19.8699 35.7699 19.5499 35.6899 19.2699 35.5399C18.6499 35.1999 18.4799 34.6099 18.4699 34.5399L18.3799 34.1799L18.6999 33.9899C18.7899 33.9399 20.8999 32.6599 22.5799 31.9399C24.5099 31.1199 25.6999 32.0999 25.7499 32.1399L26.2199 32.5299L25.7399 32.9099C25.6299 32.9999 23.0799 34.9999 21.2299 35.5899C20.8699 35.6999 20.5399 35.7599 20.2399 35.7599L20.2299 35.7699ZM19.6499 34.5899C19.6499 34.5899 19.7299 34.6499 19.7699 34.6699C20.0399 34.8099 20.4299 34.7999 20.9199 34.6499C22.0599 34.2899 23.5699 33.2699 24.4299 32.6499C24.0699 32.5899 23.5799 32.6099 22.9599 32.8599C21.7899 33.3599 20.3499 34.1699 19.6399 34.5899H19.6499Z" fill="#231E1E"/>
<path d="M18.4196 28.0002C18.4196 28.0002 18.7196 28.9902 17.6096 30.5002C16.4996 32.0102 15.2496 31.2002 15.2196 31.1802C14.8296 30.9302 16.1196 29.4902 16.2696 29.3002C16.4896 29.0302 18.1796 27.2002 18.4196 28.0002Z" fill="white"/>
<path d="M16.0501 31.9199C15.5901 31.9199 15.1901 31.7699 14.9401 31.6099C14.7801 31.5099 14.6701 31.3399 14.6501 31.1499C14.6001 30.7799 14.7801 30.2899 15.8301 29.0499C16.1401 28.6799 17.4701 27.1599 18.3301 27.3199C18.6001 27.3799 18.8101 27.5699 18.9001 27.8599C18.9401 27.9899 19.2201 29.1499 18.0101 30.7999C17.3901 31.6499 16.6701 31.9199 16.0501 31.9199ZM15.7101 30.8699C16.0401 30.9699 16.6201 30.9899 17.2001 30.2099C17.8101 29.3699 17.9401 28.7499 17.9501 28.4099C17.5801 28.6499 16.9701 29.2299 16.6501 29.6199C16.0701 30.2999 15.8201 30.6699 15.7101 30.8599V30.8699Z" fill="#231E1E"/>
<path d="M11.6202 124.76L11.2402 104.5L39.7102 102.89L41.0102 124.04L11.6202 124.76Z" fill="#E6E6E6"/>
<path d="M11.1305 125.27L10.7305 104.03L40.1805 102.36L41.5505 124.52L11.1305 125.27ZM11.7505 104.97L12.1105 124.24L40.4905 123.54L39.2505 103.41L11.7605 104.96L11.7505 104.97Z" fill="#231E1E"/>
<path d="M10.1598 126.32L8.7998 109.57L42.6898 107.66L44.1998 126.32H10.1598Z" fill="black"/>
<mask id="mask3_4267_4267" style="mask-type:luminance" maskUnits="userSpaceOnUse" x="76" y="27" width="16" height="20">
<path d="M77.8399 35.2399C77.8399 35.2399 75.8199 31.8999 76.5399 30.1299C77.2599 28.3599 79.4199 26.5999 81.2499 28.8899C83.0799 31.1799 86.1599 35.7599 88.9099 40.7399C91.6599 45.7099 92.1199 45.7799 90.3499 46.0399" fill="white"/>
</mask>
<g mask="url(#mask3_4267_4267)">
<path d="M91.4007 26.6001H90.9707V46.0401H91.4007V26.6001Z" fill="#EBCEBC"/>
<path d="M90.97 26.6001H90.54V46.0401H90.97V26.6001Z" fill="#ECCFBD"/>
<path d="M90.5501 26.6001H90.1201V46.0401H90.5501V26.6001Z" fill="#ECD0BD"/>
<path d="M90.1204 26.6001H89.6904V46.0401H90.1204V26.6001Z" fill="#EDD1BE"/>
<path d="M89.6907 26.6001H89.2607V46.0401H89.6907V26.6001Z" fill="#EDD2BF"/>
<path d="M89.2601 26.6001H88.8301V46.0401H89.2601V26.6001Z" fill="#EED3C0"/>
<path d="M88.8304 26.6001H88.4004V46.0401H88.8304V26.6001Z" fill="#EFD4C0"/>
<path d="M88.4007 26.6001H87.9707V46.0401H88.4007V26.6001Z" fill="#EFD5C1"/>
<path d="M87.97 26.6001H87.54V46.0401H87.97V26.6001Z" fill="#F0D6C2"/>
<path d="M87.5404 26.6001H87.1104V46.0401H87.5404V26.6001Z" fill="#F0D7C3"/>
<path d="M87.1107 26.6001H86.6807V46.0401H87.1107V26.6001Z" fill="#F1D8C3"/>
<path d="M86.68 26.6001H86.25V46.0401H86.68V26.6001Z" fill="#F1D9C4"/>
<path d="M86.2503 26.6001H85.8203V46.0401H86.2503V26.6001Z" fill="#F2DAC5"/>
<path d="M85.8304 26.6001H85.4004V46.0401H85.8304V26.6001Z" fill="#F3DBC6"/>
<path d="M85.4007 26.6001H84.9707V46.0401H85.4007V26.6001Z" fill="#F3DCC6"/>
<path d="M84.97 26.6001H84.54V46.0401H84.97V26.6001Z" fill="#F4DDC7"/>
<path d="M84.5404 26.6001H84.1104V46.0401H84.5404V26.6001Z" fill="#F4DEC8"/>
<path d="M84.1107 26.6001H83.6807V46.0401H84.1107V26.6001Z" fill="#F5E0C9"/>
<path d="M83.68 26.6001H83.25V46.0401H83.68V26.6001Z" fill="#F6E1C9"/>
<path d="M83.2503 26.6001H82.8203V46.0401H83.2503V26.6001Z" fill="#F6E2CA"/>
<path d="M82.8206 26.6001H82.3906V46.0401H82.8206V26.6001Z" fill="#F7E3CB"/>
<path d="M82.39 26.6001H81.96V46.0401H82.39V26.6001Z" fill="#F7E4CB"/>
<path d="M81.9603 26.6001H81.5303V46.0401H81.9603V26.6001Z" fill="#F8E5CC"/>
<path d="M81.5404 26.6001H81.1104V46.0401H81.5404V26.6001Z" fill="#F9E6CD"/>
<path d="M81.1107 26.6001H80.6807V46.0401H81.1107V26.6001Z" fill="#F9E7CE"/>
<path d="M80.68 26.6001H80.25V46.0401H80.68V26.6001Z" fill="#FAE8CE"/>
<path d="M80.2503 26.6001H79.8203V46.0401H80.2503V26.6001Z" fill="#FAE9CF"/>
<path d="M79.8206 26.6001H79.3906V46.0401H79.8206V26.6001Z" fill="#FBEAD0"/>
<path d="M79.39 26.6001H78.96V46.0401H79.39V26.6001Z" fill="#FBEBD1"/>
<path d="M78.9603 26.6001H78.5303V46.0401H78.9603V26.6001Z" fill="#FCECD1"/>
<path d="M78.5306 26.6001H78.1006V46.0401H78.5306V26.6001Z" fill="#FDEDD2"/>
<path d="M78.0999 26.6001H77.6699V46.0401H78.0999V26.6001Z" fill="#FDEED3"/>
<path d="M77.6702 26.6001H77.2402V46.0401H77.6702V26.6001Z" fill="#FEEFD4"/>
<path d="M77.2503 26.6001H76.8203V46.0401H77.2503V26.6001Z" fill="#FEF0D4"/>
<path d="M76.8206 26.6001H76.3906V46.0401H76.8206V26.6001Z" fill="#FFF1D5"/>
<path d="M76.3903 26.6001H75.8203V46.0401H76.3903V26.6001Z" fill="#FFF1D5"/>
</g>
<path d="M90.4297 46.5299L90.2797 45.5399C90.4397 45.5199 90.7397 45.4699 90.8897 45.4199C90.8197 45.0999 90.3297 44.2599 89.7397 43.2199C89.3897 42.6099 88.9697 41.8699 88.4697 40.9799C85.6697 35.9199 82.6297 31.4199 80.8597 29.1999C80.3197 28.5299 79.7497 28.2299 79.1297 28.3099C78.1797 28.4499 77.3597 29.4499 76.9997 30.3199C76.4897 31.5799 77.7397 34.1099 78.2597 34.9799L77.3997 35.4999C77.1797 35.1399 75.2697 31.8899 76.0697 29.9499C76.5497 28.7899 77.6297 27.5299 78.9797 27.3299C79.6597 27.2299 80.6597 27.3699 81.6297 28.5799C83.4297 30.8299 86.5097 35.3899 89.3397 40.4999C89.8297 41.3899 90.2497 42.1299 90.5997 42.7299C91.7397 44.7299 92.0797 45.3299 91.8097 45.8999C91.5797 46.3699 91.0397 46.4499 90.4197 46.5399L90.4297 46.5299Z" fill="#231E1E"/>
<mask id="mask4_4267_4267" style="mask-type:luminance" maskUnits="userSpaceOnUse" x="60" y="32" width="38" height="82">
<path d="M82.7101 113.14C82.7101 113.14 80.4301 111.01 82.7101 102.5C84.9901 93.9898 85.1401 90.4998 89.5501 84.8698C93.9601 79.2498 98.0601 72.8698 96.8401 67.9998C95.6201 63.1398 94.4101 56.9098 93.9501 53.4098C93.4901 49.9098 94.7901 46.9298 85.8201 39.7898C76.8501 32.6498 74.6501 31.6798 72.2201 33.0498C69.7901 34.4198 69.9401 37.1498 73.7401 40.0398C77.5401 42.9298 81.4901 47.3298 82.7101 52.4998C82.7101 52.4998 81.0401 69.7498 79.5201 72.8998C78.0001 76.0498 64.1701 103.71 63.5601 106.14C62.9501 108.57 59.3101 112.98 61.2801 113.13C63.2601 113.28 82.7101 113.13 82.7101 113.13V113.14Z" fill="white"/>
</mask>
<g mask="url(#mask4_4267_4267)">
<path d="M98.0498 31.6899H97.0498V113.29H98.0498V31.6899Z" fill="#EBCEBC"/>
<path d="M97.0595 31.6899H96.0195V113.29H97.0595V31.6899Z" fill="#EBCEBC"/>
<path d="M96.0195 31.6899H94.9795V113.29H96.0195V31.6899Z" fill="#ECCFBD"/>
<path d="M94.9795 31.6899H93.9395V113.29H94.9795V31.6899Z" fill="#ECD0BD"/>
<path d="M93.9394 31.6899H92.8994V113.29H93.9394V31.6899Z" fill="#EDD1BE"/>
<path d="M92.8994 31.6899H91.8594V113.29H92.8994V31.6899Z" fill="#EDD2BF"/>
<path d="M91.8593 31.6899H90.8193V113.29H91.8593V31.6899Z" fill="#EED3C0"/>
<path d="M90.8203 31.6899H89.7803V113.29H90.8203V31.6899Z" fill="#EFD4C0"/>
<path d="M89.7802 31.6899H88.7402V113.29H89.7802V31.6899Z" fill="#EFD5C1"/>
<path d="M88.75 31.6899H87.71V113.29H88.75V31.6899Z" fill="#F0D6C2"/>
<path d="M87.7099 31.6899H86.6699V113.29H87.7099V31.6899Z" fill="#F0D7C3"/>
<path d="M86.6699 31.6899H85.6299V113.29H86.6699V31.6899Z" fill="#F1D8C3"/>
<path d="M85.6298 31.6899H84.5898V113.29H85.6298V31.6899Z" fill="#F1D9C4"/>
<path d="M84.5898 31.6899H83.5498V113.29H84.5898V31.6899Z" fill="#F2DAC5"/>
<path d="M83.5498 31.6899H82.5098V113.29H83.5498V31.6899Z" fill="#F3DBC6"/>
<path d="M82.5097 31.6899H81.4697V113.29H82.5097V31.6899Z" fill="#F3DCC6"/>
<path d="M81.4697 31.6899H80.4297V113.29H81.4697V31.6899Z" fill="#F4DDC7"/>
<path d="M80.4394 31.6899H79.3994V113.29H80.4394V31.6899Z" fill="#F4DEC8"/>
<path d="M79.3994 31.6899H78.3594V113.29H79.3994V31.6899Z" fill="#F5E0C9"/>
<path d="M78.3593 31.6899H77.3193V113.29H78.3593V31.6899Z" fill="#F6E1C9"/>
<path d="M77.3203 31.6899H76.2803V113.29H77.3203V31.6899Z" fill="#F6E2CA"/>
<path d="M76.2802 31.6899H75.2402V113.29H76.2802V31.6899Z" fill="#F7E3CB"/>
<path d="M75.2402 31.6899H74.2002V113.29H75.2402V31.6899Z" fill="#F7E4CB"/>
<path d="M74.2001 31.6899H73.1602V113.29H74.2001V31.6899Z" fill="#F8E5CC"/>
<path d="M73.1601 31.6899H72.1201V113.29H73.1601V31.6899Z" fill="#F9E6CD"/>
<path d="M72.1298 31.6899H71.0898V113.29H72.1298V31.6899Z" fill="#F9E7CE"/>
<path d="M71.0898 31.6899H70.0498V113.29H71.0898V31.6899Z" fill="#FAE8CE"/>
<path d="M70.0498 31.6899H69.0098V113.29H70.0498V31.6899Z" fill="#FAE9CF"/>
<path d="M69.0097 31.6899H67.9697V113.29H69.0097V31.6899Z" fill="#FBEAD0"/>
<path d="M67.9697 31.6899H66.9297V113.29H67.9697V31.6899Z" fill="#FBEBD1"/>
<path d="M66.9296 31.6899H65.8896V113.29H66.9296V31.6899Z" fill="#FCECD1"/>
<path d="M65.8896 31.6899H64.8496V113.29H65.8896V31.6899Z" fill="#FDEDD2"/>
<path d="M64.8496 31.6899H63.8096V113.29H64.8496V31.6899Z" fill="#FDEED3"/>
<path d="M63.8203 31.6899H62.7803V113.29H63.8203V31.6899Z" fill="#FEEFD4"/>
<path d="M62.7802 31.6899H61.7402V113.29H62.7802V31.6899Z" fill="#FEF0D4"/>
<path d="M61.7402 31.6899H60.7002V113.29H61.7402V31.6899Z" fill="#FFF1D5"/>
</g>
<path d="M67.7604 113.71C64.5504 113.71 61.9104 113.69 61.2404 113.64C60.7004 113.6 60.4504 113.33 60.3304 113.11C59.9104 112.33 60.5504 111.09 61.6204 109.13C62.2304 108.02 62.8604 106.87 63.0704 106.03C63.5104 104.28 69.9404 91.1498 76.8304 77.2098C77.9404 74.9698 78.7504 73.3298 79.0604 72.6898C80.4704 69.7598 82.0704 53.8398 82.2004 52.5398C80.7504 46.5298 75.5904 42.0798 73.4404 40.4398C70.5504 38.2398 70.0304 36.4198 70.1104 35.2798C70.1904 34.1798 70.8304 33.2598 71.9804 32.6198C74.7304 31.0698 77.1104 32.2098 86.1404 39.3998C93.9704 45.6398 94.1504 48.7998 94.3304 51.8698C94.3604 52.3598 94.3904 52.8498 94.4504 53.3498C94.9204 56.9598 96.1604 63.1998 97.3304 67.8798C98.6504 73.1698 94.0804 79.8998 89.9404 85.1798C86.4404 89.6398 85.6904 92.6898 84.3204 98.2298C83.9904 99.5498 83.6304 101 83.2004 102.63C81.0604 110.62 83.0504 112.76 83.0704 112.78L83.9004 113.62L82.7304 113.64C82.2104 113.64 73.9404 113.71 67.7804 113.71H67.7604ZM61.2104 112.63C61.2104 112.63 61.2504 112.64 61.3204 112.65C63.0104 112.78 78.0104 112.68 81.8204 112.65C81.2404 111.35 80.6104 108.38 82.2204 102.38C82.6604 100.75 83.0104 99.3098 83.3404 97.9998C84.7004 92.5198 85.5204 89.2098 89.1504 84.5798C92.8304 79.8798 97.5804 73.0698 96.3504 68.1398C95.1704 63.4298 93.9304 57.1298 93.4504 53.4998C93.3804 52.9798 93.3504 52.4598 93.3204 51.9498C93.1504 49.1098 92.9804 46.1598 85.5004 40.1998C76.5304 33.0598 74.5604 32.3198 72.4604 33.5098C71.8804 33.8398 71.1704 34.4298 71.1004 35.3698C71.0104 36.6398 72.0604 38.1598 74.0404 39.6698C78.8004 43.2898 82.1304 47.9298 83.1904 52.4098L83.2104 52.4898V52.5698C83.1304 53.2798 81.5004 69.9498 79.9604 73.1398C79.6504 73.7798 78.8404 75.4298 77.7304 77.6698C73.7704 85.6698 64.5104 104.4 64.0404 106.29C63.8004 107.26 63.1404 108.47 62.4904 109.63C61.9504 110.62 61.0404 112.27 61.2004 112.64L61.2104 112.63Z" fill="#231E1E"/>
<mask id="mask5_4267_4267" style="mask-type:luminance" maskUnits="userSpaceOnUse" x="60" y="46" width="32" height="67">
<path d="M60.4697 112.49C60.4697 112.49 63.7997 104.95 62.8197 97.9102C61.8397 90.8702 62.2297 83.6202 66.9297 76.7702C71.6297 69.9202 75.3497 68.5502 78.2797 63.0702C81.2197 57.5902 81.4097 45.4602 88.0697 46.8302C94.7297 48.2002 89.6397 61.1202 88.0697 64.0502C86.4997 66.9902 84.5497 70.9002 84.5497 73.2502" fill="white"/>
</mask>
<g mask="url(#mask5_4267_4267)">
<path d="M94.7194 45.4502H91.3994V112.48H94.7194V45.4502Z" fill="#EBCEBC"/>
<path d="M91.3995 45.4502H90.5195V112.48H91.3995V45.4502Z" fill="#EBCEBC"/>
<path d="M90.5099 45.4502H89.6299V112.48H90.5099V45.4502Z" fill="#ECCFBD"/>
<path d="M89.63 45.4502H88.75V112.48H89.63V45.4502Z" fill="#ECD0BD"/>
<path d="M88.7501 45.4502H87.8701V112.48H88.7501V45.4502Z" fill="#EDD1BE"/>
<path d="M87.8595 45.4502H86.9795V112.48H87.8595V45.4502Z" fill="#EDD2BF"/>
<path d="M86.9796 45.4502H86.0996V112.48H86.9796V45.4502Z" fill="#EED3C0"/>
<path d="M86.0997 45.4502H85.2197V112.48H86.0997V45.4502Z" fill="#EFD4C0"/>
<path d="M85.2101 45.4502H84.3301V112.48H85.2101V45.4502Z" fill="#EFD5C1"/>
<path d="M84.3302 45.4502H83.4502V112.48H84.3302V45.4502Z" fill="#F0D6C2"/>
<path d="M83.4396 45.4502H82.5596V112.48H83.4396V45.4502Z" fill="#F0D7C3"/>
<path d="M82.5597 45.4502H81.6797V112.48H82.5597V45.4502Z" fill="#F1D8C3"/>
<path d="M81.6798 45.4502H80.7998V112.48H81.6798V45.4502Z" fill="#F1D9C4"/>
<path d="M80.7902 45.4502H79.9102V112.48H80.7902V45.4502Z" fill="#F2DAC5"/>
<path d="M79.9093 45.4502H79.0293V112.48H79.9093V45.4502Z" fill="#F3DBC6"/>
<path d="M79.0294 45.4502H78.1494V112.48H79.0294V45.4502Z" fill="#F3DCC6"/>
<path d="M78.1398 45.4502H77.2598V112.48H78.1398V45.4502Z" fill="#F4DDC7"/>
<path d="M77.2599 45.4502H76.3799V112.48H77.2599V45.4502Z" fill="#F4DEC8"/>
<path d="M76.3693 45.4502H75.4893V112.48H76.3693V45.4502Z" fill="#F5E0C9"/>
<path d="M75.4894 45.4502H74.6094V112.48H75.4894V45.4502Z" fill="#F6E1C9"/>
<path d="M74.6095 45.4502H73.7295V112.48H74.6095V45.4502Z" fill="#F6E2CA"/>
<path d="M73.7198 45.4502H72.8398V112.48H73.7198V45.4502Z" fill="#F7E3CB"/>
<path d="M72.84 45.4502H71.96V112.48H72.84V45.4502Z" fill="#F7E4CB"/>
<path d="M71.9601 45.4502H71.0801V112.48H71.9601V45.4502Z" fill="#F8E5CC"/>
<path d="M71.0695 45.4502H70.1895V112.48H71.0695V45.4502Z" fill="#F9E6CD"/>
<path d="M70.1896 45.4502H69.3096V112.48H70.1896V45.4502Z" fill="#F9E7CE"/>
<path d="M69.2999 45.4502H68.4199V112.48H69.2999V45.4502Z" fill="#FAE8CE"/>
<path d="M68.42 45.4502H67.54V112.48H68.42V45.4502Z" fill="#FAE9CF"/>
<path d="M67.5402 45.4502H66.6602V112.48H67.5402V45.4502Z" fill="#FBEAD0"/>
<path d="M66.6495 45.4502H65.7695V112.48H66.6495V45.4502Z" fill="#FBEBD1"/>
<path d="M65.7696 45.4502H64.8896V112.48H65.7696V45.4502Z" fill="#FCECD1"/>
<path d="M64.8898 45.4502H64.0098V112.48H64.8898V45.4502Z" fill="#FDEDD2"/>
<path d="M64.0001 45.4502H63.1201V112.48H64.0001V45.4502Z" fill="#FDEED3"/>
<path d="M63.1193 45.4502H62.2393V112.48H63.1193V45.4502Z" fill="#FEEFD4"/>
<path d="M62.2296 45.4502H61.3496V112.48H62.2296V45.4502Z" fill="#FEF0D4"/>
<path d="M61.3497 45.4502H60.4697V112.48H61.3497V45.4502Z" fill="#FFF1D5"/>
</g>
<path d="M60.9298 112.69L60.0098 112.29C60.0398 112.22 63.2698 104.79 62.3198 97.98C61.5598 92.49 61.1598 84.29 66.5098 76.49C68.7898 73.17 70.8498 71.11 72.6698 69.29C74.6398 67.32 76.3398 65.62 77.8298 62.83C78.7098 61.18 79.3398 58.92 79.9998 56.52C81.4598 51.26 83.0998 45.29 88.1498 46.34C89.5998 46.64 90.6498 47.45 91.2598 48.76C93.3798 53.28 89.5498 62.3 88.4898 64.29C86.8798 67.31 85.0298 71.07 85.0298 73.25H84.0298C84.0298 70.86 85.8398 67.14 87.6098 63.82C88.9798 61.26 92.1598 53.04 90.3598 49.19C89.8798 48.17 89.0998 47.56 87.9598 47.33C83.8398 46.49 82.4398 51.49 80.9698 56.8C80.2898 59.25 79.6498 61.57 78.7098 63.32C77.1498 66.24 75.3998 67.99 73.3698 70.01C71.5798 71.8 69.5498 73.82 67.3298 77.07C63.4098 82.79 62.1298 89.39 63.2998 97.86C64.2898 104.96 61.0498 112.4 60.9098 112.72L60.9298 112.69Z" fill="#231E1E"/>
<path d="M90.4097 49.1398C90.4097 49.1398 90.2797 46.8698 88.3397 46.4698C86.3997 46.0698 85.3697 46.9398 84.6997 47.8098C84.0297 48.6798 83.3597 52.0298 83.6297 52.4298C83.8997 52.8298 88.3897 54.5998 89.3097 54.1498C90.2297 53.6998 90.6997 50.2998 90.4097 49.1498V49.1398Z" fill="white"/>
<path d="M88.9198 54.7001C87.2098 54.7001 83.5398 53.2101 83.2098 52.7001C82.7598 52.0201 83.6198 48.3901 84.3098 47.5001C84.6998 46.9901 85.8998 45.4501 88.4498 45.9801C90.2498 46.3501 90.8398 48.1401 90.9098 49.0701C91.1898 50.3101 90.7898 53.9801 89.5298 54.5901C89.3798 54.6601 89.1698 54.7001 88.9198 54.7001ZM84.0698 52.1501C84.7998 52.6701 88.4798 53.9601 89.0898 53.6901C89.6398 53.4201 90.2198 50.4001 89.9298 49.2601V49.1701C89.9098 49.0901 89.7698 47.2701 88.2398 46.9501C86.5298 46.5901 85.6898 47.3301 85.0998 48.1001C84.5498 48.8201 84.0198 51.5201 84.0698 52.1401V52.1501Z" fill="#231E1E"/>
<path d="M79.0999 34.7401C79.0999 34.7401 78.7699 36.0201 76.9799 35.4501C75.1899 34.8801 72.6299 32.8501 72.6299 32.8501C72.6299 32.8501 73.6199 32.0201 75.2799 32.7201C76.9499 33.4301 79.0899 34.7301 79.0899 34.7301L79.0999 34.7401Z" fill="white"/>
<path d="M77.8198 36.1002C77.5198 36.1002 77.1798 36.0402 76.8298 35.9302C74.9798 35.3402 72.4298 33.3302 72.3198 33.2502L71.8398 32.8702L72.3098 32.4802C72.3598 32.4402 73.5499 31.4602 75.4799 32.2802C77.1599 32.9902 79.2698 34.2702 79.3598 34.3302L79.6798 34.5202L79.5898 34.8802C79.5698 34.9502 79.4098 35.5302 78.7898 35.8802C78.5098 36.0402 78.1898 36.1102 77.8298 36.1102L77.8198 36.1002ZM73.6199 32.9802C74.4799 33.6002 75.9898 34.6202 77.1298 34.9802C77.6198 35.1402 78.0298 35.1402 78.2898 34.9902C78.3298 34.9702 78.3698 34.9402 78.3998 34.9102C77.6898 34.5002 76.2598 33.6802 75.0798 33.1802C74.4698 32.9202 73.9698 32.9002 73.6098 32.9702L73.6199 32.9802Z" fill="#231E1E"/>
<path d="M79.6405 28.32C79.6405 28.32 79.3404 29.31 80.4504 30.82C81.5604 32.33 82.8104 31.52 82.8404 31.5C83.2304 31.25 81.9405 29.81 81.7905 29.62C81.5705 29.35 79.8805 27.52 79.6405 28.32Z" fill="white"/>
<path d="M82.0002 32.2401C81.3902 32.2401 80.6702 31.9801 80.0402 31.1201C78.8302 29.4701 79.1203 28.3101 79.1503 28.1801C79.2403 27.8901 79.4403 27.6901 79.7203 27.6401C80.5803 27.4701 81.9103 29.0001 82.1603 29.3101C83.2703 30.6101 83.4503 31.1001 83.4003 31.4701C83.3703 31.6601 83.2702 31.8301 83.1002 31.9301C82.8502 32.0901 82.4502 32.2401 81.9902 32.2401H82.0002ZM80.1002 28.7401C80.1102 29.0801 80.2402 29.7001 80.8502 30.5401C81.4202 31.3301 82.0102 31.3001 82.3402 31.2001C82.2402 31.0101 82.0003 30.6601 81.4703 30.0301C81.1003 29.5901 80.4802 28.9901 80.1102 28.7401H80.1002Z" fill="#231E1E"/>
<path d="M57.04 125.36L58.35 103.22L86.82 104.83L85.51 124.97L57.04 125.36Z" fill="#E6E6E6"/>
<path d="M56.5098 125.87L57.8798 102.69L87.3498 104.36L85.9798 125.47L56.5098 125.88V125.87ZM58.8198 103.75L57.5698 124.86L85.0398 124.48L86.2898 105.3L58.8198 103.75Z" fill="#231E1E"/>
<path d="M53.8799 126.33L55.3599 107.98L89.2499 109.89L87.7599 126.24L53.8799 126.33Z" fill="black"/>
<mask id="mask6_4267_4267" style="mask-type:luminance" maskUnits="userSpaceOnUse" x="12" y="23" width="54" height="53">
<path d="M39.78 71.0202C43.81 75.0802 47.15 75.4802 47.15 75.4802L65.26 58.5902C61.73 57.2702 59.41 56.1402 57.53 54.4602C56.04 53.0502 54.79 51.4102 53.82 49.6002C52.25 46.8502 50.56 43.1002 48.07 37.7302C47.94 37.4502 47.8 37.1602 47.67 36.9002C45.92 33.1202 43.27 29.8302 39.95 27.3202C36.86 24.9502 33.05 23.6902 29.16 23.7702L12.5 39.3102C15.96 40.2302 19.2 41.8402 22.01 44.0502C25.16 46.7402 27.76 50.0202 29.66 53.7002C30.69 55.5502 31.71 57.6502 32.74 60.0502C33.65 62.2002 34.74 64.2702 35.99 66.2402C37.08 67.9702 38.35 69.5702 39.77 71.0302L39.78 71.0202Z" fill="white"/>
</mask>
<g mask="url(#mask6_4267_4267)">
<path d="M65.27 30.6504L12.5 24.2304V23.6904H65.27V30.6504Z" fill="#8EA0FA"/>
<path d="M65.27 30.9605L12.5 24.5405V24.2305L65.27 30.6505V30.9605Z" fill="#8EA0FA"/>
<path d="M65.27 31.2705L12.5 24.8505V24.5405L65.27 30.9605V31.2705Z" fill="#8DA1FA"/>
<path d="M65.27 31.5806L12.5 25.1706V24.8506L65.27 31.2706V31.5806Z" fill="#8CA1F9"/>
<path d="M65.27 31.8904L12.5 25.4804V25.1704L65.27 31.5804V31.8904Z" fill="#8BA2F9"/>
<path d="M65.27 32.2105L12.5 25.7905V25.4805L65.27 31.8905V32.2105Z" fill="#8AA2F8"/>
<path d="M65.27 32.5205L12.5 26.1005V25.7905L65.27 32.2105V32.5205Z" fill="#89A3F8"/>
<path d="M65.27 32.8306L12.5 26.4206V26.1006L65.27 32.5206V32.8306Z" fill="#88A3F7"/>
<path d="M65.27 33.1404L12.5 26.7304V26.4204L65.27 32.8304V33.1404Z" fill="#87A4F7"/>
<path d="M65.27 33.4605L12.5 27.0405V26.7305L65.27 33.1405V33.4605Z" fill="#86A4F6"/>
<path d="M65.27 33.7705L12.5 27.3505V27.0405L65.27 33.4605V33.7705Z" fill="#85A5F6"/>
<path d="M65.27 34.0806L12.5 27.6606V27.3506L65.27 33.7706V34.0806Z" fill="#84A6F5"/>
<path d="M65.27 34.3906L12.5 27.9806V27.6606L65.27 34.0806V34.3906Z" fill="#83A6F5"/>
<path d="M65.27 34.7005L12.5 28.2905V27.9805L65.27 34.3905V34.7005Z" fill="#82A7F4"/>
<path d="M65.27 35.0205L12.5 28.6005V28.2905L65.27 34.7005V35.0205Z" fill="#81A7F4"/>
<path d="M65.27 35.3306L12.5 28.9106V28.6006L65.27 35.0206V35.3306Z" fill="#80A8F3"/>
<path d="M65.27 35.6406L12.5 29.2206V28.9106L65.27 35.3306V35.6406Z" fill="#7FA8F3"/>
<path d="M65.27 35.9502L12.5 29.5402V29.2202L65.27 35.6402V35.9502Z" fill="#7EA9F2"/>
<path d="M65.27 36.2605L12.5 29.8505V29.5405L65.27 35.9505V36.2605Z" fill="#7DAAF2"/>
<path d="M65.27 36.5806L12.5 30.1606V29.8506L65.27 36.2606V36.5806Z" fill="#7CAAF1"/>
<path d="M65.27 36.8906L12.5 30.4706V30.1606L65.27 36.5806V36.8906Z" fill="#7BABF1"/>
<path d="M65.27 37.2002L12.5 30.7902V30.4702L65.27 36.8902V37.2002Z" fill="#7AABF0"/>
<path d="M65.27 37.5105L12.5 31.1005V30.7905L65.27 37.2005V37.5105Z" fill="#79ACF0"/>
<path d="M65.27 37.8306L12.5 31.4106V31.1006L65.27 37.5106V37.8306Z" fill="#78ACEF"/>
<path d="M65.27 38.1406L12.5 31.7206V31.4106L65.27 37.8306V38.1406Z" fill="#77ADEF"/>
<path d="M65.27 38.4502L12.5 32.0302V31.7202L65.27 38.1402V38.4502Z" fill="#76ADEE"/>
<path d="M65.27 38.7603L12.5 32.3503V32.0303L65.27 38.4503V38.7603Z" fill="#75AEEE"/>
<path d="M65.27 39.0706L12.5 32.6606V32.3506L65.27 38.7606V39.0706Z" fill="#74AFED"/>
<path d="M65.27 39.3906L12.5 32.9706V32.6606L65.27 39.0706V39.3906Z" fill="#73AFED"/>
<path d="M65.27 39.7002L12.5 33.2802V32.9702L65.27 39.3902V39.7002Z" fill="#72B0EC"/>
<path d="M65.27 40.0103L12.5 33.5903V33.2803L65.27 39.7003V40.0103Z" fill="#71B0EC"/>
<path d="M65.27 40.3203L12.5 33.9103V33.5903L65.27 40.0103V40.3203Z" fill="#70B1EC"/>
<path d="M65.27 40.6306L12.5 34.2206V33.9106L65.27 40.3206V40.6306Z" fill="#6FB1EB"/>
<path d="M65.27 40.9502L12.5 34.5302V34.2202L65.27 40.6302V40.9502Z" fill="#6EB2EB"/>
<path d="M65.27 41.2603L12.5 34.8403V34.5303L65.27 40.9503V41.2603Z" fill="#6DB2EA"/>
<path d="M65.27 41.5703L12.5 35.1603V34.8403L65.27 41.2603V41.5703Z" fill="#6CB3EA"/>
<path d="M65.27 41.8806L12.5 35.4706V35.1606L65.27 41.5706V41.8806Z" fill="#6BB4E9"/>
<path d="M65.27 42.2002L12.5 35.7802V35.4702L65.27 41.8802V42.2002Z" fill="#6AB4E9"/>
<path d="M65.27 42.5103L12.5 36.0903V35.7803L65.27 42.2003V42.5103Z" fill="#69B5E8"/>
<path d="M65.27 42.8203L12.5 36.4003V36.0903L65.27 42.5103V42.8203Z" fill="#68B5E8"/>
<path d="M65.27 43.1304L12.5 36.7204V36.4004L65.27 42.8204V43.1304Z" fill="#67B6E7"/>
<path d="M65.27 43.4402L12.5 37.0302V36.7202L65.27 43.1302V43.4402Z" fill="#66B6E7"/>
<path d="M65.27 43.7603L12.5 37.3403V37.0303L65.27 43.4403V43.7603Z" fill="#65B7E6"/>
<path d="M65.27 44.0703L12.5 37.6503V37.3403L65.27 43.7603V44.0703Z" fill="#64B8E6"/>
<path d="M65.27 44.3804L12.5 37.9604V37.6504L65.27 44.0704V44.3804Z" fill="#63B8E5"/>
<path d="M65.27 44.6904L12.5 38.2804V37.9604L65.27 44.3805V44.6904Z" fill="#62B9E5"/>
<path d="M65.27 45.0003L12.5 38.5903V38.2803L65.27 44.6903V45.0003Z" fill="#61B9E4"/>
<path d="M65.27 45.3203L12.5 38.9003V38.5903L65.27 45.0003V45.3203Z" fill="#60BAE4"/>
<path d="M65.27 45.6304L12.5 39.2104V38.9004L65.27 45.3204V45.6304Z" fill="#5FBAE3"/>
<path d="M65.27 45.9404L12.5 39.5304V39.2104L65.27 45.6305V45.9404Z" fill="#5EBBE3"/>
<path d="M65.27 46.2503L12.5 39.8403V39.5303L65.27 45.9403V46.2503Z" fill="#5DBBE2"/>
<path d="M65.27 46.5703L12.5 40.1503V39.8403L65.27 46.2503V46.5703Z" fill="#5CBCE2"/>
<path d="M65.27 46.8804L12.5 40.4604V40.1504L65.27 46.5704V46.8804Z" fill="#5BBDE1"/>
<path d="M65.27 47.1904L12.5 40.7705V40.4604L65.27 46.8805V47.1904Z" fill="#5ABDE1"/>
<path d="M65.27 47.5005L12.5 41.0905V40.7705L65.27 47.1905V47.5005Z" fill="#59BEE0"/>
<path d="M65.27 47.8103L12.5 41.4003V41.0903L65.27 47.5003V47.8103Z" fill="#58BEE0"/>
<path d="M65.27 48.1304L12.5 41.7104V41.4004L65.27 47.8104V48.1304Z" fill="#57BFDF"/>
<path d="M65.27 48.4404L12.5 42.0205V41.7104L65.27 48.1305V48.4404Z" fill="#56BFDF"/>
<path d="M65.27 48.7505L12.5 42.3305V42.0205L65.27 48.4405V48.7505Z" fill="#55C0DF"/>
<path d="M65.27 49.0606L12.5 42.6506V42.3306L65.27 48.7506V49.0606Z" fill="#54C0DE"/>
<path d="M65.27 49.3704L12.5 42.9604V42.6504L65.27 49.0604V49.3704Z" fill="#53C1DE"/>
<path d="M65.27 49.6904L12.5 43.2705V42.9604L65.27 49.3704V49.6904Z" fill="#52C2DD"/>
<path d="M65.27 50.0005L12.5 43.5805V43.2705L65.27 49.6905V50.0005Z" fill="#51C2DD"/>
<path d="M65.27 50.3106L12.5 43.9006V43.5806L65.27 50.0006V50.3106Z" fill="#50C3DC"/>
<path d="M65.27 50.6204L12.5 44.2104V43.9004L65.27 50.3104V50.6204Z" fill="#4FC3DC"/>
<path d="M65.27 50.9404L12.5 44.5205V44.2104L65.27 50.6204V50.9404Z" fill="#4EC4DB"/>
<path d="M65.27 51.2505L12.5 44.8305V44.5205L65.27 50.9405V51.2505Z" fill="#4DC4DB"/>
<path d="M65.27 51.5606L12.5 45.1406V44.8306L65.27 51.2506V51.5606Z" fill="#4CC5DA"/>
<path d="M65.27 51.8706L12.5 45.4606V45.1406L65.27 51.5606V51.8706Z" fill="#4BC6DA"/>
<path d="M65.27 52.1805L12.5 45.7705V45.4604L65.27 51.8704V52.1805Z" fill="#4AC6D9"/>
<path d="M65.27 52.5005L12.5 46.0805V45.7705L65.27 52.1805V52.5005Z" fill="#49C7D9"/>
<path d="M65.27 52.8106L12.5 46.3906V46.0806L65.27 52.5006V52.8106Z" fill="#48C7D8"/>
<path d="M65.27 53.1206L12.5 46.7006V46.3906L65.27 52.8106V53.1206Z" fill="#46C8D8"/>
<path d="M65.27 53.4302L12.5 47.0202V46.7002L65.27 53.1202V53.4302Z" fill="#45C8D7"/>
<path d="M65.27 53.7405L12.5 47.3305V47.0205L65.27 53.4305V53.7405Z" fill="#44C9D7"/>
<path d="M65.27 54.0606L12.5 47.6406V47.3306L65.27 53.7406V54.0606Z" fill="#43C9D6"/>
<path d="M65.27 54.3706L12.5 47.9506V47.6406L65.27 54.0606V54.3706Z" fill="#42CAD6"/>
<path d="M65.27 54.6802L12.5 48.2702V47.9502L65.27 54.3702V54.6802Z" fill="#41CBD5"/>
<path d="M65.27 54.9905L12.5 48.5805V48.2705L65.27 54.6805V54.9905Z" fill="#40CBD5"/>
<path d="M65.27 55.3106L12.5 48.8906V48.5806L65.27 54.9906V55.3106Z" fill="#3FCCD4"/>
<path d="M65.27 55.6206L12.5 49.2006V48.8906L65.27 55.3106V55.6206Z" fill="#3ECCD4"/>
<path d="M65.27 55.9302L12.5 49.5102V49.2002L65.27 55.6202V55.9302Z" fill="#3DCDD3"/>
<path d="M65.27 56.2403L12.5 49.8303V49.5103L65.27 55.9303V56.2403Z" fill="#3CCDD3"/>
<path d="M65.27 56.5506L12.5 50.1406V49.8306L65.27 56.2406V56.5506Z" fill="#3BCED2"/>
<path d="M65.27 56.8706L12.5 50.4506V50.1406L65.27 56.5506V56.8706Z" fill="#3ACFD2"/>
<path d="M65.27 57.1802L12.5 50.7602V50.4502L65.27 56.8702V57.1802Z" fill="#39CFD1"/>
<path d="M65.27 57.4903L12.5 51.0703V50.7603L65.27 57.1803V57.4903Z" fill="#38D0D1"/>
<path d="M65.27 57.8003L12.5 51.3903V51.0703L65.27 57.4903V57.8003Z" fill="#37D0D1"/>
<path d="M65.27 58.1106L12.5 51.7006V51.3906L65.27 57.8006V58.1106Z" fill="#36D1D0"/>
<path d="M65.27 58.4302L12.5 52.0102V51.7002L65.27 58.1102V58.4302Z" fill="#35D1D0"/>
<path d="M65.27 58.7403L12.5 52.3203V52.0103L65.27 58.4303V58.7403Z" fill="#34D2CF"/>
<path d="M65.27 59.0503L12.5 52.6403V52.3203L65.27 58.7403V59.0503Z" fill="#33D2CF"/>
<path d="M65.27 59.3606L12.5 52.9506V52.6406L65.27 59.0506V59.3606Z" fill="#32D3CE"/>
<path d="M65.27 59.6802L12.5 53.2602V52.9502L65.27 59.3602V59.6802Z" fill="#31D4CE"/>
<path d="M65.27 59.9903L12.5 53.5703V53.2603L65.27 59.6803V59.9903Z" fill="#30D4CD"/>
<path d="M65.27 60.3003L12.5 53.8803V53.5703L65.27 59.9903V60.3003Z" fill="#2FD5CD"/>
<path d="M65.27 60.6104L12.5 54.2004V53.8804L65.27 60.3004V60.6104Z" fill="#2ED5CC"/>
<path d="M65.27 60.9202L12.5 54.5102V54.2002L65.27 60.6102V60.9202Z" fill="#2DD6CC"/>
<path d="M65.27 61.2403L12.5 54.8203V54.5103L65.27 60.9203V61.2403Z" fill="#2CD6CB"/>
<path d="M65.27 61.5503L12.5 55.1303V54.8203L65.27 61.2403V61.5503Z" fill="#2BD7CB"/>
<path d="M65.27 61.8604L12.5 55.4404V55.1304L65.27 61.5504V61.8604Z" fill="#2AD7CA"/>
<path d="M65.27 62.1704L12.5 55.7604V55.4404L65.27 61.8604V62.1704Z" fill="#29D8CA"/>
<path d="M65.27 62.4803L12.5 56.0703V55.7603L65.27 62.1703V62.4803Z" fill="#28D9C9"/>
<path d="M65.27 62.8003L12.5 56.3803V56.0703L65.27 62.4803V62.8003Z" fill="#27D9C9"/>
<path d="M65.27 63.1104L12.5 56.6904V56.3804L65.27 62.8004V63.1104Z" fill="#26DAC8"/>
<path d="M65.27 63.4204L12.5 57.0104V56.6904L65.27 63.1104V63.4204Z" fill="#25DAC8"/>
<path d="M65.27 63.7303L12.5 57.3203V57.0103L65.27 63.4203V63.7303Z" fill="#24DBC7"/>
<path d="M65.27 64.0503L12.5 57.6303V57.3203L65.27 63.7303V64.0503Z" fill="#23DBC7"/>
<path d="M65.27 64.3604L12.5 57.9404V57.6304L65.27 64.0504V64.3604Z" fill="#22DCC6"/>
<path d="M65.27 64.6704L12.5 58.2504V57.9404L65.27 64.3604V64.6704Z" fill="#21DDC6"/>
<path d="M65.27 64.9805L12.5 58.5705V58.2505L65.27 64.6705V64.9805Z" fill="#20DDC5"/>
<path d="M65.27 65.2903L12.5 58.8803V58.5703L65.27 64.9803V65.2903Z" fill="#1FDEC5"/>
<path d="M65.27 65.6104L12.5 59.1904V58.8804L65.27 65.2904V65.6104Z" fill="#1EDEC4"/>
<path d="M65.27 65.9204L12.5 59.5004V59.1904L65.27 65.6104V65.9204Z" fill="#1DDFC4"/>
<path d="M65.27 66.2305L12.5 59.8105V59.5005L65.27 65.9205V66.2305Z" fill="#1CDFC4"/>
<path d="M65.27 66.5405L12.5 60.1305V59.8105L65.27 66.2305V66.5405Z" fill="#1BE0C3"/>
<path d="M65.27 66.8504L12.5 60.4404V60.1304L65.27 66.5404V66.8504Z" fill="#1AE0C3"/>
<path d="M65.27 67.1704L12.5 60.7504V60.4404L65.27 66.8504V67.1704Z" fill="#19E1C2"/>
<path d="M65.27 67.4805L12.5 61.0605V60.7505L65.27 67.1705V67.4805Z" fill="#18E2C2"/>
<path d="M65.27 67.7905L12.5 61.3805V61.0605L65.27 67.4805V67.7905Z" fill="#17E2C1"/>
<path d="M65.27 68.1004L12.5 61.6904V61.3804L65.27 67.7904V68.1004Z" fill="#16E3C1"/>
<path d="M65.27 68.4204L12.5 62.0004V61.6904L65.27 68.1004V68.4204Z" fill="#15E3C0"/>
<path d="M65.27 68.7305L12.5 62.3105V62.0005L65.27 68.4205V68.7305Z" fill="#14E4C0"/>
<path d="M65.27 69.0405L12.5 62.6205V62.3105L65.27 68.7305V69.0405Z" fill="#13E4BF"/>
<path d="M65.27 69.3506L12.5 62.9406V62.6206L65.27 69.0406V69.3506Z" fill="#12E5BF"/>
<path d="M65.27 69.6604L12.5 63.2504V62.9404L65.27 69.3504V69.6604Z" fill="#11E5BE"/>
<path d="M65.27 69.9805L12.5 63.5605V63.2505L65.27 69.6605V69.9805Z" fill="#10E6BE"/>
<path d="M65.27 70.2905L12.5 63.8705V63.5605L65.27 69.9805V70.2905Z" fill="#0FE7BD"/>
<path d="M65.27 70.6006L12.5 64.1806V63.8706L65.27 70.2906V70.6006Z" fill="#0EE7BD"/>
<path d="M65.27 70.9107L12.5 64.5007V64.1807L65.27 70.6007V70.9107Z" fill="#0DE8BC"/>
<path d="M65.27 71.2205L12.5 64.8105V64.5005L65.27 70.9105V71.2205Z" fill="#0CE8BC"/>
<path d="M65.27 71.5406L12.5 65.1206V64.8105L65.27 71.2206V71.5406Z" fill="#0BE9BB"/>
<path d="M65.27 71.8506L12.5 65.4306V65.1206L65.27 71.5406V71.8506Z" fill="#0AE9BB"/>
<path d="M65.27 72.1607L12.5 65.7507V65.4307L65.27 71.8507V72.1607Z" fill="#09EABA"/>
<path d="M65.27 72.4705L12.5 66.0605V65.7505L65.27 72.1605V72.4705Z" fill="#08EBBA"/>
<path d="M65.27 72.7906L12.5 66.3706V66.0605L65.27 72.4706V72.7906Z" fill="#07EBB9"/>
<path d="M65.27 73.1006L12.5 66.6806V66.3706L65.27 72.7906V73.1006Z" fill="#06ECB9"/>
<path d="M65.27 73.4107L12.5 66.9907V66.6807L65.27 73.1007V73.4107Z" fill="#05ECB8"/>
<path d="M65.27 73.7202L12.5 67.3102V66.9902L65.27 73.4102V73.7202Z" fill="#04EDB8"/>
<path d="M65.27 74.0305L12.5 67.6206V67.3105L65.27 73.7206V74.0305Z" fill="#03EDB7"/>
<path d="M65.27 74.3506L12.5 67.9306V67.6206L65.27 74.0306V74.3506Z" fill="#02EEB7"/>
<path d="M65.27 74.6607L12.5 68.2407V67.9307L65.27 74.3507V74.6607Z" fill="#01EEB6"/>
<path d="M65.27 74.9702L12.5 68.5502V68.2402L65.27 74.6602V74.9702Z" fill="#00EFB6"/>
<path d="M12.5 68.5503L65.27 74.9703V75.4903H12.5V68.5503Z" fill="#00EFB6"/>
</g>
<path d="M47.2698 75.8401L47.1198 75.8201C46.9798 75.8001 43.6198 75.3501 39.5498 71.2601C38.1098 69.7901 36.8198 68.1601 35.7198 66.4201C34.4698 64.4401 33.3598 62.3401 32.4498 60.1801C31.4498 57.8501 30.4198 55.7301 29.3798 53.8701C27.4798 50.2001 24.9398 46.9901 21.8098 44.3101C19.0198 42.1301 15.8598 40.5501 12.4298 39.6401L11.8398 39.4801L29.0398 23.4401H29.1698C33.1298 23.3601 37.0398 24.6401 40.1798 27.0501C43.5298 29.5901 46.2298 32.9401 47.9998 36.7601C48.1198 37.0101 48.2498 37.2701 48.3798 37.5501L49.2098 39.3601C51.2598 43.8101 52.7498 47.0201 54.1398 49.4501C55.0898 51.2401 56.3198 52.8401 57.7898 54.2301C59.7298 55.9701 62.1398 57.0801 65.4098 58.2901L65.9198 58.4801L47.2998 75.8501L47.2698 75.8401ZM40.0198 70.7901C43.4398 74.2301 46.3698 74.9901 47.0498 75.1301L64.6498 58.7201C61.5698 57.5501 59.2398 56.4401 57.3198 54.7101C55.7898 53.2701 54.5198 51.6101 53.5398 49.7601C52.1398 47.3201 50.6498 44.0901 48.5898 39.6301L47.7798 37.8701C47.6298 37.5601 47.5098 37.3001 47.3798 37.0501C45.6498 33.3201 43.0198 30.0501 39.7598 27.5801C36.7698 25.2901 33.0498 24.0301 29.2998 24.1001L13.1698 39.1401C16.4698 40.1001 19.5098 41.6601 22.2198 43.7801C25.4298 46.5201 28.0298 49.8001 29.9598 53.5401C30.9998 55.4101 32.0398 57.5601 33.0498 59.9101C33.9498 62.0401 35.0398 64.1101 36.2698 66.0601C37.3398 67.7601 38.5998 69.3501 40.0098 70.7901H40.0198Z" fill="#231E1E"/>
<path d="M34.3993 50.2099C35.8993 53.9099 38.4193 55.6499 41.3593 54.4499C44.2993 53.2499 45.4493 49.2799 43.9393 45.5799C42.4293 41.8799 38.8293 39.8399 35.8993 41.0399C32.9693 42.2399 32.8893 46.5099 34.3993 50.2099Z" fill="#04EDB8"/>
<path d="M39.5594 55.1599C38.7194 55.1599 37.9094 54.9199 37.1594 54.4499C35.9294 53.6699 34.8594 52.2499 34.0894 50.3399C32.5394 46.5399 32.6294 42.0199 35.7794 40.7299C37.2894 40.1099 39.0194 40.2699 40.6294 41.1799C42.2094 42.0799 43.4994 43.5899 44.2594 45.4499C45.0194 47.3099 45.1594 49.2999 44.6494 51.0499C44.1294 52.8299 43.0094 54.1399 41.4894 54.7599C40.8394 55.0199 40.1894 55.1599 39.5694 55.1599H39.5594ZM37.6694 41.0299C37.0994 41.0299 36.5494 41.1399 36.0294 41.3499C33.2894 42.4699 33.2894 46.5899 34.7094 50.0799C35.4394 51.8599 36.4094 53.1799 37.5194 53.8799C38.6494 54.5899 39.8994 54.6799 41.2294 54.1399C42.5494 53.5999 43.5394 52.4399 43.9894 50.8599C44.4594 49.2599 44.3294 47.4299 43.6294 45.6999C42.9294 43.9699 41.7394 42.5799 40.2894 41.7599C39.4294 41.2699 38.5294 41.0299 37.6694 41.0299Z" fill="#231E1E"/>
<path d="M51.2942 65.0551C52.0036 64.0823 51.5947 62.5762 50.3809 61.6911C49.1671 60.806 47.6081 60.8771 46.8987 61.8499C46.1893 62.8227 46.5982 64.3288 47.812 65.2139C49.0258 66.099 50.5848 66.0279 51.2942 65.0551Z" fill="#04EDB8"/>
<path d="M49.6303 66.1701C48.9403 66.1701 48.2303 65.9301 47.6203 65.4901C46.2603 64.5001 45.8203 62.7801 46.6303 61.6601C47.4403 60.5401 49.2103 60.4401 50.5803 61.4301C51.9403 62.4201 52.3803 64.1401 51.5703 65.2601C51.1703 65.8101 50.5303 66.1401 49.7603 66.1701C49.7203 66.1701 49.6703 66.1701 49.6303 66.1701ZM48.5703 61.4101C48.0003 61.4101 47.4903 61.6201 47.1803 62.0501C46.5803 62.8701 46.9603 64.1701 48.0203 64.9401C48.5403 65.3201 49.1503 65.5101 49.7403 65.4901C50.2903 65.4601 50.7503 65.2401 51.0303 64.8501C51.6303 64.0301 51.2503 62.7301 50.1903 61.9601C49.6803 61.5901 49.1003 61.4001 48.5703 61.4001V61.4101Z" fill="#231E1E"/>
<path d="M28.8519 35.3684C29.3266 34.2981 28.5983 32.9367 27.2251 32.3276C25.8519 31.7185 24.3538 32.0924 23.8791 33.1627C23.4044 34.2329 24.1327 35.5943 25.5059 36.2034C26.8791 36.8125 28.3771 36.4387 28.8519 35.3684Z" fill="#04EDB8"/>
<path d="M26.8299 36.8202C26.3499 36.8202 25.8499 36.7202 25.3699 36.5002C24.6399 36.1702 24.0499 35.6402 23.7099 35.0002C23.3499 34.3302 23.3099 33.6202 23.5799 33.0102C23.8499 32.3902 24.4099 31.9603 25.1399 31.7703C25.8399 31.5903 26.6399 31.6802 27.3699 32.0002C28.0999 32.3202 28.6899 32.8602 29.0299 33.5002C29.3899 34.1702 29.4299 34.8703 29.1599 35.4903C28.7799 36.3403 27.8699 36.8202 26.8399 36.8202H26.8299ZM25.6399 35.8902C26.8399 36.4202 28.1399 36.1203 28.5399 35.2203C28.7299 34.8003 28.6899 34.3002 28.4299 33.8202C28.1599 33.3102 27.6799 32.8902 27.0899 32.6202C26.4899 32.3502 25.8599 32.2903 25.2999 32.4303C24.7699 32.5603 24.3799 32.8703 24.1899 33.2903C23.9999 33.7103 24.0399 34.2102 24.2999 34.6902C24.5699 35.2002 25.0499 35.6302 25.6499 35.8902H25.6399Z" fill="#231E1E"/>
<mask id="mask7_4267_4267" style="mask-type:luminance" maskUnits="userSpaceOnUse" x="52" y="2" width="23" height="25">
<path d="M71.9101 2.09033L73.7501 3.69033C76.1801 5.79033 73.7601 12.5503 68.3701 18.7703C62.9701 24.9903 56.6301 28.3403 54.2101 26.2303L52.3701 24.6403" fill="white"/>
</mask>
<g mask="url(#mask7_4267_4267)">
<path d="M76.1702 2.35033L71.9102 2.09033H76.1702V2.35033Z" fill="#FFF0D6"/>
<path d="M76.171 2.64033L67.041 2.09033H71.911L76.171 2.35033V2.64033Z" fill="#FFF0D6"/>
<path d="M76.1709 2.93033L62.1709 2.09033H67.0409L76.1709 2.64033V2.93033Z" fill="#FFF0D5"/>
<path d="M76.1708 3.23033L57.3008 2.09033H62.1708L76.1708 2.93033V3.23033Z" fill="#FFEFD4"/>
<path d="M76.1707 3.52033L52.4307 2.09033H57.3007L76.1707 3.23033V3.52033Z" fill="#FFEFD3"/>
<path d="M76.1706 3.81033L52.3506 2.38033V2.09033H52.4306L76.1706 3.52033V3.81033Z" fill="#FFEED2"/>
<path d="M76.1706 4.10037L52.3506 2.67037V2.38037L76.1706 3.81037V4.10037Z" fill="#FFEED1"/>
<path d="M76.1706 4.40041L52.3506 2.97041V2.67041L76.1706 4.10041V4.40041Z" fill="#FFEDD0"/>
<path d="M76.1706 4.69021L52.3506 3.26021V2.97021L76.1706 4.40021V4.69021Z" fill="#FFEDCF"/>
<path d="M76.1706 4.98025L52.3506 3.55025V3.26025L76.1706 4.69025V4.98025Z" fill="#FFEDCE"/>
<path d="M76.1706 5.27029L52.3506 3.84029V3.55029L76.1706 4.98029V5.27029Z" fill="#FFECCD"/>
<path d="M76.1706 5.56033L52.3506 4.14033V3.84033L76.1706 5.27033V5.56033Z" fill="#FFECCC"/>
<path d="M76.1706 5.86014L52.3506 4.43014V4.14014L76.1706 5.56014V5.86014Z" fill="#FFEBCB"/>
<path d="M76.1706 6.15018L52.3506 4.72018V4.43018L76.1706 5.86018V6.15018Z" fill="#FFEBCA"/>
<path d="M76.1706 6.44022L52.3506 5.01022V4.72021L76.1706 6.15022V6.44022Z" fill="#FFEAC9"/>
<path d="M76.1706 6.73025L52.3506 5.30025V5.01025L76.1706 6.44025V6.73025Z" fill="#FFEAC8"/>
<path d="M76.1706 7.03029L52.3506 5.60029V5.30029L76.1706 6.73029V7.03029Z" fill="#FFEAC7"/>
<path d="M76.1706 7.3201L52.3506 5.8901V5.6001L76.1706 7.0301V7.3201Z" fill="#FFE9C6"/>
<path d="M76.1706 7.61014L52.3506 6.18014V5.89014L76.1706 7.32014V7.61014Z" fill="#FFE9C5"/>
<path d="M76.1706 7.90018L52.3506 6.47018V6.18018L76.1706 7.61018V7.90018Z" fill="#FFE8C4"/>
<path d="M76.1706 8.19021L52.3506 6.77022V6.47021L76.1706 7.90022V8.19021Z" fill="#FFE8C3"/>
<path d="M76.1706 8.49051L52.3506 7.06051V6.77051L76.1706 8.19051V8.49051Z" fill="#FFE7C2"/>
<path d="M76.1706 8.78055L52.3506 7.35055V7.06055L76.1706 8.49055V8.78055Z" fill="#FFE7C1"/>
<path d="M76.1706 9.0701L52.3506 7.6401V7.3501L76.1706 8.7801V9.0701Z" fill="#FFE7C0"/>
<path d="M76.1706 9.36014L52.3506 7.93014V7.64014L76.1706 9.07014V9.36014Z" fill="#FFE6BF"/>
<path d="M76.1706 9.66018L52.3506 8.23018V7.93018L76.1706 9.36018V9.66018Z" fill="#FFE6BE"/>
<path d="M76.1706 9.95047L52.3506 8.52047V8.23047L76.1706 9.66047V9.95047Z" fill="#FFE5BD"/>
<path d="M76.1706 10.2405L52.3506 8.81051V8.52051L76.1706 9.95051V10.2405Z" fill="#FFE5BC"/>
<path d="M76.1706 10.5305L52.3506 9.10055V8.81055L76.1706 10.2405V10.5305Z" fill="#FFE5BB"/>
<path d="M76.1706 10.8301L52.3506 9.4001V9.1001L76.1706 10.5301V10.8301Z" fill="#FFE4BA"/>
<path d="M76.1706 11.1204L52.3506 9.69039V9.40039L76.1706 10.8304V11.1204Z" fill="#FFE4B9"/>
<path d="M76.1706 11.4104L52.3506 9.98043V9.69043L76.1706 11.1204V11.4104Z" fill="#FFE3B8"/>
<path d="M76.1706 11.7005L52.3506 10.2705V9.98047L76.1706 11.4105V11.7005Z" fill="#FFE3B7"/>
<path d="M76.1706 11.9905L52.3506 10.5705V10.2705L76.1706 11.7005V11.9905Z" fill="#FFE2B6"/>
<path d="M76.1706 12.2903L52.3506 10.8603V10.5703L76.1706 11.9903V12.2903Z" fill="#FFE2B5"/>
<path d="M76.1706 12.5804L52.3506 11.1504V10.8604L76.1706 12.2904V12.5804Z" fill="#FFE2B4"/>
<path d="M76.1706 12.8704L52.3506 11.4404V11.1504L76.1706 12.5804V12.8704Z" fill="#FFE1B3"/>
<path d="M76.1706 13.1604L52.3506 11.7304V11.4404L76.1706 12.8704V13.1604Z" fill="#FFE1B2"/>
<path d="M76.1706 13.4605L52.3506 12.0305V11.7305L76.1706 13.1605V13.4605Z" fill="#FFE0B1"/>
<path d="M76.1706 13.7503L52.3506 12.3203V12.0303L76.1706 13.4603V13.7503Z" fill="#FFE0B0"/>
<path d="M76.1706 14.0403L52.3506 12.6103V12.3203L76.1706 13.7503V14.0403Z" fill="#FFDFAF"/>
<path d="M76.1706 14.3304L52.3506 12.9004V12.6104L76.1706 14.0404V14.3304Z" fill="#FFDFAE"/>
<path d="M76.1706 14.6204L52.3506 13.2004V12.9004L76.1706 14.3304V14.6204Z" fill="#FFDFAD"/>
<path d="M76.1706 14.9202L52.3506 13.4902V13.2002L76.1706 14.6202V14.9202Z" fill="#FFDEAC"/>
<path d="M76.1706 15.2102L52.3506 13.7802V13.4902L76.1706 14.9202V15.2102Z" fill="#FFDEAB"/>
<path d="M76.1706 15.5003L52.3506 14.0703V13.7803L76.1706 15.2103V15.5003Z" fill="#FFDDA9"/>
<path d="M76.1706 15.7903L52.3506 14.3603V14.0703L76.1706 15.5003V15.7903Z" fill="#FFDDA8"/>
<path d="M76.1706 16.0904L52.3506 14.6604V14.3604L76.1706 15.7904V16.0904Z" fill="#FFDCA7"/>
<path d="M76.1706 16.3802L52.3506 14.9502V14.6602L76.1706 16.0902V16.3802Z" fill="#FFDCA6"/>
<path d="M76.1706 16.6702L52.3506 15.2402V14.9502L76.1706 16.3802V16.6702Z" fill="#FFDCA5"/>
<path d="M76.1706 16.9602L52.3506 15.5302V15.2402L76.1706 16.6702V16.9602Z" fill="#FFDBA4"/>
<path d="M76.1706 17.2603L52.3506 15.8303V15.5303L76.1706 16.9603V17.2603Z" fill="#FFDBA3"/>
<path d="M76.1706 17.5506L52.3506 16.1206V15.8306L76.1706 17.2606V17.5506Z" fill="#FFDAA2"/>
<path d="M76.1706 17.8401L52.3506 16.4101V16.1201L76.1706 17.5501V17.8401Z" fill="#FFDAA1"/>
<path d="M76.1706 18.1302L52.3506 16.7002V16.4102L76.1706 17.8402V18.1302Z" fill="#FFD9A0"/>
<path d="M76.1706 18.4202L52.3506 17.0002V16.7002L76.1706 18.1302V18.4202Z" fill="#FFD99F"/>
<path d="M76.1706 18.7205L52.3506 17.2905V17.0005L76.1706 18.4205V18.7205Z" fill="#FFD99E"/>
<path d="M76.1706 19.0105L52.3506 17.5805V17.2905L76.1706 18.7205V19.0105Z" fill="#FFD89D"/>
<path d="M76.1706 19.3006L52.3506 17.8706V17.5806L76.1706 19.0106V19.3006Z" fill="#FFD89C"/>
<path d="M76.1706 19.5901L52.3506 18.1601V17.8701L76.1706 19.3001V19.5901Z" fill="#FFD79B"/>
<path d="M76.1706 19.8902L52.3506 18.4602V18.1602L76.1706 19.5902V19.8902Z" fill="#FFD79A"/>
<path d="M76.1706 20.1805L52.3506 18.7505V18.4604L76.1706 19.8904V20.1805Z" fill="#FFD699"/>
<path d="M76.1706 20.4705L52.3506 19.0405V18.7505L76.1706 20.1805V20.4705Z" fill="#FFD698"/>
<path d="M76.1706 20.7605L52.3506 19.3305V19.0405L76.1706 20.4705V20.7605Z" fill="#FFD697"/>
<path d="M76.1706 21.0506L52.3506 19.6306V19.3306L76.1706 20.7606V21.0506Z" fill="#FFD596"/>
<path d="M76.1706 21.3504L52.3506 19.9204V19.6304L76.1706 21.0504V21.3504Z" fill="#FFD595"/>
<path d="M76.1706 21.6404L52.3506 20.2104V19.9204L76.1706 21.3504V21.6404Z" fill="#FFD494"/>
<path d="M76.1706 21.9305L52.3506 20.5005V20.2104L76.1706 21.6404V21.9305Z" fill="#FFD493"/>
<path d="M76.1706 22.2205L52.3506 20.7905V20.5005L76.1706 21.9305V22.2205Z" fill="#FFD492"/>
<path d="M76.1706 22.5205L52.3506 21.0905V20.7905L76.1706 22.2205V22.5205Z" fill="#FFD391"/>
<path d="M76.1706 22.8103L52.3506 21.3803V21.0903L76.1706 22.5203V22.8103Z" fill="#FFD390"/>
<path d="M76.1706 23.1004L52.3506 21.6704V21.3804L76.1706 22.8104V23.1004Z" fill="#FFD28F"/>
<path d="M76.1706 23.3904L52.3506 21.9604V21.6704L76.1706 23.1004V23.3904Z" fill="#FFD28E"/>
<path d="M76.1706 23.6905L52.3506 22.2605V21.9604L76.1706 23.3904V23.6905Z" fill="#FFD18D"/>
<path d="M76.1706 23.9803L52.3506 22.5503V22.2603L76.1706 23.6903V23.9803Z" fill="#FFD18C"/>
<path d="M76.1706 24.2703L52.3506 22.8403V22.5503L76.1706 23.9803V24.2703Z" fill="#FFD18B"/>
<path d="M76.1706 24.5603L52.3506 23.1303V22.8403L76.1706 24.2703V24.5603Z" fill="#FFD08A"/>
<path d="M76.1706 24.8504L52.3506 23.4304V23.1304L76.1706 24.5604V24.8504Z" fill="#FFD089"/>
<path d="M76.1706 25.1502L52.3506 23.7202V23.4302L76.1706 24.8502V25.1502Z" fill="#FFCF88"/>
<path d="M76.1706 25.4402L52.3506 24.0102V23.7202L76.1706 25.1502V25.4402Z" fill="#FFCF87"/>
<path d="M76.1706 25.7303L52.3506 24.3003V24.0103L76.1706 25.4403V25.7303Z" fill="#FFCE86"/>
<path d="M76.1706 26.0203L52.3506 24.5903V24.3003L76.1706 25.7303V26.0203Z" fill="#FFCE85"/>
<path d="M76.1706 26.3203L52.3506 24.8903V24.5903L76.1706 26.0203V26.3203Z" fill="#FFCE84"/>
<path d="M76.1706 26.6101L52.3506 25.1801V24.8901L76.1706 26.3201V26.6101Z" fill="#FFCD83"/>
<path d="M76.1706 26.9002L52.3506 25.4702V25.1802L76.1706 26.6102V26.9002Z" fill="#FFCD82"/>
<path d="M76.1706 27.1902L52.3506 25.7602V25.4702L76.1706 26.9002V27.1902Z" fill="#FFCC81"/>
<path d="M76.1706 27.4803L52.3506 26.0603V25.7603L76.1706 27.1903V27.4803Z" fill="#FFCC80"/>
<path d="M76.1706 27.7805L52.3506 26.3505V26.0605L76.1706 27.4805V27.7805Z" fill="#FFCB7F"/>
<path d="M76.1706 28.0701L52.3506 26.6401V26.3501L76.1706 27.7801V28.0701Z" fill="#FFCB7E"/>
<path d="M52.3506 26.6401L76.1706 28.0701V28.3301H52.3506V26.6401Z" fill="#FFCB7E"/>
</g>
<path d="M56.1098 27.1902C55.2398 27.1902 54.5198 26.9502 53.9698 26.4802L52.1298 24.8902C51.9898 24.7702 51.9698 24.5602 52.0998 24.4202C52.2198 24.2802 52.4298 24.2602 52.5698 24.3902L54.4098 25.9802C55.4598 26.8802 57.4898 26.6502 59.9998 25.3302C62.6398 23.9402 65.5198 21.5302 68.0998 18.5502C70.6798 15.5702 72.6598 12.3802 73.6598 9.57017C74.6098 6.90017 74.5598 4.85017 73.5098 3.94017L71.6698 2.35017C71.5298 2.23017 71.5098 2.02017 71.6398 1.88017C71.7598 1.74017 71.9698 1.73017 72.1098 1.85017L73.9498 3.44017C75.2298 4.55017 75.3498 6.81017 74.2898 9.80017C73.2598 12.6902 71.2398 15.9502 68.5998 18.9902C65.9598 22.0302 63.0198 24.4902 60.3098 25.9202C58.6998 26.7702 57.2698 27.2002 56.0998 27.2002L56.1098 27.1902Z" fill="#231E1E"/>
<mask id="mask8_4267_4267" style="mask-type:luminance" maskUnits="userSpaceOnUse" x="51" y="1" width="22" height="25">
<path d="M66.5224 17.1847C71.924 10.962 74.3386 4.21237 71.9154 2.10891C69.4922 0.00546034 63.149 3.34473 57.7473 9.56737C52.3457 15.79 49.9312 22.5397 52.3543 24.6431C54.7775 26.7466 61.1207 23.4073 66.5224 17.1847Z" fill="white"/>
</mask>
<g mask="url(#mask8_4267_4267)">
<path d="M60.6094 26.7399L74.3294 9.37988V26.7399H60.6094Z" fill="#FFF71D"/>
<path d="M60.25 26.7402L74.33 8.93018V9.38018L60.61 26.7402H60.25Z" fill="#FFF71D"/>
<path d="M59.8994 26.74L74.3294 8.47998V8.92998L60.2494 26.74H59.8994Z" fill="#FFF61D"/>
<path d="M59.54 26.7398L74.33 8.02979V8.47978L59.9 26.7398H59.54Z" fill="#FFF51C"/>
<path d="M59.1797 26.7401L74.3297 7.58008V8.03008L59.5397 26.7401H59.1797Z" fill="#FFF41C"/>
<path d="M58.8301 26.7399L74.3301 7.12988V7.57988L59.1801 26.7399H58.8301Z" fill="#FFF31B"/>
<path d="M58.4697 26.7399L74.3297 6.66992V7.12992L58.8297 26.7399H58.4697Z" fill="#FFF21B"/>
<path d="M58.1094 26.7402L74.3294 6.22021V6.67022L58.4694 26.7402H58.1094Z" fill="#FFF11A"/>
<path d="M57.75 26.74L74.33 5.77002V6.22002L58.11 26.74H57.75Z" fill="#FFF01A"/>
<path d="M57.3994 26.7398L74.3294 5.31982V5.76982L57.7494 26.7398H57.3994Z" fill="#FFEF19"/>
<path d="M57.04 26.7401L74.33 4.87012V5.32012L57.4 26.7401H57.04Z" fill="#FFEE19"/>
<path d="M56.6797 26.7399L74.3297 4.41992V4.86992L57.0397 26.7399H56.6797Z" fill="#FFED19"/>
<path d="M56.3301 26.7402L74.3301 3.97021V4.42021L56.6801 26.7402H56.3301Z" fill="#FFEC18"/>
<path d="M55.9697 26.7398L74.3297 3.50977V3.96977L56.3297 26.7398H55.9697Z" fill="#FFEB18"/>
<path d="M55.6094 26.7401L74.3294 3.06006V3.51006L55.9694 26.7401H55.6094Z" fill="#FFEA17"/>
<path d="M55.2598 26.7399L74.3298 2.60986V3.05986L55.6098 26.7399H55.2598Z" fill="#FFE917"/>
<path d="M54.8994 26.7402L74.3294 2.16016V2.61016L55.2594 26.7402H54.8994Z" fill="#FFE816"/>
<path d="M54.54 26.74L74.33 1.70996V2.15996L54.9 26.74H54.54Z" fill="#FFE716"/>
<path d="M54.1895 26.7398L74.3295 1.25977V1.70977L54.5395 26.7398H54.1895Z" fill="#FFE615"/>
<path d="M53.8301 26.7401L74.3301 0.810059V1.26006L54.1901 26.7401H53.8301Z" fill="#FFE515"/>
<path d="M53.4697 26.7401L74.3297 0.350098V0.810098L53.8297 26.7401H53.4697Z" fill="#FFE414"/>
<path d="M53.1094 26.74L74.2594 0H74.3294V0.35L53.4694 26.74H53.1094Z" fill="#FFE314"/>
<path d="M52.7598 26.74L73.8998 0H74.2598L53.1098 26.74H52.7598Z" fill="#FFE214"/>
<path d="M52.3994 26.74L73.5394 0H73.8994L52.7594 26.74H52.3994Z" fill="#FFE113"/>
<path d="M52.04 26.74L73.19 0H73.54L52.4 26.74H52.04Z" fill="#FFE013"/>
<path d="M51.6895 26.74L72.8295 0H73.1895L52.0395 26.74H51.6895Z" fill="#FFDF12"/>
<path d="M51.3301 26.74L72.4701 0H72.8301L51.6901 26.74H51.3301Z" fill="#FFDD12"/>
<path d="M50.9697 26.74L72.1197 0H72.4697L51.3297 26.74H50.9697Z" fill="#FFDC11"/>
<path d="M50.6201 26.74L71.7601 0H72.1201L50.9701 26.74H50.6201Z" fill="#FFDB11"/>
<path d="M50.2598 26.74L71.3998 0H71.7598L50.6198 26.74H50.2598Z" fill="#FFDA10"/>
<path d="M49.9297 26.71L71.0397 0H71.3997L50.2597 26.74H49.9297V26.71Z" fill="#FFD910"/>
<path d="M49.9297 26.26L70.6897 0H71.0397L49.9297 26.71V26.26Z" fill="#FFD810"/>
<path d="M49.9297 25.81L70.3297 0H70.6897L49.9297 26.26V25.81Z" fill="#FFD70F"/>
<path d="M49.9297 25.36L69.9697 0H70.3297L49.9297 25.81V25.36Z" fill="#FFD60F"/>
<path d="M49.9297 24.9L69.6197 0H69.9697L49.9297 25.36V24.9Z" fill="#FFD50E"/>
<path d="M49.9297 24.45L69.2597 0H69.6197L49.9297 24.9V24.45Z" fill="#FFD40E"/>
<path d="M49.9297 24L68.8997 0H69.2597L49.9297 24.45V24Z" fill="#FFD18B"/>
<path d="M49.9297 23.55L68.5497 0H68.8997L49.9297 24V23.55Z" fill="#FFD20D"/>
<path d="M49.9297 23.1L68.1897 0H68.5497L49.9297 23.55V23.1Z" fill="#FFD10C"/>
<path d="M49.9297 22.65L67.8297 0H68.1897L49.9297 23.1V22.65Z" fill="#FFD00C"/>
<path d="M49.9297 22.2L67.4797 0H67.8297L49.9297 22.65V22.2Z" fill="#FFCF0B"/>
<path d="M49.9297 21.74L67.1197 0H67.4797L49.9297 22.2V21.74Z" fill="#FFCE0B"/>
<path d="M49.9297 21.29L66.7597 0H67.1197L49.9297 21.74V21.29Z" fill="#FFCD0B"/>
<path d="M49.9297 20.84L66.4097 0H66.7597L49.9297 21.29V20.84Z" fill="#FFCC0A"/>
<path d="M49.9297 20.39L66.0497 0H66.4097L49.9297 20.84V20.39Z" fill="#FFCB0A"/>
<path d="M49.9297 19.94L65.6897 0H66.0497L49.9297 20.39V19.94Z" fill="#FFCA09"/>
<path d="M49.9297 19.49L65.3297 0H65.6897L49.9297 19.94V19.49Z" fill="#FFC909"/>
<path d="M49.9297 19.04L64.9797 0H65.3297L49.9297 19.49V19.04Z" fill="#FFC808"/>
<path d="M49.9297 18.58L64.6197 0H64.9797L49.9297 19.04V18.58Z" fill="#FFC708"/>
<path d="M49.9297 18.13L64.2597 0H64.6197L49.9297 18.58V18.13Z" fill="#FFC607"/>
<path d="M49.9297 17.68L63.9097 0H64.2597L49.9297 18.13V17.68Z" fill="#FFC507"/>
<path d="M63.9097 0L49.9297 17.68V0H63.9097Z" fill="#FFC507"/>
</g>
<path d="M54.2704 25.6001C53.4004 25.6001 52.6804 25.3601 52.1304 24.8901C49.5304 22.6301 51.8804 15.8001 57.4904 9.34009C60.1304 6.30009 63.0804 3.84009 65.7904 2.41009C68.6004 0.930089 70.8504 0.730089 72.1304 1.85009C73.4104 2.96009 73.5304 5.22009 72.4604 8.21009C71.4304 11.1001 69.4104 14.3601 66.7704 17.4001C64.1304 20.4401 61.1804 22.9001 58.4704 24.3301C56.8604 25.1801 55.4304 25.6001 54.2704 25.6001ZM69.9904 1.81009C68.9404 1.81009 67.6004 2.21009 66.1004 3.00009C63.4604 4.39009 60.5804 6.79009 58.0004 9.77009C52.8204 15.7401 50.3304 22.4301 52.5804 24.3701C53.6204 25.2801 55.6604 25.0401 58.1704 23.7201C60.8104 22.3301 63.6904 19.9301 66.2704 16.9501C68.8504 13.9701 70.8304 10.7801 71.8404 7.97009C72.7904 5.30009 72.7404 3.25009 71.7004 2.34009C71.2804 1.98009 70.7004 1.80009 70.0004 1.80009L69.9904 1.81009Z" fill="#231E1E"/>
</g>
<defs>
<clipPath id="clip0_4267_4267">
<rect width="98.05" height="126.33" fill="white"/>
</clipPath>
</defs>
</svg>
