<svg width="737" height="712" viewBox="0 0 737 712" fill="none" xmlns="http://www.w3.org/2000/svg">
<path d="M725 331.8L347.2 3.89999C344.3 1.39999 340.6 0 336.7 0H248.2C240.8 0 237.4 9.2
 243 14L593.2 318H8C3.6 318 0 321.6 0 326V386C0 390.4 3.6 394 8 394H593.1L242.9 698C237.3
  702.9 240.7 712 248.1 712H339.6C341.5 712 343.4 711.3 344.8 710L725 380.2C728.462
   377.19 731.238 373.472 733.14 369.297C735.042 365.122 736.026 360.588 736.026
    356C736.026 351.412 735.042 346.878 733.14 342.703C731.238 338.528 728.462 334.81 725 331.8V331.8Z" fill="white"/>
</svg>
