<svg width="22" height="17" viewBox="0 0 22 17" fill="none" xmlns="http://www.w3.org/2000/svg">
<g clip-path="url(#clip0_606_1030)">
<path d="M13.6946 13.1269C16.0394 13.1269 18.3838 13.1269 20.7286 13.1269C20.8334 13.1269 20.9385 13.1231 21.0433 13.1328C21.5391 13.1793 21.8638 13.6201 21.9597 14.4129C22.0212 14.9203 22.0149 15.4371 21.9264 15.9376C21.8094 16.6001 21.4721 16.97 20.9522 16.9863C20.3291 17.006 19.706 16.9991 19.0828 16.9994C16.6888 17.0006 14.2947 17.0002 11.9007 16.9994C10.1483 16.9987 8.39626 16.9967 6.64386 16.9944C5.72489 16.9932 5.39611 16.4536 5.39944 14.9548C5.40166 14.0488 5.60937 13.4704 6.01998 13.2413C6.17882 13.1529 6.34321 13.125 6.51205 13.125C8.9061 13.1277 11.3001 13.1269 13.6942 13.1269H13.6946Z" fill="#A4A6AB"/>
<path d="M2.80673e-05 15.0296C0.00521159 13.9771 0.842351 13.1153 1.85018 13.1246C2.8854 13.1343 3.70736 14.0003 3.69588 15.0696C3.68441 16.1407 2.8543 16.9959 1.82611 16.9959C0.813842 16.9959 -0.00552571 16.114 2.80673e-05 15.0296Z" fill="#A4A6AB"/>
<path d="M13.6946 6.56395C16.0394 6.56395 18.3838 6.56395 20.7286 6.56395C20.8334 6.56395 20.9385 6.56007 21.0433 6.56977C21.5391 6.61629 21.8638 7.05707 21.9597 7.84987C22.0212 8.35734 22.0149 8.87411 21.9264 9.3746C21.8094 10.0371 21.4721 10.407 20.9522 10.4233C20.3291 10.443 19.706 10.4361 19.0828 10.4364C16.6888 10.4376 14.2947 10.4372 11.9007 10.4364C10.1483 10.4357 8.39626 10.4337 6.64386 10.4314C5.72489 10.4302 5.39611 9.8906 5.39944 8.39184C5.40166 7.48584 5.60937 6.90743 6.01998 6.67831C6.17882 6.58992 6.34321 6.56201 6.51205 6.56201C8.9061 6.56473 11.3001 6.56395 13.6942 6.56395H13.6946Z" fill="#A4A6AB"/>
<path d="M2.80798e-05 8.46762C0.00521161 7.41508 0.842351 6.55327 1.85018 6.56257C2.8854 6.57227 3.70736 7.43834 3.69588 8.50755C3.68441 9.5787 2.8543 10.4339 1.82611 10.4339C0.813472 10.4339 -0.0055257 9.55195 2.80798e-05 8.46762Z" fill="#A4A6AB"/>
<path d="M13.6946 0.00193838C16.0394 0.00193838 18.3838 0.00193838 20.7286 0.00193838C20.8334 0.00193838 20.9385 -0.00193838 21.0433 0.00775353C21.5391 0.0542747 21.8638 0.495063 21.9597 1.28786C22.0212 1.79533 22.0149 2.3121 21.9264 2.81259C21.8094 3.47513 21.4721 3.84497 20.9522 3.86126C20.3291 3.88103 19.706 3.87405 19.0828 3.87444C16.6888 3.8756 14.2947 3.87521 11.9007 3.87444C10.1483 3.87366 8.39626 3.87172 6.64386 3.8694C5.72489 3.86824 5.39611 3.32859 5.39944 1.82983C5.40166 0.923833 5.60937 0.34542 6.01998 0.116303C6.17882 0.027525 6.34358 0 6.51205 0C8.9061 0.00271373 11.3001 0.00193838 13.6942 0.00193838H13.6946Z" fill="#A4A6AB"/>
<path d="M-9.39905e-05 1.90512C0.00545979 0.852963 0.842229 -0.00922963 1.85006 7.46041e-05C2.88528 0.00976652 3.70724 0.875836 3.69576 1.94505C3.68428 3.0162 2.85418 3.87141 1.82599 3.87141C0.81335 3.87141 -0.00564777 2.98945 -9.39905e-05 1.90512Z" fill="#A4A6AB"/>
</g>
<defs>
<clipPath id="clip0_606_1030">
<rect width="22" height="17" fill="white"/>
</clipPath>
</defs>
</svg>
