<svg width="27" height="20" viewBox="0 0 27 20" fill="none" xmlns="http://www.w3.org/2000/svg">
<path d="M20.3457 10.0557C18.911 10.0109 17.4839 9.91791 16.1009 9.48517C15.6565 9.34597 15.2265 9.17714 14.8385 8.9146C14.4623 8.66102 14.2363 8.32957 14.268 7.85203C14.2824 7.63084 14.27 7.40826 14.27 7.18569C14.27 5.9536 14.4471 5.6635 15.6337 5.22524C17.6438 4.4824 19.7359 4.40798 21.8438 4.5651C23.0132 4.65192 24.1625 4.849 25.2575 5.30517C26.0458 5.63387 26.4538 6.12105 26.4124 7.05407C26.3401 8.70512 26.1891 8.98144 24.5898 9.4831C23.2075 9.91653 21.7797 10.0089 20.345 10.055L20.3457 10.0557Z" fill="#A4A6AB"/>
<path d="M6.16219 5.53864C4.68479 5.51521 3.21773 5.40771 1.8051 4.93431C1.46331 4.81992 1.13393 4.65868 0.814884 4.48985C0.349751 4.24385 0.083764 3.87174 0.138891 3.31289C0.160942 3.09307 0.142338 2.86912 0.142338 2.64723C0.142338 1.43926 0.308406 1.16777 1.4702 0.732952C3.55951 -0.0491603 5.73289 -0.0884377 7.91936 0.0831447C9.00811 0.168591 10.0769 0.37256 11.0947 0.792902C11.8988 1.12435 12.3323 1.62808 12.2847 2.59004C12.2082 4.15289 12.0415 4.47193 10.5241 4.95774C9.10665 5.41184 7.63959 5.52348 6.1615 5.53864H6.16219Z" fill="#A4A6AB"/>
<path d="M6.13325 19.056C4.79711 19.0505 3.47407 18.9285 2.1841 18.5647C1.8368 18.4668 1.49708 18.3332 1.16287 18.1947C0.439333 17.8942 0.0148549 17.4043 0.129932 16.5601C0.183681 16.1632 -0.0409597 15.6071 0.217447 15.3983C0.496527 15.173 0.924449 15.6037 1.30207 15.7057C4.83777 16.6601 8.34935 16.7014 11.8182 15.4163C12.1986 15.275 12.2909 15.3508 12.2654 15.7167C12.2572 15.8373 12.2647 15.9586 12.2647 16.0799C12.2661 17.6971 12.0656 17.9769 10.4924 18.4786C9.07495 18.9306 7.61134 19.0526 6.13325 19.0567V19.056Z" fill="#A4A6AB"/>
<path d="M20.6819 19.0543C18.9806 19.0557 17.6382 18.9309 16.3276 18.5637C15.9989 18.4713 15.6805 18.3425 15.3629 18.2157C14.5883 17.9076 14.1969 17.3963 14.2472 16.4985C14.3148 15.2953 14.25 15.3408 15.3801 15.6647C18.9241 16.6811 22.4584 16.7052 25.952 15.4214C26.3021 15.2926 26.4275 15.325 26.3951 15.7129C26.3772 15.9334 26.3924 16.1567 26.3924 16.3786C26.3924 17.6134 26.2153 17.887 25.0362 18.3363C23.5237 18.913 21.9381 19.0371 20.6819 19.0543Z" fill="#A4A6AB"/>
<path d="M6.18155 10.0415C4.76754 10.0022 3.35836 9.91887 1.99742 9.48681C1.65288 9.37725 1.31522 9.24012 0.987219 9.08714C0.382202 8.8053 0.0411052 8.36016 0.130686 7.64833C0.185813 7.21283 -0.0567444 6.61332 0.236806 6.37766C0.491768 6.173 0.981708 6.6147 1.38689 6.72082C4.88745 7.638 8.36182 7.68003 11.7928 6.41211C12.1415 6.28325 12.2813 6.30117 12.2572 6.69601C12.2496 6.8166 12.2572 6.93789 12.2572 7.05916C12.2593 8.65922 12.0305 8.97758 10.4856 9.46476C9.08535 9.90647 7.63828 10.0085 6.18224 10.0415H6.18155Z" fill="#A4A6AB"/>
<path d="M20.3168 14.558C18.7801 14.5049 17.2303 14.407 15.7502 13.8613C14.3307 13.3383 13.8876 12.4624 14.2742 11.0078C14.3596 10.6867 14.5188 10.8445 14.678 10.9044C18.0469 12.1661 21.4655 12.14 24.9136 11.2917C25.2251 11.2152 25.5448 11.1215 25.8219 10.9664C26.3573 10.6667 26.4345 10.9189 26.3938 11.3792C26.3848 11.4791 26.3924 11.5811 26.3924 11.6817C26.3924 13.1612 26.1878 13.4568 24.7558 13.9323C23.3225 14.4084 21.8341 14.5159 20.3174 14.558H20.3168Z" fill="#A4A6AB"/>
<path d="M6.31176 14.5618C4.53737 14.4984 2.9256 14.3943 1.40065 13.7865C0.227136 13.3193 -0.268315 12.1699 0.14238 10.9764C0.234718 10.7077 0.374601 10.8421 0.513796 10.8965C3.5251 12.068 6.61841 12.0831 9.74892 11.5429C10.467 11.4188 11.165 11.2156 11.8244 10.9062C12.14 10.758 12.2696 10.8042 12.2572 11.1666C12.2469 11.4891 12.2276 11.8157 12.2613 12.1348C12.3399 12.8714 11.9719 13.3083 11.3545 13.6149C10.3808 14.0994 9.33065 14.2937 8.26877 14.4219C7.56866 14.5066 6.86028 14.5252 6.31176 14.5624V14.5618Z" fill="#A4A6AB"/>
</svg>
